<svg xmlns="http://www.w3.org/2000/svg" viewBox="0 0 500 500"><g id="freepik--background-complete--inject-819"><path d="M417.7,395.07a1.1,1.1,0,0,1,0-.24v-.68c0-.63,0-1.5,0-2.62,0-2.3-.05-5.6-.09-9.77l.16.16-50.32.1.26-.26h0v6.74q0,3.35,0,6.55l-.25-.25,35.86.11,10.58.08,2.86,0,.75,0h.27l-.24,0h-.71l-2.81,0-10.53.07-36,.11h-.25v-6.8c0-1.11,0-2.23,0-3.35v-3.39h0l.26-.26,50.32.1h.15v.16c0,4.21-.06,7.54-.08,9.86,0,1.11,0,2,0,2.58,0,.27,0,.49,0,.66A1.31,1.31,0,0,1,417.7,395.07Z" style="fill:#e0e0e0"></path><path d="M424.52,381.76a1.41,1.41,0,0,1,0-.25c0-.19,0-.43,0-.71,0-.65,0-1.54-.05-2.67,0-2.33-.05-5.63-.09-9.68l.18.18-30.23.08c-.23.22.31-.32.25-.26h0v6.84c0,2.22,0,4.38,0,6.45l-.24-.24,21.62.11,6.3.07,1.7,0,.61,0a3.59,3.59,0,0,1-.55,0l-1.65,0-6.24.07-21.79.11H394v-.25c0-2.07,0-4.23,0-6.45v-6.84h0l.26-.26,30.23.08h.19v.18c0,4.1-.07,7.43-.1,9.8,0,1.1,0,2,0,2.62S424.53,381.77,424.52,381.76Z" style="fill:#e0e0e0"></path><path d="M91.4,223.26a1.1,1.1,0,0,1,0-.24c0-.18,0-.4,0-.68,0-.63,0-1.5,0-2.62,0-2.3,0-5.6-.09-9.77l.16.16-50.31.1c.11-.12-.26.25.25-.26h0v6.76c0,2.22,0,4.4,0,6.54l-.25-.25,35.86.12,10.58.07,2.87,0,.74,0h.27a.94.94,0,0,1-.23,0l-.72,0-2.81,0-10.53.07-36,.11h-.25V210h0c.51-.51.14-.14.26-.25l50.31.1h.16V210c0,4.21-.07,7.54-.09,9.86,0,1.11,0,2,0,2.59,0,.27,0,.48,0,.65A1.31,1.31,0,0,1,91.4,223.26Z" style="fill:#e0e0e0"></path><path d="M98.22,210s0-.09,0-.25,0-.42,0-.71c0-.65,0-1.54,0-2.67,0-2.33-.06-5.63-.1-9.68l.18.19L68,196.9l.26-.26h0v3.46c0,1.14,0,2.27,0,3.39,0,2.22,0,4.38,0,6.45l-.24-.24,21.63.11,6.3.07,1.69,0,.61,0a3.59,3.59,0,0,1-.55,0L96,210l-6.24.07L68,210.2h-.24V210c0-2.07,0-4.23,0-6.45,0-1.12,0-2.25,0-3.39v-3.46h0c0,.06.49-.48.26-.26l30.23.08h.19v.18c0,4.1-.08,7.44-.1,9.8,0,1.1,0,2,0,2.62A6.93,6.93,0,0,1,98.22,210Z" style="fill:#e0e0e0"></path><rect x="406.24" y="251.33" width="50.32" height="13.31" style="fill:#ebebeb"></rect><path d="M435.28,278.66a1.35,1.35,0,0,1,0-.24c0-.18,0-.4,0-.68,0-.63,0-1.5,0-2.62,0-2.3,0-5.61-.09-9.77l.16.15-50.32.1c.12-.11-.26.26.26-.25h0v3.38c0,1.13,0,2.25,0,3.36v6.55l-.25-.25,35.86.11,10.58.07,2.86,0H435l.27,0-.24,0h-.71l-2.81,0L421,278.8l-36,.11h-.25v-.25c0-2.14,0-4.33,0-6.55v-6.74h0c.52-.51.15-.14.26-.26l50.32.1h.15v.16c0,4.2-.06,7.54-.08,9.86,0,1.1,0,2,0,2.58,0,.27,0,.49,0,.66A1.66,1.66,0,0,1,435.28,278.66Z" style="fill:#e0e0e0"></path><rect x="49.72" y="92.63" width="50.32" height="13.31" style="fill:#ebebeb"></rect><path d="M78.76,120s0-.09,0-.24,0-.41,0-.69c0-.62,0-1.5,0-2.62,0-2.3,0-5.6-.08-9.76l.15.15-50.31.1.25-.25h0V120l-.25-.25,35.85.11,10.59.07,2.86,0,.75,0,.26,0h-.23l-.72,0L75,120l-10.53.07-36,.12H28.2V120c0-2.14,0-4.33,0-6.55v-6.74h0c.51-.52.15-.15.26-.26l50.31.1h.16v.16c0,4.2-.07,7.54-.09,9.86q0,1.65,0,2.58c0,.27,0,.48,0,.66A.85.85,0,0,1,78.76,120Z" style="fill:#e0e0e0"></path><rect x="369.65" y="46.21" width="105.93" height="140.39" transform="translate(6.53 -21.54) rotate(2.94)" style="fill:#fafafa"></rect><path d="M472.26,189.61h-.37l-106.16-5.46,0-.37L373,43.2l.37,0,106.17,5.45,0,.37Zm-105.75-6.17,105.05,5.4,7.17-139.47-105-5.4Z" style="fill:#e0e0e0"></path><path d="M435.71,100.79a2.94,2.94,0,0,1,1.68-2.33,8,8,0,0,1,2.91-.69,25.15,25.15,0,0,1,4.67-.13,5,5,0,0,1,2.22.62c1.42.91,1.77,2.87,1.48,4.53a2.78,2.78,0,0,1-.85,1.75,3.15,3.15,0,0,1-1,.46,20.06,20.06,0,0,1-9.17.74c-.92-.14-2-.47-2.27-1.35" style="fill:#e0e0e0"></path><path d="M407.47,99.88a2.92,2.92,0,0,0-1.68-2.33,7.82,7.82,0,0,0-2.91-.7,25.15,25.15,0,0,0-4.67-.12,4.83,4.83,0,0,0-2.22.62c-1.42.9-1.77,2.87-1.48,4.53a2.73,2.73,0,0,0,.85,1.74,3.15,3.15,0,0,0,1,.46,20.07,20.07,0,0,0,9.17.75c.92-.14,2-.48,2.27-1.36" style="fill:#e0e0e0"></path><path d="M421.69,101.27a71.24,71.24,0,0,1-14.75-1.2c-1.92-.54-10.26-3-14.29.92s-8.06,30.05-7.79,35.46,7.15,9.16,11.27,6.78,9.8-13.56,11.18-13.74,5.31,1.65,7.88-.19A24.41,24.41,0,0,0,419,126s5.13-.18,5.59-.18,2.19,3.48,4.67,4.22,7-.65,7.6-.92,5,8.15,9.35,12.37,12.55,1.65,13-5-7.33-31-10-34.45-12.18-2.47-16.22-1.28S425.27,101.17,421.69,101.27Z" style="fill:#ebebeb"></path><path d="M446.25,137.18c-4.4-4.21-8.71-12.64-9.35-12.37s-5.13,1.65-7.6.92-4.22-4.21-4.67-4.21-5.59.18-5.59.18a25.06,25.06,0,0,1-3.85,3.3c-2.57,1.83-6.51,0-7.88.18s-7.06,11.36-11.18,13.74c-3.87,2.24-10.16-.93-11.15-5.8a28.83,28.83,0,0,0-.12,3.33c.28,5.41,7.15,9.16,11.27,6.78s9.8-13.56,11.18-13.74,5.31,1.65,7.88-.19A24.41,24.41,0,0,0,419,126s5.13-.18,5.59-.18,2.19,3.48,4.67,4.22,7-.65,7.6-.92,5,8.15,9.35,12.37,12.55,1.65,13-5a17.25,17.25,0,0,0-.17-3.11C457.8,139.12,450.37,141.14,446.25,137.18Z" style="fill:#e0e0e0"></path><circle cx="402.74" cy="111.24" r="8.13" transform="translate(39.3 317.36) rotate(-45)" style="fill:#e0e0e0"></circle><circle cx="401.95" cy="110.51" r="8.13" transform="translate(228.64 489.63) rotate(-80.81)" style="fill:#f5f5f5"></circle><path d="M450.11,111.67a8.13,8.13,0,1,1-8.12-8.13A8.12,8.12,0,0,1,450.11,111.67Z" style="fill:#e0e0e0"></path><circle cx="442.84" cy="110.51" r="8.13" transform="translate(51.56 345.5) rotate(-45)" style="fill:#f5f5f5"></circle><path d="M436.85,122.76a5.47,5.47,0,1,1-5.47-5.47A5.47,5.47,0,0,1,436.85,122.76Z" style="fill:#f5f5f5"></path><path d="M416.94,122.76a5.47,5.47,0,1,1-5.47-5.47A5.47,5.47,0,0,1,416.94,122.76Z" style="fill:#f5f5f5"></path><path d="M406.19,108.25h-2v-2a1.65,1.65,0,0,0-1.65-1.65h-1.2a1.66,1.66,0,0,0-1.66,1.65v2h-2a1.66,1.66,0,0,0-1.65,1.66v1.2a1.65,1.65,0,0,0,1.65,1.65h2v2a1.67,1.67,0,0,0,1.66,1.66h1.2a1.66,1.66,0,0,0,1.65-1.66v-2h2a1.66,1.66,0,0,0,1.66-1.65v-1.2A1.67,1.67,0,0,0,406.19,108.25Z" style="fill:#e0e0e0"></path><circle cx="442.92" cy="106.42" r="2.39" style="fill:#e0e0e0"></circle><path d="M450.15,110.65a2.4,2.4,0,1,1-2.4-2.4A2.39,2.39,0,0,1,450.15,110.65Z" style="fill:#e0e0e0"></path><circle cx="442.92" cy="114.53" r="2.39" style="fill:#e0e0e0"></circle><path d="M440.27,110.71a2.4,2.4,0,1,1-2.39-2.39A2.39,2.39,0,0,1,440.27,110.71Z" style="fill:#e0e0e0"></path><path d="M433.05,100.72c-4,1.19-7.78.45-11.36.55a83,83,0,0,1-9.86-.44,7,7,0,0,0,.1,1L413,109.2a2.93,2.93,0,0,0,.57,1.61,3,3,0,0,0,1.91.73,82.39,82.39,0,0,0,8.74.58,19.42,19.42,0,0,0,6.08-.66,1.8,1.8,0,0,0,.78-.42,1.78,1.78,0,0,0,.36-.68,34.12,34.12,0,0,0,2-9.74Z" style="fill:#e0e0e0"></path><path d="M381.26,50.44a2.18,2.18,0,1,1-2.18-2.18A2.17,2.17,0,0,1,381.26,50.44Z" style="fill:#e0e0e0"></path><path d="M406.75,87.43h3a.76.76,0,0,1,.33.08.61.61,0,0,1,.32.57,1,1,0,0,1,0,.19c-.06.25-.13.51-.21.77a8.49,8.49,0,0,1-1.88,3.4,3.56,3.56,0,0,1-2.56,1.32,2.36,2.36,0,0,1-.37,0,2.93,2.93,0,0,1-2-1.48,6.72,6.72,0,0,1-.9-3.62,9.67,9.67,0,0,1,.36-2.58,8.69,8.69,0,0,1,1.78-3.48,3.64,3.64,0,0,1,2.71-1.44,2.58,2.58,0,0,1,1.14.26,3.65,3.65,0,0,1,1.75,2.19.67.67,0,0,1,.08.3.66.66,0,0,1-.09.33.63.63,0,0,1-.56.32l-.2,0a.6.6,0,0,1-.41-.41l0,0a2.7,2.7,0,0,0-.36-.72,1.72,1.72,0,0,0-1.44-.86,1.69,1.69,0,0,0-1,.37,5.3,5.3,0,0,0-1.64,2.36,8.74,8.74,0,0,0-.71,3.39,6.15,6.15,0,0,0,.51,2.66,1.76,1.76,0,0,0,1.57,1.18,2.16,2.16,0,0,0,1.46-.88,8,8,0,0,0,1.54-2.79c-1.38,0-2.1,0-2.16,0-.47-.08-.71-.32-.72-.73a.81.81,0,0,1,.07-.22A.68.68,0,0,1,406.75,87.43Z" style="fill:#e0e0e0"></path><path d="M417,81.56a1.65,1.65,0,0,1,.09.22q.18.66,2.12,11.16a.5.5,0,0,1,0,.16.63.63,0,0,1-.09.33.6.6,0,0,1-.54.33h-.1a.59.59,0,0,1-.5-.45l-.72-3.71h-3.7l-1.78,3.73a.61.61,0,0,1,0,.12.72.72,0,0,1-.56.31.6.6,0,0,1-.35-.1.63.63,0,0,1-.3-.54.48.48,0,0,1,0-.2l.55-1.22q3.88-8.48,4.65-10a.67.67,0,0,1,.62-.45A.66.66,0,0,1,417,81.56Zm-.8,2.5-2,4.21H417Z" style="fill:#e0e0e0"></path><path d="M429.86,93.1a0,0,0,0,1,0,0c-.06.42-.27.63-.64.63a.64.64,0,0,1-.34-.09.77.77,0,0,1-.32-.69q0-.14.77-6.63-1.92,4.05-3,6.39l-.27.56a.73.73,0,0,1-.64.46h-.15c-.23,0-.4-.23-.52-.56l-1.4-6.86c-.32,2.47-.64,4.72-1,6.77v0c-.06.42-.28.63-.65.63a.58.58,0,0,1-.33-.09A.76.76,0,0,1,421,93s.39-3,1.15-8.72c.2-1.49.31-2.29.33-2.41a.62.62,0,0,1,.09-.26.65.65,0,0,1,.59-.33.57.57,0,0,1,.18,0,.48.48,0,0,1,.4.36q.15.9,1,5.27.65,3.17.81,4.08L430,81.73a1,1,0,0,1,.09-.17.7.7,0,0,1,.58-.3.6.6,0,0,1,.29.08.66.66,0,0,1,.35.55q0,.24-.06.54Q430.06,91.91,429.86,93.1Z" style="fill:#e0e0e0"></path><path d="M435,81.24h5.19a1,1,0,0,1,.3,0,.59.59,0,0,1,.44.62.7.7,0,0,1,0,.25.8.8,0,0,1-.65.42h-4.65L435,87h3.35a.94.94,0,0,1,.37.07.62.62,0,0,1,.39.6.54.54,0,0,1,0,.22.77.77,0,0,1-.66.44h-3.57l-.53,4.12h4.6a.93.93,0,0,1,.34.06.61.61,0,0,1,.43.61.69.69,0,0,1-.7.66h-5.38a.65.65,0,0,1-.36-.1.74.74,0,0,1-.32-.68q0-.11,1.44-11.13a.79.79,0,0,1,.06-.22A.6.6,0,0,1,435,81.24Z" style="fill:#e0e0e0"></path><path d="M404,149c-.07.44-.29.66-.66.67a.57.57,0,0,1-.33-.11.74.74,0,0,1-.31-.67l1.5-11.13a1.15,1.15,0,0,1,0-.26.59.59,0,0,1,.57-.37.51.51,0,0,1,.29.08.64.64,0,0,1,.35.55l-.53,4.34c2.65-3,4.05-4.52,4.18-4.63a.83.83,0,0,1,.55-.29.7.7,0,0,1,.34.1.58.58,0,0,1,.3.53.88.88,0,0,1-.18.51c-.14.19-1.81,2-5,5.54l1.18,1.07c2.26,2,3.55,3.21,3.86,3.53a.91.91,0,0,1,.31.56.63.63,0,0,1-.11.35.59.59,0,0,1-.52.3.89.89,0,0,1-.53-.18c-.18-.13-1.78-1.58-4.78-4.36C404.27,147.14,404.1,148.43,404,149Z" style="fill:#e0e0e0"></path><path d="M413.67,149c-.08.44-.3.66-.65.67a.58.58,0,0,1-.34-.11.76.76,0,0,1-.32-.68l1.5-11.12a1.75,1.75,0,0,1,0-.24.59.59,0,0,1,.59-.4.68.68,0,0,1,.31.08.61.61,0,0,1,.34.52Q413.74,148.62,413.67,149Z" style="fill:#e0e0e0"></path><path d="M424.61,149c-.06.41-.27.62-.64.63a.83.83,0,0,1-.69-.48l-4.09-9.34c-.05.44-.11.94-.18,1.49q-.81,6.72-1,7.67-.12.65-.66.66a.63.63,0,0,1-.35-.11.75.75,0,0,1-.32-.67q1.47-11.1,1.47-11.13a1.14,1.14,0,0,1,.09-.26.67.67,0,0,1,.6-.33c.35,0,.58.1.68.31l4.07,9.14,1.19-8.83a.68.68,0,0,1,.07-.28.56.56,0,0,1,.54-.36.62.62,0,0,1,.32.09.61.61,0,0,1,.31.55c0,.19-.05.38-.07.59Q424.79,148,424.61,149Z" style="fill:#e0e0e0"></path><path d="M432,143.32h3a.76.76,0,0,1,.33.08.63.63,0,0,1,.32.57.92.92,0,0,1,0,.19c-.06.26-.13.51-.21.77a8.42,8.42,0,0,1-1.88,3.4,3.54,3.54,0,0,1-2.56,1.33l-.36,0a3,3,0,0,1-2.05-1.48,6.75,6.75,0,0,1-.9-3.62A9.61,9.61,0,0,1,428,142a8.69,8.69,0,0,1,1.79-3.49,3.62,3.62,0,0,1,2.7-1.43,2.57,2.57,0,0,1,1.14.25,3.75,3.75,0,0,1,1.76,2.2.82.82,0,0,1,.07.3.62.62,0,0,1-.09.32.61.61,0,0,1-.56.32l-.2,0a.59.59,0,0,1-.41-.4l0-.06a3.18,3.18,0,0,0-.37-.71,1.72,1.72,0,0,0-1.44-.86,1.68,1.68,0,0,0-1,.36,5.36,5.36,0,0,0-1.64,2.36,8.74,8.74,0,0,0-.71,3.39,6.17,6.17,0,0,0,.51,2.67,1.77,1.77,0,0,0,1.57,1.18,2.2,2.2,0,0,0,1.46-.88,8.08,8.08,0,0,0,1.54-2.79q-2.07,0-2.16,0c-.47-.07-.71-.32-.72-.72a.63.63,0,0,1,.07-.22A.67.67,0,0,1,432,143.32Z" style="fill:#e0e0e0"></path><path d="M392.18,75.2l.71,1.29a8.62,8.62,0,0,0,3.42,3.43l1.29.7-1.29.7a8.62,8.62,0,0,0-3.42,3.43L392.18,86l-.7-1.28a8.62,8.62,0,0,0-3.42-3.43l-1.29-.7,1.29-.7a8.62,8.62,0,0,0,3.42-3.43Z" style="fill:#ebebeb"></path><path d="M408.26,171.25l.71,1.29a8.59,8.59,0,0,0,3.42,3.42l1.29.7-1.29.71a8.59,8.59,0,0,0-3.42,3.42l-.71,1.29-.7-1.29a8.62,8.62,0,0,0-3.43-3.42l-1.28-.71,1.28-.7a8.62,8.62,0,0,0,3.43-3.42Z" style="fill:#ebebeb"></path><path d="M458.51,92.12l.22.39a2.6,2.6,0,0,0,1,1l.39.21-.39.22a2.6,2.6,0,0,0-1,1l-.22.39L458.3,95a2.6,2.6,0,0,0-1-1l-.39-.22.39-.21a2.6,2.6,0,0,0,1-1Z" style="fill:#e0e0e0"></path><path d="M383.32,170.47l.27.49a3.32,3.32,0,0,0,1.3,1.3l.49.26-.49.27a3.25,3.25,0,0,0-1.3,1.3l-.27.49-.26-.49a3.34,3.34,0,0,0-1.31-1.3l-.49-.27.49-.26a3.41,3.41,0,0,0,1.31-1.3Z" style="fill:#e0e0e0"></path><path d="M429.38,166.79l.27.49a3.25,3.25,0,0,0,1.3,1.3l.49.27-.49.27a3.25,3.25,0,0,0-1.3,1.3l-.27.49-.27-.49a3.25,3.25,0,0,0-1.3-1.3l-.49-.27.49-.27a3.25,3.25,0,0,0,1.3-1.3Z" style="fill:#e0e0e0"></path><path d="M425.91,61.48l.26.47a3.18,3.18,0,0,0,1.26,1.26l.47.26-.47.26A3.12,3.12,0,0,0,426.17,65l-.26.47-.26-.47a3.06,3.06,0,0,0-1.26-1.26l-.47-.26.47-.26A3.12,3.12,0,0,0,425.65,62Z" style="fill:#e0e0e0"></path><path d="M394.56,99.5a2,2,0,0,1-.06.39c-.07.29-.15.66-.25,1.1-.24,1-.56,2.38-.95,4.05-.8,3.43-1.83,8.17-2.8,13.45s-1.67,10.08-2.14,13.56c-.22,1.7-.41,3.1-.54,4.13-.06.45-.12.82-.16,1.12a1.35,1.35,0,0,1-.08.39,1.76,1.76,0,0,1,0-.4c0-.3.05-.68.08-1.13.08-1,.22-2.4.42-4.15.4-3.49,1.07-8.31,2-13.59s2-10,2.9-13.44c.43-1.7.8-3.08,1.07-4,.13-.43.24-.79.32-1.08A1.47,1.47,0,0,1,394.56,99.5Z" style="fill:#e0e0e0"></path><path d="M457.42,139.18a6.19,6.19,0,0,1-.41-.91c-.24-.59-.58-1.46-1-2.53-.8-2.14-1.86-5.12-2.94-8.44s-2-6.34-2.62-8.54c-.31-1.1-.55-2-.7-2.62a5.61,5.61,0,0,1-.21-1,4.27,4.27,0,0,1,.35.93c.22.68.49,1.55.82,2.58.69,2.18,1.64,5.19,2.72,8.51s2.1,6.3,2.84,8.46c.35,1,.63,1.89.86,2.57A4.34,4.34,0,0,1,457.42,139.18Z" style="fill:#e0e0e0"></path><path d="M442,64.81s-.26.07-.74.27a6.2,6.2,0,0,0-1.88,1.24,6,6,0,0,0-1.76,3,5.79,5.79,0,0,0,.83,4.47,6.08,6.08,0,0,0,1.92,1.89,6.21,6.21,0,0,0,2.79.85c2.05.17,4.22-.46,6.53-.88A16.31,16.31,0,0,1,464,79.89a15.15,15.15,0,0,1,4.12,6.74,16.53,16.53,0,0,1,.44,7.36,14.92,14.92,0,0,1-.92,3.32,13.36,13.36,0,0,1-1.52,2.88,15.3,15.3,0,0,1-4.13,4.1,16.12,16.12,0,0,1-7.87,2.8A11.66,11.66,0,0,1,451,107h.2l.59,0a17.18,17.18,0,0,0,2.27-.06,16.35,16.35,0,0,0,7.73-2.87,15.35,15.35,0,0,0,4-4.06,13.72,13.72,0,0,0,1.48-2.82,15,15,0,0,0,.88-3.26,16.22,16.22,0,0,0-.46-7.19,14.65,14.65,0,0,0-4-6.57A16,16,0,0,0,449.78,76c-2.28.4-4.48,1-6.62.85a6.56,6.56,0,0,1-2.92-.92,6.2,6.2,0,0,1-2-2,6,6,0,0,1-.81-4.68,6.12,6.12,0,0,1,1.87-3.08,5.84,5.84,0,0,1,1.95-1.2A3.28,3.28,0,0,1,442,64.81Z" style="fill:#e0e0e0"></path><path d="M441.17,65.93h0a5.87,5.87,0,0,1,2.54-7.9l5.22-2.68,5.36,10.44-5.22,2.68A5.87,5.87,0,0,1,441.17,65.93Z" style="fill:#ebebeb"></path><path d="M475.73,51.43a2.19,2.19,0,1,1-2.19-2.19A2.19,2.19,0,0,1,475.73,51.43Z" style="fill:#e0e0e0"></path><path d="M60.38,373.11a36.71,36.71,0,0,0-15.71-5.41c-2.56-.26-5.37-.19-7.43,1.37a1.52,1.52,0,0,0-.76,1.35,1.61,1.61,0,0,0,.72.93c6.4,4.88,16.06,5.49,23.18,1.76" style="fill:#e0e0e0"></path><path d="M60,372.66a77,77,0,0,1-10.15-8.92A25.72,25.72,0,0,1,43.47,352,4.77,4.77,0,0,1,44,348c8.08,6.32,14.44,14.49,16,24.63" style="fill:#e0e0e0"></path><path d="M60.3,373.05a36.63,36.63,0,0,1,.19-13.33,18,18,0,0,1,7.09-11c1.4,3.27.8,7-.18,10.45a50.93,50.93,0,0,1-7,14.81" style="fill:#e0e0e0"></path><path d="M68.23,387.25c-4.81.59-9,3.12-12.6,6.38A23.86,23.86,0,0,0,48.42,406c4.72-.29,8.73-3.62,11.63-7.35s4.92-7.83,8.11-11.32" style="fill:#e0e0e0"></path><path d="M70,389.52a31.06,31.06,0,0,1,3.59-29.39c2.74,9.76,1.73,20.77-3.59,29.39" style="fill:#e0e0e0"></path><path d="M80.43,402a22.46,22.46,0,0,0-21.49,12.36c-.26.54-.5,1.21-.14,1.69a1.62,1.62,0,0,0,1.42.42c4.24-.28,8-2.82,11.08-5.72s5.8-6.26,9.22-8.76" style="fill:#e0e0e0"></path><path d="M80.09,401.32a40.07,40.07,0,0,1-.4-22.35c.79-2.88,2.11-5.91,4.77-7.26a1,1,0,0,1,.73-.12.9.9,0,0,1,.46.53,13.51,13.51,0,0,1,1.13,6.41,39.64,39.64,0,0,1-1,6.49c-.84,4-1.28,8.23-3.46,11.66a24.08,24.08,0,0,0-1.38,2.55c-.41.87-.42,1.18-.79,1.87" style="fill:#e0e0e0"></path><path d="M107.82,405.45c-2-7.81.13-17.29,5.05-23.69.36-.48.84-1,1.44-.93.9.09,1.14,1.3,1.1,2.21a42.83,42.83,0,0,1-7.59,22.41" style="fill:#e0e0e0"></path><path d="M110.32,407.16c9.49,2.47,20.39.07,28.28-5.75a22.84,22.84,0,0,0-15.31-1.88c-5.11,1.17-9.79,3.46-13,7.63" style="fill:#e0e0e0"></path><path d="M112.43,402c5.32-8.67,15.51-14.33,25.67-14.85-1.17,4.13-4.57,7.35-8.4,9.29s-8.1,2.78-12.32,3.6c-1.64.32-3.89.67-4.95,2" style="fill:#e0e0e0"></path><path d="M108.35,376.71c1.44-4.94,2.89-9.91,3.28-15s-.33-10.47-3-14.87c-5,9.62-5.47,20.85-.44,30.42" style="fill:#e0e0e0"></path><path d="M125.07,368.26c5.81-10.56,17.66-19,29.65-20.18-4.62,11.52-17.24,20.42-29.65,20.18" style="fill:#e0e0e0"></path><path d="M121.42,370.32c8.66,1.32,16,6.86,24.13,10.21a10.85,10.85,0,0,0,5.46,1.05,4.28,4.28,0,0,0,2.68-7.56,11.76,11.76,0,0,0-4-2.41c-8.81-3.67-18.27-3.76-27.56-1.53" style="fill:#e0e0e0"></path><path d="M116.4,376.4c2,.56,2.64,1.58,4.19,2.9a45.15,45.15,0,0,0,18.3,9.4c.7.18,1.62.25,2-.39s-.08-1.22-.48-1.71a25.17,25.17,0,0,0-11-7.5c-4.22-1.57-7.88-3.47-12.93-3.06" style="fill:#e0e0e0"></path><path d="M110.75,339.7a34.59,34.59,0,0,0,26.56,9,1.8,1.8,0,0,0,1.2-.43c.67-.73-.13-1.85-.91-2.46-7.81-6.09-17.26-8.61-26.85-6.15" style="fill:#e0e0e0"></path><path d="M117.45,337.25a37,37,0,0,1,33.14-5.47c-4.17,4.12-10,6.33-15.79,6.94a50.05,50.05,0,0,1-17.35-1.47" style="fill:#e0e0e0"></path><path d="M114.79,320.39c-.77-7.8-.27-13.95-.81-21.78,0-.62-.18-1.38-.76-1.6-.82-.31-1.5.69-1.77,1.52a25,25,0,0,0,3.33,21.69" style="fill:#e0e0e0"></path><path d="M114.23,321.25a45.9,45.9,0,0,0,12.91-12.55c2.55-3.49,4.7-7.67,4.12-11.95a12.32,12.32,0,0,0-9.31,4.63,25.9,25.9,0,0,0-4.75,9.55c-1,3.43-1.76,6.95-3,10.32" style="fill:#e0e0e0"></path><path d="M126.91,317.73A104.16,104.16,0,0,0,158.68,299c-3.79-1.53-8.14-.61-11.93.92-8.67,3.5-15.75,9.41-20,17.73" style="fill:#e0e0e0"></path><path d="M117.79,325.51c5.87.64,11.83,1.06,17.65.09s11.12-3.22,16.47-5.47a1.92,1.92,0,0,0,1.11-.85,1.28,1.28,0,0,0-.4-1.41,3.36,3.36,0,0,0-1.4-.66c-5.81-1.63-12.08-.86-17.8,1.06a83,83,0,0,0-15.63,7.24" style="fill:#e0e0e0"></path><path d="M84.3,340c-4-8.08-3.74-17.5-.28-25.83,2.43,3.71,2.73,8.43,2.29,12.85s-1.79,8.95-1.88,13.38" style="fill:#e0e0e0"></path><path d="M68.32,331.91a36.06,36.06,0,0,0-26.77,11.4c5,.79,10.12-.5,14.66-2.72a74.56,74.56,0,0,0,12.56-8.4" style="fill:#e0e0e0"></path><path d="M57.57,328.31c-4.89-.39-9.59-1-14.29.44s-9,4.71-10.89,9.24a25.88,25.88,0,0,0,13.4-2.53,76.58,76.58,0,0,0,11.78-7.15" style="fill:#e0e0e0"></path><path d="M73.48,328.48c-4.39-2.88-8.91-5.82-14-7S48.4,321.16,44.83,325c4.15,2.43,9.17,2.72,14,2.71s10.69-.05,15.22,1.55" style="fill:#e0e0e0"></path><path d="M73.51,328.71C66,321.33,63.14,308.07,66.17,298a46.83,46.83,0,0,1,7.34,30.73" style="fill:#e0e0e0"></path><path d="M94.18,307.8c1.42-3.3,2.41-6.76,3.69-10.11a29,29,0,0,1,5.25-9.32,13.84,13.84,0,0,1,9.31-4.82,37.47,37.47,0,0,1-18.07,24.3" style="fill:#e0e0e0"></path><path d="M90.44,312.16c-2.35-3.23-5.06-7.62-8.24-10s-7.32-3.86-11.2-2.94a26.11,26.11,0,0,0,19.44,13" style="fill:#e0e0e0"></path><path d="M91.19,308.07a55.63,55.63,0,0,1-3.71-12c-.62-4.15-.24-8.59,1.88-12.21,4.13,7.8,5.45,16.17,2,24.31" style="fill:#e0e0e0"></path><path d="M94.22,283.85c2.33-7.73,9.41-13.43,17.06-16a6.41,6.41,0,0,1,3-.45,2.6,2.6,0,0,1,2.2,1.84c.28,1.32-.8,2.5-1.83,3.37a58.08,58.08,0,0,1-20.42,11.28" style="fill:#e0e0e0"></path><path d="M94.3,277.52c.3-5,.61-10,2.23-14.76s4.75-9.16,9.29-11.22c.78,5-1.44,10-4.12,14.37s-5.91,8.43-7.52,13.26" style="fill:#e0e0e0"></path><path d="M94.18,281c-1.93-5.64-2.13-12.8-5.51-17.7-2.35-3.44-6.13-5.77-8.16-9.41A14.33,14.33,0,0,0,81,264.53a30.86,30.86,0,0,0,6.24,8.93c2.5,2.67,4.64,4.68,7,7.5" style="fill:#e0e0e0"></path><path d="M94.22,446.9c-.15,0-.28-37.59-.29-83.95s.1-84,.25-84,.28,37.59.29,84S94.37,446.9,94.22,446.9Z" style="fill:#e0e0e0"></path><path d="M127.07,334.3a8.2,8.2,0,0,1-1.42.53l-3.89,1.31c-3.28,1.12-7.78,2.74-12.67,4.74s-9.41,3.76-12,6a8.78,8.78,0,0,0-2.41,3.19c-.37.88-.44,1.42-.49,1.41s0-.14,0-.39a5.49,5.49,0,0,1,.27-1.1,8.51,8.51,0,0,1,2.36-3.4,21.08,21.08,0,0,1,5.21-3.24c2.08-1,4.39-2,6.84-3,4.91-2,9.45-3.58,12.76-4.6,1.66-.52,3-.9,4-1.15A7.34,7.34,0,0,1,127.07,334.3Z" style="fill:#e0e0e0"></path><path d="M137.83,307.85s-.12.16-.39.42l-1.21,1.14-4.5,4.09-15,13.34c-5.85,5.21-10.91,10.19-14.41,13.93-1.75,1.87-3.14,3.42-4.08,4.51l-1.09,1.24a2.71,2.71,0,0,1-.4.41s.09-.17.32-.48.56-.75,1-1.31c.89-1.13,2.24-2.72,4-4.63a191.18,191.18,0,0,1,14.33-14.07c5.87-5.2,11.21-9.87,15.09-13.23l4.62-4,1.28-1.06A2.4,2.4,0,0,1,137.83,307.85Z" style="fill:#e0e0e0"></path><path d="M110.43,332.14c-.16-.07,1.06-2.89,2.28-6.46s1.81-6.58,2-6.56a22.24,22.24,0,0,1-1.45,6.73,46,46,0,0,1-1.82,4.52A7.6,7.6,0,0,1,110.43,332.14Z" style="fill:#e0e0e0"></path><path d="M94.25,354.89a6.67,6.67,0,0,1-.9-1.05c-.61-.78-1.39-1.77-2.31-3-1.94-2.51-4.62-6-7.63-9.76s-5.77-7.18-7.77-9.64l-2.36-2.92a6.37,6.37,0,0,1-.81-1.12,8.26,8.26,0,0,1,1,1c.6.65,1.45,1.61,2.49,2.81,2.08,2.4,4.9,5.76,7.91,9.56s5.64,7.29,7.51,9.86c.93,1.29,1.67,2.33,2.17,3.07A6.63,6.63,0,0,1,94.25,354.89Z" style="fill:#e0e0e0"></path><path d="M87.05,345.64A13.17,13.17,0,0,1,84,340a16.18,16.18,0,0,1-.68-5.69l.24,0c-.11.43-.19.66-.23.66s0-.25,0-.7l.24,0a26.19,26.19,0,0,0,1,5.54A41.71,41.71,0,0,0,87.05,345.64Z" style="fill:#e0e0e0"></path><path d="M77.75,334a9.37,9.37,0,0,0-2.11-1.23,14.14,14.14,0,0,0-5.85-.46,35.71,35.71,0,0,0-5.89.95,16.42,16.42,0,0,1-2.42.58,8.78,8.78,0,0,1,2.32-1,26.52,26.52,0,0,1,6-1.12,12.62,12.62,0,0,1,6,.65A3.68,3.68,0,0,1,77.75,334Z" style="fill:#e0e0e0"></path><path d="M75.55,331.11c0,.09-1.23-.49-3.23-1.17a32.42,32.42,0,0,0-16.27-1.24c-2.08.37-3.34.76-3.37.67a3.3,3.3,0,0,1,.86-.37,22.54,22.54,0,0,1,2.44-.68,28.71,28.71,0,0,1,16.47,1.26,20.64,20.64,0,0,1,2.31,1A3.84,3.84,0,0,1,75.55,331.11Z" style="fill:#e0e0e0"></path><path d="M94.18,319.12A65,65,0,0,1,91.83,311,65.58,65.58,0,0,1,90,302.64a67,67,0,0,1,2.35,8.17A65.58,65.58,0,0,1,94.18,319.12Z" style="fill:#e0e0e0"></path><path d="M94.33,319.12a39.77,39.77,0,0,0-2.61-4.89,20.9,20.9,0,0,0-3.84-4,3.41,3.41,0,0,1,1.48.76,11.94,11.94,0,0,1,2.81,2.89A10.89,10.89,0,0,1,94.33,319.12Z" style="fill:#e0e0e0"></path><path d="M94.22,426.86c-.06,0-.17-.9-.6-2.5a34.52,34.52,0,0,0-2.51-6.51c-2.59-5.3-7.32-12-13.32-18.77-3-3.4-5.87-6.61-8.32-9.68a68.63,68.63,0,0,1-5.94-8.57,40.81,40.81,0,0,1-3-6.37c-.28-.78-.48-1.39-.59-1.82a4.5,4.5,0,0,1-.16-.64s.33.86.95,2.39a45.36,45.36,0,0,0,3.13,6.24,72.36,72.36,0,0,0,6,8.46c2.46,3,5.35,6.22,8.33,9.63,6,6.76,10.74,13.57,13.27,19a32.66,32.66,0,0,1,2.37,6.62,18.62,18.62,0,0,1,.33,1.89A2.73,2.73,0,0,1,94.22,426.86Z" style="fill:#e0e0e0"></path><path d="M123.9,393.33a13.59,13.59,0,0,1-1.55.88,33.74,33.74,0,0,0-4,2.66,47.22,47.22,0,0,0-5.3,4.84c-1.86,2-3.77,4.24-5.73,6.69-3.91,4.9-7.57,9.25-9.76,12.71-1.11,1.72-1.92,3.17-2.45,4.18a12.71,12.71,0,0,1-.85,1.57s0-.16.14-.44.27-.7.52-1.22a40,40,0,0,1,2.32-4.29c2.12-3.55,5.75-8,9.66-12.85,2-2.45,3.89-4.74,5.79-6.7a42.47,42.47,0,0,1,5.43-4.79,28.24,28.24,0,0,1,4.17-2.55c.51-.26.93-.42,1.21-.54A2.12,2.12,0,0,1,123.9,393.33Z" style="fill:#e0e0e0"></path><path d="M124.48,404.21a22.7,22.7,0,0,1-3.29.48,43.6,43.6,0,0,0-7.79,1.53,23.42,23.42,0,0,0-7,3.67c-1.61,1.24-2.37,2.27-2.44,2.21s.13-.3.49-.76a12.18,12.18,0,0,1,1.71-1.75,21.13,21.13,0,0,1,7.06-3.88,34.67,34.67,0,0,1,7.93-1.4A18.29,18.29,0,0,1,124.48,404.21Z" style="fill:#e0e0e0"></path><path d="M104.93,410.91c-.17-.1,1.31-2.37,2.46-5.41s1.33-5.77,1.52-5.73a5.15,5.15,0,0,1,0,1.76,19.07,19.07,0,0,1-1,4.16A20,20,0,0,1,106,409.5,5.57,5.57,0,0,1,104.93,410.91Z" style="fill:#e0e0e0"></path><path d="M133.51,364.13a1.89,1.89,0,0,1-.52.28l-1.55.7c-.67.29-1.5.66-2.42,1.15s-2,1-3.14,1.65l-1.8,1c-.62.36-1.23.78-1.89,1.19-1.32.81-2.65,1.79-4.06,2.8a69.62,69.62,0,0,0-15.64,16.19c-1,1.45-1.9,2.8-2.66,4.15-.39.67-.79,1.3-1.13,1.93l-1,1.83c-.64,1.15-1.1,2.25-1.55,3.2s-.79,1.77-1.06,2.46-.48,1.15-.65,1.57a1.91,1.91,0,0,1-.26.53,2.53,2.53,0,0,1,.16-.57c.14-.42.33-.95.55-1.61s.55-1.55,1-2.5.86-2.08,1.48-3.25l.94-1.86c.32-.64.72-1.28,1.1-2,.75-1.36,1.68-2.74,2.64-4.21a73.24,73.24,0,0,1,7.18-8.82,74,74,0,0,1,8.57-7.48c1.43-1,2.78-2,4.12-2.78.66-.4,1.29-.82,1.92-1.17l1.82-1c1.15-.66,2.25-1.13,3.2-1.58a25.7,25.7,0,0,1,2.47-1.07l1.59-.61A2.68,2.68,0,0,1,133.51,364.13Z" style="fill:#e0e0e0"></path><path d="M110,379.87a3.79,3.79,0,0,1,1.29-1.92,8.2,8.2,0,0,1,5.21-2A14.33,14.33,0,0,1,122,377a7.7,7.7,0,0,1,2.07,1,12.84,12.84,0,0,1-2.2-.65,17,17,0,0,0-5.33-.89,8.54,8.54,0,0,0-5,1.75A18.14,18.14,0,0,0,110,379.87Z" style="fill:#e0e0e0"></path><path d="M106.51,383.5a13.89,13.89,0,0,0,1.15-9.83c.06,0,.35.48.61,1.4a10.12,10.12,0,0,1,.26,3.68,9.74,9.74,0,0,1-1.1,3.52A3.39,3.39,0,0,1,106.51,383.5Z" style="fill:#e0e0e0"></path><path d="M68.26,432.25c.81,14.36,5.13,29,11.79,43.74h29c6.35-14.62,10.38-29.21,11.09-43.74Z" style="fill:#e0e0e0"></path><path d="M115.41,455.49c0,.15-9.53.27-21.29.27s-21.29-.12-21.29-.27,9.53-.27,21.29-.27S115.41,455.34,115.41,455.49Z" style="fill:#fafafa"></path><path d="M114.76,460.7c0,.15-8.93.27-20,.27s-20-.12-20-.27,8.94-.27,20-.27S114.76,460.55,114.76,460.7Z" style="fill:#fafafa"></path><path d="M80.52,441.68a82.52,82.52,0,0,1,0,13.34,82.52,82.52,0,0,1,0-13.34Z" style="fill:#fafafa"></path><path d="M96,441.68a85.28,85.28,0,0,1,0,13.81,88.43,88.43,0,0,1,0-13.81Z" style="fill:#fafafa"></path><path d="M110.6,441.56a92,92,0,0,1,0,14.09,92,92,0,0,1,0-14.09Z" style="fill:#fafafa"></path><path d="M119.18,441.68c0,.15-11.18.27-25,.27s-25-.12-25-.27,11.18-.27,25-.27S119.18,441.53,119.18,441.68Z" style="fill:#fafafa"></path></g><g id="freepik--Floor--inject-819"><path d="M459.33,474.94c0,.15-96.08.27-214.57.27s-214.59-.12-214.59-.27,96.06-.27,214.59-.27S459.33,474.79,459.33,474.94Z" style="fill:#263238"></path></g><g id="freepik--arcade-machine--inject-819"><path d="M147.2,66.12l.67-25.68a9.57,9.57,0,0,1,10.26-9.3c31.27,2.39,60.48,13.37,81.33,33a18.37,18.37,0,0,1,5.75,13.49l-2.46,397.35H158.54V272.86H147.68L147.15,216h2.36c14.85,0,22.12-10.68,23.25-25.48l6.73-88.23a20.46,20.46,0,0,0-14-21.72l-12.51-5.46A9.55,9.55,0,0,1,147.2,66.12Z" style="fill:#FF725E"></path><g style="opacity:0.30000000000000004"><path d="M147.2,66.12l.67-25.68a9.57,9.57,0,0,1,10.26-9.3c31.27,2.39,60.48,13.37,81.33,33a18.37,18.37,0,0,1,5.75,13.49l-2.46,397.35H158.54V272.86H147.68L147.15,216h2.36c14.85,0,22.12-10.68,23.25-25.48l6.73-88.23a20.46,20.46,0,0,0-14-21.72l-12.51-5.46A9.55,9.55,0,0,1,147.2,66.12Z"></path></g><polygon points="232.97 94.97 168.93 69.19 306.42 69.19 338.4 95.33 232.97 94.97" style="fill:#FF725E"></polygon><path d="M157.9,66.12l.67-25.68a9.57,9.57,0,0,1,10.26-9.3c31.27,2.39,60.48,13.37,81.32,33a18.34,18.34,0,0,1,5.76,13.49l-2.46,397.35H169.24V252.16H158.38L157.85,216h2.36c14.85,0,22.12-10.68,23.25-25.48l6.73-88.23A20.46,20.46,0,0,0,176.14,80.6l-12.5-5.46A9.55,9.55,0,0,1,157.9,66.12Z" style="fill:#FF725E"></path><g style="opacity:0.30000000000000004"><polygon points="236.42 96.37 168.93 69.19 306.42 69.19 338.4 95.33 236.42 96.37"></polygon></g><rect x="168.93" y="33.92" width="118.45" height="35.26" style="fill:#FF725E"></rect><g style="opacity:0.6000000000000001"><rect x="168.57" y="33.92" width="118.8" height="10.3" style="fill:#fff"></rect></g><rect x="168.57" y="56.69" width="118.8" height="12.5" style="fill:#455a64"></rect><path d="M218.65,193.7l13.7-94.62A5.06,5.06,0,0,1,237.44,95h98.27c6.15,0,10.87,5.1,10,10.8L331.41,199a9.93,9.93,0,0,1-10.25,8.11L226.9,205C220.83,204.83,217.75,199.33,218.65,193.7Z" style="fill:#263238"></path><path d="M224.68,195.23l14.23-91.42a4.18,4.18,0,0,1,4.13-3.54h92.48a4,4,0,0,1,4.11,4.44L325.38,198a4.09,4.09,0,0,1-4.21,3.34l-92.48-1.66A4,4,0,0,1,224.68,195.23Z" style="fill:#455a64"></path><path d="M284.54,115.09v-5.58H286v2.39h2.17v-2.39h1.44v5.58h-1.44V112.7H286v2.39Z" style="fill:#fff"></path><path d="M291,115.09v-.8h1.44v-4H291v-.8h4.33v.8h-1.44v4h1.44v.8Z" style="fill:#fff"></path><path d="M296.8,112.7v-.8h4.33v.8Z" style="fill:#fff"></path><path d="M302.57,115.09v-.8h-.72v-.8h1.44v.8h2.17V112.7h-2.89v-.8h-.72v-1.59h.72v-.8h3.61v.8h.72v.79h-1.44v-.79h-2.17v1.59h2.89v.8h.72v1.59h-.72v.8Z" style="fill:#fff"></path><path d="M309.06,115.09v-.8h-.72v-.8h-.72V111.1h.72v-.79h.72v-.8H312v.8h.72v.79h-1.44v-.79h-1.45v.79h-.72v2.39h.72v.8h1.45v-.8h1.44v.8H312v.8Z" style="fill:#fff"></path><path d="M314.11,115.09v-.8h-.72v-4h.72v-.8h3.61v.8h.72v4h-.72v.8Zm.72-.8H317v-4h-2.17Z" style="fill:#fff"></path><path d="M319.16,115.09v-5.58h4.33v.8h.72v2.39h-1.44v.79h.72v.8h.72v.8h-2.16v-.8h-.73v-.8h-.72v1.6Zm1.44-2.39h1.45v-.8h.72v-1.59H320.6Z" style="fill:#fff"></path><path d="M324.93,115.09v-5.58H330v.8h-3.61v1.59h2.89v.8h-2.89v1.59H330v.8Z" style="fill:#fff"></path><path d="M292.88,122.62v-.8h1.44v-3.18h-.72v-.8h.72V117h1.45v4.78h1.44v.8Z" style="fill:#fff"></path><path d="M300.81,122.62V121h-2.88v-1.6h.72v-.79h.72v-.8h.72V117h2.17v3.19H303v.8h-.72v1.59Zm-1.44-2.39h1.44v-1.59h-.72v.79h-.72Z" style="fill:#fff"></path><path d="M305.14,122.62v-.8h-.72V121h-.72v-2.39h.72v-.8h.72V117h2.17v.8H308v.8h.72V121H308v.79h-.72v.8Zm.72-.8h1.45v-3.18h-.73v-.8h-1.44V121h.72Z" style="fill:#fff"></path><path d="M310.91,122.62v-.8h-.72V121h-.72v-2.39h.72v-.8h.72V117h2.17v.8h.72v.8h.72V121h-.72v.79h-.72v.8Zm.72-.8h1.45v-3.18h-.72v-.8h-1.45V121h.72Z" style="fill:#fff"></path><path d="M316.68,122.62v-.8H316V121h-.72v-2.39H316v-.8h.72V117h2.17v.8h.72v.8h.72V121h-.72v.79h-.72v.8Zm.72-.8h1.45v-3.18h-.73v-.8h-1.44V121h.72Z" style="fill:#fff"></path><path d="M242.74,114.65v-.8h1.45v-3.19h-.73v-.8h.73v-.79h1.44v4.78h1.44v.8Z" style="fill:#fff"></path><path d="M248.51,114.65v-.8h-.72v-4.78h1.44v4.78h2.17v-4.78h1.44v4.78h-.72v.8Z" style="fill:#fff"></path><path d="M253.56,114.65v-5.58h4.33v.79h.72v2.4h-.72v.79H255v1.6Zm1.45-2.39h2.16v-2.4H255Z" style="fill:#fff"></path><g style="opacity:0.30000000000000004"><path d="M233.09,199.79c-.15,0,3.46-22.32,8-49.8s8.43-49.74,8.58-49.72-3.46,22.32-8.05,49.81S233.23,199.82,233.09,199.79Z"></path><path d="M245.35,199.79c-.14,0,3.46-22.32,8.06-49.8s8.43-49.74,8.58-49.72-3.46,22.32-8.05,49.81S245.5,199.82,245.35,199.79Z"></path><path d="M257.62,199.79c-.14,0,3.46-22.32,8.05-49.8s8.44-49.74,8.59-49.72-3.46,22.32-8.06,49.81S257.77,199.82,257.62,199.79Z"></path><path d="M269.89,199.79c-.15,0,3.46-22.32,8.05-49.8s8.44-49.74,8.58-49.72-3.45,22.32-8,49.81S270,199.82,269.89,199.79Z"></path><path d="M282.16,199.79c-.15,0,3.45-22.32,8-49.8s8.43-49.74,8.58-49.72-3.46,22.32-8.05,49.81S282.3,199.82,282.16,199.79Z"></path><path d="M294.42,199.79c-.14,0,3.46-22.32,8.05-49.8s8.44-49.74,8.59-49.72-3.46,22.32-8.05,49.81S294.57,199.82,294.42,199.79Z"></path><path d="M306.69,199.79c-.15,0,3.46-22.32,8.05-49.8s8.44-49.74,8.58-49.72-3.45,22.32-8.05,49.81S306.84,199.82,306.69,199.79Z"></path><path d="M319,199.79c-.15,0,3.46-22.32,8.05-49.8s8.43-49.74,8.58-49.72-3.46,22.32-8,49.81S319.1,199.82,319,199.79Z"></path><path d="M339,108.9c0,.15-22.51.27-50.29.27s-50.29-.12-50.29-.27,22.51-.27,50.29-.27S339,108.75,339,108.9Z"></path><path d="M337.07,119.74c0,.15-22.52.27-50.29.27s-50.3-.12-50.3-.27,22.52-.27,50.3-.27S337.07,119.59,337.07,119.74Z"></path><path d="M334.15,130.32c0,.15-22.52.27-50.29.27s-50.3-.12-50.3-.27,22.52-.27,50.3-.27S334.15,130.17,334.15,130.32Z"></path><path d="M335.4,140.9c0,.15-22.52.27-50.29.27s-50.29-.12-50.29-.27,22.51-.27,50.29-.27S335.4,140.75,335.4,140.9Z"></path><path d="M332.48,151.48c0,.14-22.52.27-50.29.27s-50.3-.13-50.3-.27,22.52-.27,50.3-.27S332.48,151.33,332.48,151.48Z"></path><path d="M329.56,162.05c0,.15-22.52.27-50.29.27s-50.3-.12-50.3-.27,22.52-.26,50.3-.26S329.56,161.91,329.56,162.05Z"></path><path d="M329.56,173.05c0,.15-22.52.27-50.29.27s-50.3-.12-50.3-.27,22.52-.27,50.3-.27S329.56,172.9,329.56,173.05Z"></path><path d="M327,184c0,.15-22.52.27-50.29.27s-50.3-.12-50.3-.27,22.52-.27,50.3-.27S327,183.89,327,184Z"></path><path d="M327,194.67c0,.15-22.52.27-50.29.27s-50.3-.12-50.3-.27,22.52-.27,50.3-.27S327,194.52,327,194.67Z"></path></g><path d="M246.16,161v-1h-1v-1h-1v-3.06h1v-1h1v-1h4.78v1h-3.83v1h-1V159h1v1H249v-2h-1v-1h2.87V161Z" style="fill:#fff"></path><path d="M251.9,161v-5.11h.95v-1h1v-1h2.87v1h.95v1h1V161h-1.91V159h-2.87V161Zm1.91-3.07h2.87v-2h-1v-1h-1v1h-.95Z" style="fill:#fff"></path><path d="M259.55,161v-7.16h1.91v1h1v1h1v-1h1v-1h1.91V161h-1.91v-4.09h-1v2h-1v-2h-1V161Z" style="fill:#fff"></path><path d="M267.19,161v-7.16h6.7v1h-4.78v2.05h3.82v1h-3.82v2h4.78v1Z" style="fill:#fff"></path><path d="M283.45,161v-1h-.95v-5.12h.95v-1h4.78v1h1V160h-1v1Zm1-1h2.87v-5.12h-2.87Z" style="fill:#fff"></path><path d="M293,161v-1h-.95v-1h-1v-1h-1v-4.09h1.91v3.07H293v1h1v-1h1v-3.07h1.91V158h-1v1h-.95v1h-1v1Z" style="fill:#fff"></path><path d="M297.8,161v-7.16h6.69v1h-4.78v2.05h3.82v1h-3.82v2h4.78v1Z" style="fill:#fff"></path><path d="M305.45,161v-7.16h5.73v1h1V158h-1.91v1h.95v1h1v1h-2.87v-1h-.95v-1h-1V161Zm1.91-3.07h1.91v-1h1v-2.05h-2.87Z" style="fill:#fff"></path><g style="opacity:0.2"><polygon points="228.97 199.67 296.83 100.21 307.48 100.21 239.07 199.85 228.97 199.67" style="fill:#fff"></polygon></g><rect x="154.78" y="216.03" width="136.99" height="56.82" style="fill:#FF725E"></rect><rect x="239.1" y="229.37" width="22.17" height="22.17" rx="9.14" style="fill:#e0e0e0"></rect><path d="M252.13,251.54a14.66,14.66,0,0,0,2.79-.55,9.17,9.17,0,0,0,5.45-5.1,9.4,9.4,0,0,0,.63-2.44c.08-.87.05-1.81.05-2.78s0-2-.06-3a8.93,8.93,0,0,0-5.57-7.41c-2.14-.93-4.66-.56-7.17-.63a8.89,8.89,0,0,0-8.89,8.72c0,1.09,0,2.15,0,3.18a11.24,11.24,0,0,0,.24,2.94,8.84,8.84,0,0,0,2.61,4.49,8.74,8.74,0,0,0,3.78,2.11,12,12,0,0,0,3.29.35l2.13,0a3.64,3.64,0,0,1,.74.06,4.35,4.35,0,0,1-.74.05l-2.13,0a11.59,11.59,0,0,1-3.37-.27,8.91,8.91,0,0,1-4-2.12,8.42,8.42,0,0,1-1.68-2,8.76,8.76,0,0,1-1.1-2.64,11.34,11.34,0,0,1-.28-3c0-1,0-2.1,0-3.19a9.39,9.39,0,0,1,9.39-9.25H252a9.68,9.68,0,0,1,3.63.68,9.38,9.38,0,0,1,5.85,7.86c.08,1.07,0,2.05,0,3a26.52,26.52,0,0,1-.08,2.83,10.21,10.21,0,0,1-.69,2.54,9.43,9.43,0,0,1-2.74,3.57,9.21,9.21,0,0,1-3,1.58,8.84,8.84,0,0,1-2.11.36A3.83,3.83,0,0,1,252.13,251.54Z" style="fill:#263238"></path><rect x="248.89" y="233.66" width="2.59" height="13.59" rx="1.25" style="fill:#263238"></rect><rect x="180.36" y="269.55" width="156.68" height="205.39" style="fill:#FF725E"></rect><path d="M273.47,403.07s0-.15,0-.42,0-.69,0-1.21c0-1.08,0-2.65,0-4.7,0-4.12,0-10.13-.06-17.78,0-15.29-.07-37.11-.12-63.28l.23.23-87.38,0h0l.27-.27c0,32,0,62,0,87.39l-.23-.23,63.28.12,17.78.06,4.7,0,1.21,0h0l-1.19,0-4.65,0-17.73.06-63.43.12h-.23v-.23c0-25.4,0-55.39,0-87.39v-.27h.28l87.38,0h.24v.23c0,26.23-.09,48.1-.12,63.42,0,7.63,0,13.63-.06,17.73,0,2,0,3.59,0,4.66,0,.51,0,.91,0,1.19S273.47,403.07,273.47,403.07Z" style="fill:#263238"></path><polygon points="154.51 216.03 217.1 203.51 319.27 205.73 317.86 207.04 291.77 216.03 154.51 216.03" style="fill:#FF725E"></polygon><path d="M154.51,216l137.26-.26h-.08l26.08-9-.09.05,1.12-1.05.28-.26.18.47L217.1,203.72h0L154.51,216l62.55-12.73h.05l102.16,2.17h.66l-.48.45-.28.27L318,207.24l0,0H318l-26.09,9,0,0h-.05Z" style="fill:#263238"></path><path d="M281,66.12l.67-25.68a9.58,9.58,0,0,1,10.26-9.3c31.27,2.39,60.48,13.37,81.33,33A18.37,18.37,0,0,1,379,77.59l-2.46,397.35H292.3V273H281.44l-.53-57h2.36c14.85,0,22.12-10.68,23.25-25.48l6.73-88.23a20.46,20.46,0,0,0-14-21.72L286.7,75.14A9.57,9.57,0,0,1,281,66.12Z" style="fill:#FF725E"></path><g style="opacity:0.30000000000000004"><path d="M281,66.12l.67-25.68a9.58,9.58,0,0,1,10.26-9.3c31.27,2.39,60.48,13.37,81.33,33A18.37,18.37,0,0,1,379,77.59l-2.46,397.35H292.3V273H290a8.6,8.6,0,0,1-8.6-8.52L280.91,216h2.36c14.85,0,22.12-10.68,23.25-25.48l6.73-88.23a20.46,20.46,0,0,0-14-21.72L286.7,75.14A9.57,9.57,0,0,1,281,66.12Z"></path></g><path d="M291.82,66.12l.67-25.68a9.57,9.57,0,0,1,10.26-9.3c31.27,2.39,60.48,13.37,81.33,33a18.37,18.37,0,0,1,5.75,13.49l-2.46,397.35H303.16V273h-4.09a6.84,6.84,0,0,1-6.84-6.77l-.46-50.2h2.36c14.85,0,22.12-10.68,23.25-25.48l6.73-88.23a20.46,20.46,0,0,0-14-21.72l-12.51-5.46A9.55,9.55,0,0,1,291.82,66.12Z" style="fill:#FF725E"></path><g style="opacity:0.4"><polygon points="303.18 324.25 389.19 180.61 389.19 231.94 303.18 376.57 303.18 324.25" style="fill:#fff"></polygon></g><polygon points="303.18 376.57 389.19 231.94 388.92 285.11 303.18 423.57 303.18 376.57" style="fill:#fff"></polygon><path d="M291.89,31.14h-.29c-.2,0-.49,0-.87,0A9.56,9.56,0,0,0,282,38.64a21.15,21.15,0,0,0-.27,4c-.14,5.7-.31,12.68-.51,20.8,0,1-.06,2.06-.06,3.1a9.38,9.38,0,0,0,4.79,8c4.15,1.93,8.69,3.81,13.38,5.88h0a20.86,20.86,0,0,1,11.88,9.9,21.24,21.24,0,0,1,2.37,8c.07.71.05,1.44.07,2.16l-.15,2.17c-.1,1.44-.21,2.9-.32,4.37-.89,11.75-1.84,24.32-2.85,37.58s-2.06,27.21-3.16,41.71a69.69,69.69,0,0,1-1.35,10.95,28.66,28.66,0,0,1-4.46,10.31,19.67,19.67,0,0,1-8.93,7l-1.36.51c-.46.14-.93.25-1.4.37a19.87,19.87,0,0,1-2.87.53,45.32,45.32,0,0,1-5.82.23l.27-.27c.06,6.77.13,14,.2,21.26s.13,14.63.2,21.79c.18,3.53-.58,7.35,1.65,10.16a8.25,8.25,0,0,0,4,3,14.22,14.22,0,0,0,5.06.5h.27V273c0,57.43-.07,107.91-.09,144,0,18.06-.07,32.53-.08,42.5,0,5,0,8.81,0,11.43,0,1.3,0,2.28,0,3s0,1,0,1,0-.34,0-1,0-1.66,0-3c0-2.62,0-6.46,0-11.43,0-10,0-24.44-.08-42.5,0-36.13-.06-86.61-.09-144l.26.27c-.87,0-1.72,0-2.61,0a8.81,8.81,0,0,1-2.63-.5,9,9,0,0,1-4.27-3.2,9.07,9.07,0,0,1-1.7-5.11c0-1.78,0-3.56,0-5.36q-.09-10.74-.2-21.78c-.07-7.29-.13-14.49-.19-21.26v-.27h.27a45.78,45.78,0,0,0,5.76-.23,18.92,18.92,0,0,0,2.8-.52c.46-.12.92-.22,1.37-.36l1.33-.5a19.16,19.16,0,0,0,8.69-6.84,28.08,28.08,0,0,0,4.38-10.12,68.84,68.84,0,0,0,1.34-10.87c1.11-14.5,2.18-28.45,3.2-41.71s2-25.83,2.89-37.58c.12-1.47.23-2.93.34-4.37l.15-2.14c0-.71,0-1.42-.07-2.12a20.84,20.84,0,0,0-2.3-7.89,20.47,20.47,0,0,0-11.64-9.74h0c-4.7-2.09-9.19-4-13.4-5.93a9.71,9.71,0,0,1-4.92-8.3c0-1.06.05-2.09.07-3.1.24-8.13.43-15.11.6-20.81a21.64,21.64,0,0,1,.3-4,9.84,9.84,0,0,1,1.4-3.26,9.55,9.55,0,0,1,4.24-3.5,9.66,9.66,0,0,1,3.31-.74C291.5,31.1,291.89,31.14,291.89,31.14Z" style="fill:#263238"></path><path d="M291.84,66.12s0,.13,0,.4A9.62,9.62,0,0,0,293.74,72a9.86,9.86,0,0,0,2.56,2.38,36.52,36.52,0,0,0,3.88,1.8l9.94,4.32h0A20.74,20.74,0,0,1,320,87.4,20.45,20.45,0,0,1,324.34,101c-.78,10.4-1.68,22.28-2.67,35.53s-2.11,27.86-3.31,43.72c-.32,4-.55,8-1,12.12a44,44,0,0,1-1.13,6.17,32,32,0,0,1-2.28,6l-.36.73-.42.69c-.29.46-.56.93-.87,1.38a22.63,22.63,0,0,1-2.07,2.53,20.69,20.69,0,0,1-2.44,2.23,21.24,21.24,0,0,1-2.84,1.75,21.48,21.48,0,0,1-3.09,1.3c-.54.17-1.09.29-1.64.43l-.82.21-.84.13-1.69.24-1.7.09c-1.14.07-2.28,0-3.42.05l.2-.21c.1,10,.2,20.41.3,31.24q.09,8.13.16,16.53a14.39,14.39,0,0,0,.34,4.12,6.94,6.94,0,0,0,2.3,3.34,6.85,6.85,0,0,0,3.8,1.49c1.4.05,2.86,0,4.29,0h.23V273c0,59.36,0,128.08,0,201.94l-.27-.27h84.21l-.27.26c0-1.51,0-3.15,0-4.79,1-148.65,1.81-283.2,2.43-380.6q0-4.56.06-9c0-1.48.07-3,0-4.41a18.39,18.39,0,0,0-.82-4.24,18.09,18.09,0,0,0-4.36-7.19c-1-1-2.08-1.88-3.1-2.81-.52-.46-1-.94-1.56-1.38l-1.6-1.29c-2.1-1.76-4.31-3.31-6.46-4.88-1.1-.75-2.21-1.45-3.31-2.18l-1.64-1.06-1.67-1a123,123,0,0,0-13.3-6.88,150.23,150.23,0,0,0-47.9-11.86,10.54,10.54,0,0,0-4.86.37,9.59,9.59,0,0,0-3.85,2.48A9.32,9.32,0,0,0,293,37.92a14.22,14.22,0,0,0-.47,4c-.14,5.24-.27,9.67-.37,13.26s-.19,6.31-.24,8.15-.1,2.78-.1,2.78,0-1,0-2.78.11-4.58.19-8.16.2-8,.32-13.25a14,14,0,0,1,.47-4.06,9.54,9.54,0,0,1,2.18-3.8A9.79,9.79,0,0,1,299,31.53a10.79,10.79,0,0,1,4.94-.39,149.91,149.91,0,0,1,48,11.8,123.47,123.47,0,0,1,13.35,6.87l1.67,1,1.65,1.07c1.1.72,2.22,1.43,3.32,2.18,2.16,1.57,4.37,3.12,6.48,4.89L380,60.23c.54.44,1,.92,1.57,1.37,1,.94,2.1,1.84,3.12,2.83a18.43,18.43,0,0,1,4.45,7.33,18.06,18.06,0,0,1,.84,4.32c.11,1.49,0,3,0,4.44q0,4.45-.06,9c-.58,97.39-1.38,231.94-2.27,380.59,0,1.64,0,3.29,0,4.8v.27H302.91v-.26c0-73.86,0-142.58,0-201.94l.23.23c-1.45,0-2.86,0-4.32,0a7.38,7.38,0,0,1-6.49-5.15,7.78,7.78,0,0,1-.34-2.14l0-2.1q-.08-8.42-.14-16.53c-.1-10.84-.19-21.28-.28-31.24v-.21h.2c1.14,0,2.29,0,3.4,0l1.69-.09,1.66-.23.82-.13.81-.2c.53-.14,1.08-.26,1.61-.42a21.83,21.83,0,0,0,3-1.28,20.83,20.83,0,0,0,2.79-1.71,21.54,21.54,0,0,0,2.39-2.18,21.1,21.1,0,0,0,2-2.49c.3-.44.57-.91.85-1.36l.42-.68.35-.71a31.07,31.07,0,0,0,2.26-5.9A44.31,44.31,0,0,0,317,192.3c.42-4.09.66-8.15,1-12.11,1.22-15.85,2.35-30.47,3.37-43.71s1.93-25.13,2.73-35.51a20.25,20.25,0,0,0-4.28-13.45,20.58,20.58,0,0,0-9.77-6.84h0l-9.92-4.35a35.35,35.35,0,0,1-3.88-1.84,9.87,9.87,0,0,1-2.58-2.41,9.66,9.66,0,0,1-1.76-4.37,8.9,8.9,0,0,1-.08-1.19C291.83,66.25,291.84,66.12,291.84,66.12Z" style="fill:#263238"></path><polygon points="303.18 474.94 303.18 423.57 388.92 285.11 387.39 474.94 303.18 474.94" style="fill:#455a64"></polygon><path d="M236.42,96.37l-.27-.08-.77-.28-2.95-1.15-10.8-4.29L186.08,76.23l-17.6-7.17-.16-.06v-.17c0-10.28.08-19.07.1-25.34,0-3.09.05-5.55.07-7.28,0-.82,0-1.46,0-1.94s0-.67,0-.67a3.5,3.5,0,0,1,.05.67c0,.48,0,1.12,0,1.94,0,1.73,0,4.19.07,7.28,0,6.27.06,15.06.1,25.34l-.16-.23,17.61,7.13,35.5,14.49,10.73,4.45,2.91,1.24.75.33C236.34,96.32,236.43,96.36,236.42,96.37Z" style="fill:#263238"></path><path d="M289.09,211.05c0,1.12-5.09,2-11.36,2s-11.36-.9-11.36-2,5.08-2,11.36-2S289.09,209.93,289.09,211.05Z" style="fill:#455a64"></path><path d="M280.34,197h-5.76v13.1a6.21,6.21,0,0,0,5.76,0Z" style="fill:#e0e0e0"></path><path d="M280.34,197a5,5,0,0,1,.06.92c0,.71,0,1.61.07,2.68,0,2.32.11,5.63.12,9.5v.16l-.14.07a7,7,0,0,1-2.84.74,6.44,6.44,0,0,1-3.05-.68l-.1-.05-.15-.07v-.17c0-5.1,0-9.73.07-13.1v-.2h.19c1.82,0,3.28.07,4.27.11a9.09,9.09,0,0,1,1.49.09s-.61.05-1.61.09-2.42.08-4.15.1l.19-.19c.05,3.37.08,8,.08,13.1l-.15-.24.1.05a6,6,0,0,0,2.79.63,6.52,6.52,0,0,0,2.64-.67l-.15.23c0-3.76.07-7,.12-9.32,0-1.1.06-2,.07-2.75A8.59,8.59,0,0,1,280.34,197Z" style="fill:#263238"></path><path d="M277.46,177.55h0a5.33,5.33,0,0,0-5.33,5.5l.62,19.66a11.65,11.65,0,0,0,9,0l1-19.55A5.33,5.33,0,0,0,277.46,177.55Z" style="fill:#FF725E"></path><path d="M277.46,177.55a2.39,2.39,0,0,1,.56,0,5.44,5.44,0,0,1,1.58.36,5.45,5.45,0,0,1,3.36,4.73c-.16,5.1-.54,12.12-.94,20.1v.17l-.15.06a11.19,11.19,0,0,1-4.6.93,13.47,13.47,0,0,1-4.61-.92l-.16-.06v-.18c-.23-8-.45-15-.52-20.1a5.41,5.41,0,0,1,1.27-3.2,5.6,5.6,0,0,1,2.08-1.53,5.5,5.5,0,0,1,1.59-.36,2.39,2.39,0,0,1,.56,0,7.22,7.22,0,0,0-2.07.52,5.53,5.53,0,0,0-1.95,1.52,5.3,5.3,0,0,0-1.13,3c.18,5.12.43,12.13.71,20.07l-.18-.24a13,13,0,0,0,4.43.88,10.68,10.68,0,0,0,4.38-.88l-.16.24c.44-7.94.83-14.95,1.12-20.06a5.25,5.25,0,0,0-1.14-3,5.34,5.34,0,0,0-1.94-1.53A7.76,7.76,0,0,0,277.46,177.55Z" style="fill:#263238"></path><path d="M273.83,195.73a10.5,10.5,0,0,1-.34-2.35c-.14-1.47-.28-3.49-.36-5.73a28.4,28.4,0,0,1,.22-5.77,3.6,3.6,0,0,1,.76-1.62c.29-.32.51-.42.52-.39a4.48,4.48,0,0,0-.91,2.08,41.38,41.38,0,0,0-.05,5.68c.07,2.13.14,4.05.2,5.72A10.3,10.3,0,0,1,273.83,195.73Z" style="fill:#fff"></path><path d="M216.34,210.92c0,.76-2.12,1.38-4.73,1.38s-4.73-.62-4.73-1.38v-1.07a20,20,0,0,1,4.73-.3c1.8,0,3.87-.23,4.67.2C216.28,209.75,216.34,210.69,216.34,210.92Z" style="fill:#263238"></path><path d="M216.34,209.92c0,.69-2.12,1.25-4.73,1.25s-4.73-.56-4.73-1.25,2.12-1.25,4.73-1.25S216.34,209.23,216.34,209.92Z" style="fill:#455a64"></path><path d="M230.77,210.92c0,.76-2.12,1.38-4.73,1.38s-4.72-.62-4.72-1.38v-1.07a19.87,19.87,0,0,1,4.72-.3c1.81,0,3.88-.23,4.68.2C230.72,209.75,230.77,210.69,230.77,210.92Z" style="fill:#263238"></path><path d="M230.77,209.92c0,.69-2.12,1.25-4.73,1.25s-4.72-.56-4.72-1.25,2.11-1.25,4.72-1.25S230.77,209.23,230.77,209.92Z" style="fill:#455a64"></path><path d="M245.21,210.92c0,.76-2.12,1.38-4.73,1.38s-4.73-.62-4.73-1.38v-1.07a20,20,0,0,1,4.73-.3c1.81,0,3.88-.23,4.67.2C245.15,209.75,245.21,210.69,245.21,210.92Z" style="fill:#263238"></path><path d="M245.21,209.92c0,.69-2.12,1.25-4.73,1.25s-4.73-.56-4.73-1.25,2.12-1.25,4.73-1.25S245.21,209.23,245.21,209.92Z" style="fill:#455a64"></path><path d="M259.64,210.92c0,.76-2.11,1.38-4.72,1.38s-4.73-.62-4.73-1.38v-1.07a20,20,0,0,1,4.73-.3c1.8,0,3.87-.23,4.67.2C259.59,209.75,259.64,210.69,259.64,210.92Z" style="fill:#263238"></path><path d="M259.64,209.92c0,.69-2.11,1.25-4.72,1.25s-4.73-.56-4.73-1.25,2.11-1.25,4.73-1.25S259.64,209.23,259.64,209.92Z" style="fill:#455a64"></path><path d="M290.41,272.86c0,.14-32,.26-71.36.26s-71.37-.12-71.37-.26,31.95-.27,71.37-.27S290.41,272.71,290.41,272.86Z" style="fill:#263238"></path><path d="M280.91,216c0,.15-28.81.27-64.34.27s-64.35-.12-64.35-.27,28.8-.27,64.35-.27S280.91,215.89,280.91,216Z" style="fill:#263238"></path><rect x="183.59" y="326.94" width="4.99" height="20.36" style="fill:#e0e0e0"></rect><path d="M188.58,347.3a12.72,12.72,0,0,1-.07-1.61c0-1.09,0-2.54-.08-4.31-.05-3.64-.11-8.69-.12-14.44l.27.26h-5l.27-.27h0V333c0,1.94,0,3.8,0,5.54,0,3.44-.06,6.42-.08,8.75l-.16-.16,3.63.09c.86,0,1.33,0,1.36.07a10.5,10.5,0,0,1-1.27.07l-3.72.09h-.16v-.16c0-2.33-.05-5.31-.08-8.75,0-1.74,0-3.6,0-5.54,0-1,0-2,0-3V327h0l.27-.27h5.25v.27c0,5.86-.07,11-.12,14.63,0,1.74-.06,3.17-.07,4.24A14.73,14.73,0,0,1,188.58,347.3Z" style="fill:#263238"></path><rect x="183.59" y="370.97" width="4.99" height="20.36" style="fill:#e0e0e0"></rect><path d="M188.58,391.33a12.72,12.72,0,0,1-.07-1.61c0-1.09,0-2.54-.08-4.31-.05-3.64-.11-8.69-.12-14.44l.27.26h-5c.53-.54.15-.15.27-.27h0v6.06c0,1.94,0,3.79,0,5.54,0,3.43-.06,6.41-.08,8.74l-.16-.16,3.63.09c.86,0,1.33.05,1.36.07a8.32,8.32,0,0,1-1.27.07l-3.72.09h-.16v-.17c0-2.33-.05-5.31-.08-8.74,0-1.75,0-3.6,0-5.54,0-1,0-2,0-3V371h0l.27-.27h5.25V371c0,5.86-.07,11-.12,14.63,0,1.74-.06,3.17-.07,4.25A14.34,14.34,0,0,1,188.58,391.33Z" style="fill:#263238"></path><circle cx="160.08" cy="224.2" r="1.54" style="fill:#263238"></circle><circle cx="273.84" cy="224.2" r="1.54" style="fill:#263238"></circle><path d="M303.18,44.22a1.54,1.54,0,1,1-1.54-1.54A1.54,1.54,0,0,1,303.18,44.22Z" style="fill:#263238"></path><circle cx="300.23" cy="221.16" r="1.54" style="fill:#263238"></circle><path d="M303.18,63.44a1.54,1.54,0,1,1-1.54-1.54A1.54,1.54,0,0,1,303.18,63.44Z" style="fill:#263238"></path><circle cx="300.23" cy="266.66" r="1.54" style="fill:#263238"></circle><path d="M267.91,325.39a1.55,1.55,0,1,1-1.54-1.54A1.54,1.54,0,0,1,267.91,325.39Z" style="fill:#263238"></path><path d="M176.72,281a1.55,1.55,0,1,1-1.55-1.55A1.54,1.54,0,0,1,176.72,281Z" style="fill:#263238"></path><path d="M338.8,95a1.55,1.55,0,1,1-1.55-1.54A1.54,1.54,0,0,1,338.8,95Z" style="fill:#263238"></path><path d="M197.72,94.83a1.54,1.54,0,1,1-1.54-1.54A1.54,1.54,0,0,1,197.72,94.83Z" style="fill:#263238"></path><circle cx="175.17" cy="468.87" r="1.54" style="fill:#263238"></circle><path d="M285.53,279.46a1.55,1.55,0,1,1-1.55-1.54A1.54,1.54,0,0,1,285.53,279.46Z" style="fill:#263238"></path><path d="M285.53,468.87a1.55,1.55,0,1,1-1.55-1.54A1.54,1.54,0,0,1,285.53,468.87Z" style="fill:#263238"></path><path d="M267.91,395.3a1.55,1.55,0,1,1-1.54-1.54A1.54,1.54,0,0,1,267.91,395.3Z" style="fill:#263238"></path><circle cx="378.97" cy="76.05" r="1.54" style="fill:#263238"></circle><circle cx="160.08" cy="266.66" r="1.54" style="fill:#263238"></circle><circle cx="272.3" cy="266.66" r="1.54" style="fill:#263238"></circle><g style="opacity:0.30000000000000004"><rect x="186.22" y="447.82" width="22.82" height="21.04"></rect></g><path d="M177.15,57.8V46.85h2.2v-2.2h2.19V42.46h6.57v2.19h2.2v2.2h2.19V57.8h-4.39V53.42h-6.57V57.8Zm4.39-6.57h6.57V46.85h-2.19v-2.2h-2.19v2.2h-2.19Z" style="fill:#fff"></path><path d="M194.69,57.8V42.46h13.15v2.19H210v6.58h-4.38v2.19h2.19v2.19H210V57.8h-6.57V55.61h-2.19V53.42h-2.2V57.8Zm4.38-6.57h4.39V49h2.19V44.65h-6.58Z" style="fill:#fff"></path><path d="M216.61,57.8V55.61h-2.19V53.42h-2.19V46.85h2.19v-2.2h2.19V42.46h8.77v2.19h2.19v2.2h-4.38v-2.2H218.8v2.2h-2.19v6.57h2.19v2.19h4.39V53.42h4.38v2.19h-2.19V57.8Z" style="fill:#fff"></path><path d="M229.76,57.8V46.85H232v-2.2h2.2V42.46h6.57v2.19h2.19v2.2h2.2V57.8h-4.39V53.42h-6.57V57.8Zm4.39-6.57h6.57V46.85h-2.19v-2.2h-2.19v2.2h-2.19Z" style="fill:#fff"></path><path d="M247.3,57.8V42.46h11v2.19h2.19v2.2h2.19v6.57h-2.19v2.19h-2.19V57.8Zm4.38-2.19h4.38V53.42h2.2V46.85h-2.2v-2.2h-4.38Z" style="fill:#fff"></path><path d="M264.83,57.8V42.46h15.35v2.19h-11V49H278v2.19h-8.76v4.38h11V57.8Z" style="fill:#fff"></path><path d="M325.66,276l-9.26-5.86,1.17-1.85-1.85-1.18,1.17-1.85L315,264.1l3.52-5.56,1.85,1.17,1.17-1.85,1.86,1.17,1.17-1.85,9.26,5.86-2.34,3.7-3.71-2.34L324.3,270l3.7,2.34Zm-3.22-7.22,3.52-5.56-3.71-2.34-1.17,1.85-1.85-1.17-1.17,1.85,1.85,1.17-1.17,1.85Z" style="fill:#fff"></path><path d="M335,261.19l-13-8.21,7-11.11L331,243l1.17-1.85,5.56,3.51-2.35,3.71,1.85,1.17,1.18-1.85,1.85,1.17,1.17-1.85,1.85,1.17-3.51,5.56-1.85-1.18-1.18,1.86-1.85-1.17-1.17,1.85,3.7,2.34ZM331.82,254l2.34-3.71-1.85-1.17,1.17-1.85-3.7-2.35-3.52,5.56Z" style="fill:#fff"></path><path d="M346.75,242.66l-1.85-1.17-1.18,1.85-1.85-1.17L340.7,244l-5.56-3.51,1.17-1.85-1.85-1.18,1.17-1.85-1.85-1.17,4.69-7.41,1.85,1.17,1.17-1.85,1.85,1.17L341,231.25l-1.85-1.18-2.34,3.71,1.85,1.17-1.17,1.85,5.55,3.52,1.17-1.85,1.86,1.17,2.34-3.71-1.85-1.17,2.34-3.7,1.85,1.17-1.17,1.85,1.85,1.17Z" style="fill:#fff"></path><path d="M353.78,231.55l-9.26-5.86,1.17-1.85-1.86-1.18,1.18-1.85-1.86-1.17,3.52-5.56,1.85,1.17,1.17-1.85,1.86,1.17,1.17-1.85,9.26,5.86-2.34,3.7-3.71-2.34-3.51,5.56,3.7,2.34Zm-3.22-7.22,3.52-5.56-3.71-2.34-1.17,1.85-1.85-1.17L346.18,219l1.85,1.17L346.86,222Z" style="fill:#fff"></path><path d="M363.15,216.73l-13-8.21,5.86-9.26,1.85,1.17,1.18-1.85,1.85,1.17,1.17-1.85,5.56,3.51-1.17,1.86,1.85,1.17-1.17,1.85,1.85,1.17Zm.49-4.88,2.34-3.71L364.13,207l1.17-1.85-5.55-3.52-1.18,1.86-1.85-1.17-2.34,3.7Z" style="fill:#fff"></path><path d="M372.52,201.91l-13-8.21,8.2-13,1.85,1.17-5.86,9.26,3.71,2.34,4.68-7.41,1.86,1.18-4.69,7.41L373,197l5.85-9.26,1.86,1.17Z" style="fill:#fff"></path><g style="opacity:0.2"><polygon points="261.65 33.92 236.51 69.19 253.94 69.19 278.9 33.92 261.65 33.92" style="fill:#fff"></polygon></g></g><g id="freepik--speech-bubble--inject-819"><path d="M112.14,84.65a30.65,30.65,0,1,0-6.29,6.66l9.37,2Z" style="fill:#fff"></path><path d="M112.14,84.65s.09.2.24.57l.62,1.65,2.35,6.36.09.23-.24,0-9.39-1.92.16,0a30.93,30.93,0,0,1-18.91,6.62,34.21,34.21,0,0,1-4.78-.39,29.6,29.6,0,0,1-9.67-3.14,30.91,30.91,0,0,1-13.45-40.8A30.33,30.33,0,0,1,73.39,39.46a28.85,28.85,0,0,1,9.3-2.85,29.67,29.67,0,0,1,9.32.13l1.13.17c.37.08.73.18,1.1.27.72.2,1.46.36,2.16.59a31.66,31.66,0,0,1,4.06,1.66,34.22,34.22,0,0,1,3.71,2.1c.57.41,1.12.84,1.67,1.25l.82.62.76.68a30,30,0,0,1,8.42,12.29,31.77,31.77,0,0,1,1.91,12.17,30.59,30.59,0,0,1-1.85,9.13A29.85,29.85,0,0,1,113.31,83c-.36.58-.65,1-.85,1.27a3.86,3.86,0,0,1-.32.42,2.6,2.6,0,0,1,.26-.44c.19-.3.46-.74.79-1.32a30.54,30.54,0,0,0,4.2-14.36,31.89,31.89,0,0,0-2-12,32.33,32.33,0,0,0-3.25-6.31,31.47,31.47,0,0,0-5.11-5.74l-.74-.67-.81-.61c-.54-.4-1.08-.82-1.64-1.21a34,34,0,0,0-3.65-2,30.54,30.54,0,0,0-4-1.62c-.69-.22-1.41-.37-2.12-.56-.36-.09-.72-.19-1.08-.27l-1.1-.17a29.75,29.75,0,0,0-9.14-.1A28.7,28.7,0,0,0,73.67,40,29.87,29.87,0,0,0,59.75,54,30.31,30.31,0,0,0,72.88,94a29.18,29.18,0,0,0,9.49,3.13,34.39,34.39,0,0,0,4.69.4,29.92,29.92,0,0,0,4.49-.34,30.3,30.3,0,0,0,14.18-6.06l.07,0h.09l9.36,2-.15.18c-1-2.78-1.72-4.95-2.24-6.45-.23-.71-.42-1.26-.56-1.66A3.62,3.62,0,0,1,112.14,84.65Z" style="fill:#263238"></path><path d="M96.82,64.82a6,6,0,0,0-1.41-3.32,5.73,5.73,0,0,0-2.93-2,4.74,4.74,0,0,0-3.67.57,4.66,4.66,0,0,0-1.56,1.62,4.62,4.62,0,0,0-1.32-1.56,4.76,4.76,0,0,0-3.62-.86A5.71,5.71,0,0,0,79.23,61a6,6,0,0,0-1.68,3.2,7.31,7.31,0,0,0,.73,4.53,10.22,10.22,0,0,0,3.43,3.49C84,73.74,87,75.62,87,75.62s2.67-1.83,5.06-3.14a10.3,10.3,0,0,0,3.7-3.2A7.34,7.34,0,0,0,96.82,64.82Z" style="fill:#FF725E"></path></g><g id="freepik--Character--inject-819"><path d="M116.48,139.83s-9.34,53.08-8.89,58,2.93,12.86,8.57,14.22a24.89,24.89,0,0,0,10.83,0l-6.77-65.2Z" style="fill:#ffbf9d"></path><path d="M190.91,199.73s13.76-4.08,16-4.38a12,12,0,0,1,5.59.9c.6.3,6.95,2.27,8.31,4.24s0,5.29,0,5.29,2.12.9,1.36,2.57-2.57,1.36-4.54,1.36-5.13-.11-7.25,0-9.82,2.55-14,1.49-5.45-2.27-5.45-2.27Z" style="fill:#ffbf9d"></path><path d="M221,205.93a14.48,14.48,0,0,1-1.81-.64,23.08,23.08,0,0,0-4.51-.95c-3.59-.43-6.54-.16-6.56-.32a17.7,17.7,0,0,1,6.63-.22,17.38,17.38,0,0,1,4.57,1.13A4.52,4.52,0,0,1,221,205.93Z" style="fill:#ff9a6c"></path><path d="M217.84,204.65s-.09-.09-.17-.29a1.25,1.25,0,0,1,0-.94l.21.24a8.17,8.17,0,0,1-6.68-.67l.24-.18c.07.77-.37,1.07-.39,1s.2-.39.05-1l-.08-.32.33.14a11.28,11.28,0,0,0,3.24.82,10.88,10.88,0,0,0,3.19-.2l.4-.08-.18.33a1.26,1.26,0,0,0-.14.76C217.88,204.52,217.88,204.64,217.84,204.65Z" style="fill:#ff9a6c"></path><path d="M148.18,65.82l-.61,49.75C147.46,124,149,136.48,162.42,136h0c11.58-1.26,14.66-12.22,14.75-20.12,0-3.74.08-6.87.11-7.25,0,0,12.68-1,13.75-13.56.52-6,.57-18.6.48-30A23.41,23.41,0,0,0,169.8,42l-1.21-.09C155.49,41.7,148,52.72,148.18,65.82Z" style="fill:#ffbf9d"></path><path d="M177.28,108.66a30.33,30.33,0,0,1-16-6s3.31,9.45,15.91,9.23Z" style="fill:#ff9a6c"></path><path d="M170.1,70.27c-.25.26-1.69-.91-3.79-1s-3.67,1-3.89.71.15-.59.84-1.07a5.33,5.33,0,0,1,3.12-.88,5.14,5.14,0,0,1,3,1.09C170,69.68,170.22,70.16,170.1,70.27Z" style="fill:#263238"></path><path d="M171,76.21a1.7,1.7,0,0,1-1.76,1.59,1.63,1.63,0,0,1-1.63-1.66,1.71,1.71,0,0,1,1.76-1.59A1.62,1.62,0,0,1,171,76.21Z" style="fill:#263238"></path><path d="M175.36,84.87a12.86,12.86,0,0,1,3.17-.34c.49,0,1-.08,1.07-.41a2.49,2.49,0,0,0-.22-1.48c-.38-1.22-.77-2.51-1.18-3.85-1.63-5.48-2.77-10-2.55-10s1.72,4.33,3.35,9.81c.39,1.35.76,2.64,1.12,3.87a2.86,2.86,0,0,1,.11,1.95,1.23,1.23,0,0,1-.86.66,3.68,3.68,0,0,1-.84.06A12.6,12.6,0,0,1,175.36,84.87Z" style="fill:#263238"></path><path d="M169.21,61.34c-.2.47-1.88.12-3.9.22s-3.66.55-3.89.1c-.11-.21.21-.64.89-1.06a6.57,6.57,0,0,1,5.94-.24C169,60.72,169.3,61.12,169.21,61.34Z" style="fill:#263238"></path><path d="M189.14,64.49c-.22.38-1.86,0-3.85-.11s-3.63.2-3.84-.2c-.09-.19.24-.53.93-.83a7.09,7.09,0,0,1,2.94-.49,7.19,7.19,0,0,1,2.91.72C188.92,63.94,189.23,64.3,189.14,64.49Z" style="fill:#263238"></path><path d="M148.53,75.17c-.21-.11-8.43-3.17-8.78,5.42s8.35,7.17,8.37,6.92S148.53,75.17,148.53,75.17Z" style="fill:#ffbf9d"></path><path d="M145.63,84.15s-.15.1-.41.2a1.44,1.44,0,0,1-1.12,0c-.9-.37-1.6-1.84-1.58-3.39a5,5,0,0,1,.51-2.13,1.74,1.74,0,0,1,1.17-1.1.76.76,0,0,1,.87.45c.1.24,0,.41.09.43s.19-.14.13-.5a1,1,0,0,0-.31-.55,1.17,1.17,0,0,0-.82-.25,2.09,2.09,0,0,0-1.62,1.27,5,5,0,0,0-.62,2.37c0,1.73.81,3.39,2,3.8a1.62,1.62,0,0,0,1.38-.17C145.61,84.36,145.66,84.17,145.63,84.15Z" style="fill:#ff9a6c"></path><path d="M173.33,90.82c.09-.22-1.59-.73-2.77-2.3a9.92,9.92,0,0,1-1.19-2.25c-.25-.62-.44-1-.53-1s-.07.45.07,1.12a6.27,6.27,0,0,0,1.1,2.52,5.2,5.2,0,0,0,2.2,1.68C172.86,90.87,173.31,90.89,173.33,90.82Z" style="fill:#263238"></path><path d="M208.14,53.9a2,2,0,0,0-.95-1.19,6.25,6.25,0,0,0-3.2-.52,18,18,0,0,1-9.42-2.86A42,42,0,0,0,190.19,44c-3.8-3.92-6.92-6.58-10.15-7.88-4.18-1.68-11.17-2.37-15.53-1.22s-8.27,4.68-8.88,9.14c-2.44-2.07-6.11-2.05-9.09-.85l-.07,0c-3.32,1.18-5.2,4.68-6.18,8.06s-1.39,7-3.18,10c-.38.63-.82,1.39-.49,2a1.38,1.38,0,0,0,1.46.63,4.11,4.11,0,0,0,1.54-.69l-1.11,2.65a7.89,7.89,0,0,0,3.61-.24,75.43,75.43,0,0,0,2.36,8.92,5.08,5.08,0,0,1,3.51.86c1.16,1,1.68,3,3.6,2.26,1-.38,1.88-2.44,2.21-3.44a48.86,48.86,0,0,0,2.12-20.69,15.71,15.71,0,0,1,4.85-3.5l-.15.13c3.5-1.21,7.46-2.41,10.78-.77,2.58,1.28,4.09,4,6,6.09a19.69,19.69,0,0,0,14,6.47c.19,3.53-.11,8.51.08,12l3-5.65v0c.24-.42.44-.83.63-1.25l.07-.13v0a21.82,21.82,0,0,1,1-2l0,0a2.2,2.2,0,0,0,3.22-2.95A4.94,4.94,0,0,0,198.36,61a3.49,3.49,0,0,0,3.32.86,2.74,2.74,0,0,0,1.94-2.7,2.34,2.34,0,0,0-1.39-1.87,7.84,7.84,0,0,0,4.47-1C207.58,55.83,208.44,55,208.14,53.9Z" style="fill:#263238"></path><path d="M159.58,45.5a9.63,9.63,0,0,0-1.26,1.15,8.86,8.86,0,0,0-1.92,4.16,15.63,15.63,0,0,0-.32,3.18c0,1.16.08,2.39.17,3.69a32.61,32.61,0,0,1,.1,4.11,14.85,14.85,0,0,1-.29,2.17,4.41,4.41,0,0,1-.88,2.1,1.92,1.92,0,0,1-1.77.6,2.86,2.86,0,0,1-1.59-.9,6.48,6.48,0,0,1-1.21-3.19l.27,0a10.36,10.36,0,0,1-1.53,2.63,3.76,3.76,0,0,1-2.44,1.33,2.46,2.46,0,0,1-1.29-.23,2.06,2.06,0,0,1-.87-.86,2.16,2.16,0,0,1-.27-1.12,1.57,1.57,0,0,1,.4-1l.13.12a8,8,0,0,1-2.69,2,7.21,7.21,0,0,1-.83.32l-.3.08a1.2,1.2,0,0,1,.28-.12c.19-.08.47-.19.81-.37a8.35,8.35,0,0,0,2.6-2.05l.13.12a1.61,1.61,0,0,0-.08,1.86,1.89,1.89,0,0,0,.79.77,2.2,2.2,0,0,0,1.17.19,3.54,3.54,0,0,0,2.27-1.26,10.31,10.31,0,0,0,1.46-2.57l.18-.4.09.43a6.19,6.19,0,0,0,1.15,3,2.52,2.52,0,0,0,1.42.81,1.62,1.62,0,0,0,1.5-.5,4.32,4.32,0,0,0,.82-2,14.17,14.17,0,0,0,.28-2.12A32.27,32.27,0,0,0,156,57.7c-.08-1.3-.16-2.54-.15-3.71a16,16,0,0,1,.36-3.23,9,9,0,0,1,2-4.19A5.08,5.08,0,0,1,159.58,45.5Z" style="fill:#455a64"></path><path d="M198.33,57.69l-.1.09-.31.22a3,3,0,0,1-.53.34,6.53,6.53,0,0,1-.76.41,11.15,11.15,0,0,1-5.37,1,14.23,14.23,0,0,1-7.56-2.79,24.5,24.5,0,0,1-6.49-7.49c-.91-1.52-1.66-3.07-2.48-4.51a16.4,16.4,0,0,0-2.8-3.81,8.39,8.39,0,0,0-3.6-2.19,6,6,0,0,0-1.91-.22,6.88,6.88,0,0,0-1.74.33,7.37,7.37,0,0,0-4,3.41,8,8,0,0,0-.64,1.88s0,0,0-.13,0-.23,0-.39a6.86,6.86,0,0,1,.48-1.41,7.26,7.26,0,0,1,4.06-3.55,6.85,6.85,0,0,1,1.8-.37,6.43,6.43,0,0,1,2,.21,8.72,8.72,0,0,1,3.73,2.23A16.61,16.61,0,0,1,175,44.78c.83,1.45,1.58,3,2.48,4.5a24.63,24.63,0,0,0,6.4,7.42,14,14,0,0,0,7.42,2.8,11.22,11.22,0,0,0,5.3-.86A18,18,0,0,0,198.33,57.69Z" style="fill:#455a64"></path><path d="M199.47,52.18a1.92,1.92,0,0,1-.45.32,9.43,9.43,0,0,1-1.33.67,11.49,11.49,0,0,1-2.1.69,13.88,13.88,0,0,1-2.7.36,14.63,14.63,0,0,1-2.71-.18,12.91,12.91,0,0,1-2.14-.56,9.54,9.54,0,0,1-1.38-.59c-.31-.16-.47-.26-.46-.28s.71.31,1.9.68a14.63,14.63,0,0,0,7.43.31,14.29,14.29,0,0,0,2.09-.62C198.78,52.54,199.45,52.14,199.47,52.18Z" style="fill:#455a64"></path><path d="M189.23,70.27c-.25.26-1.69-.91-3.79-1s-3.67,1-3.89.71.15-.59.84-1.07a5.33,5.33,0,0,1,3.12-.88,5.07,5.07,0,0,1,3,1.1C189.15,69.68,189.35,70.16,189.23,70.27Z" style="fill:#263238"></path><path d="M188.79,76.21A1.71,1.71,0,0,1,187,77.8a1.62,1.62,0,0,1-1.63-1.66,1.7,1.7,0,0,1,1.75-1.59A1.63,1.63,0,0,1,188.79,76.21Z" style="fill:#263238"></path><path d="M182.59,448.42v27.19l55.94-.27c-.41-5.51-31.11-16.51-31.11-16.51l.61-10.41Z" style="fill:#455a64"></path><g style="opacity:0.6000000000000001"><path d="M191.63,456.37a2.37,2.37,0,0,0-1.53,2.71,2.17,2.17,0,0,0,2.58,1.6,2.49,2.49,0,0,0,1.61-2.88c-.39-1.09-1.89-1.92-2.86-1.36" style="fill:#fff"></path></g><path d="M182.59,475.61v-4.35l53.4.62s2.79,1.64,2.54,3.46Z" style="fill:#263238"></path><path d="M207.42,459.35c0,.29-1.36.43-2.69,1.36s-2,2.12-2.27,2,.13-1.75,1.75-2.84S207.47,459.09,207.42,459.35Z" style="fill:#263238"></path><path d="M214.75,461.87c.06.27-1.11.77-2,2s-1.16,2.47-1.43,2.46-.46-1.6.69-3.08S214.74,461.6,214.75,461.87Z" style="fill:#263238"></path><path d="M218,468.8c-.24.06-.64-1.34,0-2.9s1.94-2.19,2.06-1.95-.66,1.07-1.19,2.35S218.31,468.77,218,468.8Z" style="fill:#263238"></path><path d="M206.87,451.62c-.11.26-1.36-.11-2.89,0s-2.73.65-2.87.41,1-1.26,2.8-1.39S207,451.4,206.87,451.62Z" style="fill:#263238"></path><path d="M207.18,460.57a3.62,3.62,0,0,0,.12-1.66,9.08,9.08,0,0,0-1.48-4.29,8.31,8.31,0,0,0-2.19-2.25,1.89,1.89,0,0,0-1.88-.33,2.1,2.1,0,0,0-1.11,1.79,7.23,7.23,0,0,0,4.92,6.36,7.09,7.09,0,0,0,7.56-2.2,5.2,5.2,0,0,0,1-1.67,1.84,1.84,0,0,0,0-1.09,1.32,1.32,0,0,0-.76-.79,2.44,2.44,0,0,0-1.75.17,11.59,11.59,0,0,0-4.5,3.83,4.19,4.19,0,0,0-.77,1.46,16,16,0,0,1,4.26-4.06c.75-.42,1.73-1,2.52-.76.35.14.49.54.32,1a4.28,4.28,0,0,1-.88,1.38,6.44,6.44,0,0,1-6.76,1.93,6.54,6.54,0,0,1-4.43-5.53,1.35,1.35,0,0,1,.66-1.18,1.29,1.29,0,0,1,1.24.25,8.2,8.2,0,0,1,2.09,2,9.62,9.62,0,0,1,1.63,4C207.15,460,207.12,460.57,207.18,460.57Z" style="fill:#263238"></path><polygon points="156.59 449.8 156.59 458.58 155.96 474.36 134.99 474.86 134.24 458.58 134.85 448.66 156.59 449.8" style="fill:#455a64"></polygon><path d="M145.59,473.17c-.13,0,.18-4.82.68-10.78s1-10.8,1.13-10.8-.17,4.82-.67,10.78S145.72,473.16,145.59,473.17Z" style="fill:#263238"></path><polygon points="156.04 471.73 134.85 471.97 134.85 474.86 156.06 474.83 156.04 471.73" style="fill:#263238"></polygon><path d="M134.91,462.66a2.89,2.89,0,0,1,.53-.83,14.94,14.94,0,0,1,5.26-4.19A11.34,11.34,0,0,1,153.77,460a9.56,9.56,0,0,1,1.54,2.23,3,3,0,0,1,.33.93,22.75,22.75,0,0,0-2.2-2.86,11.26,11.26,0,0,0-7.86-3.16,13,13,0,0,0-8,3.05C135.85,461.6,135,462.73,134.91,462.66Z" style="fill:#263238"></path><path d="M203.81,244.71l-2.45-3.83L123,244.57s-1.5,24.34-.41,33.26c.35,2.86,2,13.94,2,13.94l1.94,85.87c.73,6.82,2.58,78.5,2.58,78.5h31.06l6.34-114.9c.67-12.79.18-32.17.83-46.32L178,338.26l7.94,26.67s-1.71,13.23-3.59,29c-2.63,22.06-2.54,61.24-2.54,61.24l31.88.51s4.43-40.7,7.9-64.46l3-28.37c0-4.74-2.06-16.35-2.43-18.25Z" style="fill:#263238"></path><path d="M174.24,297.51a8.64,8.64,0,0,1-1.43-.49,13.69,13.69,0,0,1-1.63-.69c-.62-.31-1.36-.62-2.1-1.08s-1.59-.9-2.43-1.49-1.73-1.24-2.65-1.95a36.74,36.74,0,0,1-9.43-11.59c-.5-1.05-1-2-1.36-3a26.7,26.7,0,0,1-1-2.69c-.29-.83-.44-1.61-.61-2.28a14.29,14.29,0,0,1-.33-1.74,7.61,7.61,0,0,1-.16-1.51c.12,0,.39,2.12,1.49,5.4a26.4,26.4,0,0,0,1,2.64c.36.94.88,1.9,1.38,2.92a38.21,38.21,0,0,0,9.31,11.43c.89.71,1.72,1.4,2.57,2s1.63,1.09,2.36,1.54C172.26,296.66,174.29,297.39,174.24,297.51Z" style="fill:#455a64"></path><path d="M204.51,263.38a7.22,7.22,0,0,1-2.71.08,15.79,15.79,0,0,1-6.23-2,15.51,15.51,0,0,1-4.87-4.38,7,7,0,0,1-1.26-2.39c.09,0,.56.86,1.59,2.14a17.45,17.45,0,0,0,10.82,6.24C203.47,263.31,204.5,263.28,204.51,263.38Z" style="fill:#455a64"></path><path d="M104.17,174.6l18,6.67-1.6-55.65s-4.37,4.73-5,6.63S104.17,174.6,104.17,174.6Z" style="fill:#455a64"></path><path d="M203.38,221.52l-1.72-24.12.51-32.46-8-48.08-16-2.92-.72-1.88-31-1.21s-10.2,5.93-13.17,7.6c-12.88,7.27-12.88,7.27-14.09,10.58s4.78,76.82,4.78,76.82l-4.35,47.62,1,4.72,88.47-1.42S204.07,225.07,203.38,221.52Z" style="fill:#455a64"></path><path d="M118.92,135.69a4.92,4.92,0,0,1,.08.79c0,.58.07,1.33.13,2.28.1,2,.25,4.87.43,8.36.38,7.06,1,16.8,1.92,27.55s1.72,20.44,2.32,27.54c.27,3.48.49,6.32.65,8.35.06.95.11,1.7.15,2.27a4.86,4.86,0,0,1,0,.8,4.22,4.22,0,0,1-.12-.79c-.06-.57-.15-1.32-.25-2.26-.2-2-.48-4.86-.82-8.34-.67-7-1.59-16.76-2.48-27.52s-1.48-20.51-1.76-27.58c-.15-3.54-.24-6.4-.26-8.37q0-1.43,0-2.28A4.15,4.15,0,0,1,118.92,135.69Z" style="fill:#263238"></path><g style="opacity:0.30000000000000004"><path d="M175.68,143.87c.86.61,4.15,12.19,8.18,21.17s18,21.47,18,21.47l.29-5.8-7.75-10.87-3.46,1.92Z"></path></g><g style="opacity:0.30000000000000004"><path d="M121.82,182.07c-4.61-11.39-5.16-25-2.55-37Z"></path></g><path d="M264,201.4s6.72.32,10,.74a24.86,24.86,0,0,0,4.36.24s3.61.86,5.69-.63a8.23,8.23,0,0,0,1.82-1.9,4,4,0,0,0-.24-5l-.17-.2c1.59-1.41,1.09-4.47.19-4.85a31,31,0,0,0,.57-3.12c0-2-2-2.26-3.73-3.08s-4.47-3.75-6.92-2.53c-1.37.67-8.86,5.42-10.22,7.56l-7.4-.67v12.54Z" style="fill:#ffbf9d"></path><path d="M229,175.1s-11-11.29-16.24-26.36L189.68,163s20.16,30,26.37,34.31S264,201.4,264,201.4c2.79-.74,3-12.11,3-12.11Z" style="fill:#ffbf9d"></path><path d="M190.91,171.76l30.56-17s-24.26-36.33-27.31-37.92c0,0-11.65-3.54-13.82,5.27s-4.66,21.74-4.66,21.74C175.61,144.11,190.91,171.76,190.91,171.76Z" style="fill:#455a64"></path><path d="M188.85,168a2.9,2.9,0,0,1-.37-.59c-.25-.44-.56-1-1-1.71-.83-1.56-2-3.72-3.42-6.37l-5-9.47c-.93-1.79-1.92-3.67-2.94-5.61a21.48,21.48,0,0,1-2-6.53,21.84,21.84,0,0,1,.13-6.86,21.47,21.47,0,0,1,2.12-6,26.09,26.09,0,0,1,3.31-4.73,10.66,10.66,0,0,1,4.1-2.93,12.61,12.61,0,0,1,4.08-.78,24.48,24.48,0,0,1,3.12.1c.85.08,1.51.17,2,.23a4.75,4.75,0,0,1,.68.13,3.28,3.28,0,0,1-.69,0l-2-.13a28.43,28.43,0,0,0-3.09,0,13,13,0,0,0-4,.83c-2.85,1.07-5.19,4.08-7.11,7.55a20.87,20.87,0,0,0-2,5.88,21.61,21.61,0,0,0-.12,6.68,21.27,21.27,0,0,0,2,6.37c1,1.95,2,3.83,2.9,5.62,1.85,3.57,3.51,6.8,4.92,9.53l3.27,6.44c.36.73.64,1.31.87,1.76A4.3,4.3,0,0,1,188.85,168Z" style="fill:#263238"></path></g></svg>