<svg xmlns="http://www.w3.org/2000/svg" viewBox="0 0 500 500"><g id="freepik--Floor--inject-706"><g id="freepik--floor--inject-706"><ellipse id="freepik--Grass--inject-706" cx="257.68" cy="345.53" rx="234.21" ry="135.22" style="fill:#BA68C8"></ellipse><ellipse id="freepik--grass--inject-706" cx="257.68" cy="345.53" rx="234.21" ry="135.22" style="fill:#fff;opacity:0.30000000000000004"></ellipse><path d="M423.29,249.92q-8.32-4.81-17.27-9L76.42,431.18q7.32,5.16,15.64,10c45.78,26.43,105.79,39.63,165.78,39.61L491.89,345.61C491.92,311,469.06,276.34,423.29,249.92Z" style="fill:#fff;opacity:0.9"></path></g></g><g id="freepik--Shadows--inject-706"><ellipse id="freepik--Shadow--inject-706" cx="89.96" cy="388.42" rx="27.64" ry="15.31" style="opacity:0.1"></ellipse><ellipse id="freepik--shadow--inject-706" cx="68.4" cy="305.43" rx="24.79" ry="14.32" style="opacity:0.1"></ellipse><path d="M476.41,326.66a16.88,16.88,0,0,0-10.66-3.2,33.39,33.39,0,0,0-11,2.42c-12.54,4.68-23.49,13.07-36.23,17.17-6.37,2.05-13.05,3-19.4,5.08-5.41,1.78-10.74,4.61-14.31,9a15.19,15.19,0,0,0-6.72-1.36,28.19,28.19,0,0,0-9.2,2c-10.46,3.91-19.59,10.91-30.22,14.32-5.3,1.71-10.88,2.49-16.17,4.24S312,381,309.13,385.81c-1.35,2.29-2.05,5.33-.57,7.54,1.09,1.63,3.08,2.39,5,2.87,7.7,2,15.92,1,23.45-1.47a84.23,84.23,0,0,0,18.24-9.16c4.77-3,9.1-6.82,13.89-9.87.81-.52,1.63-1,2.48-1.49l10.66-5.94.16.26c1.31,1.95,3.69,2.85,6,3.44,9.22,2.35,19.09,1.26,28.11-1.77a100.27,100.27,0,0,0,21.87-11c5.72-3.65,10.91-8.17,16.66-11.83,1-.62,2-1.22,3-1.78l18.35-10.23a6.66,6.66,0,0,0,2.28-1.75C480.2,331.44,478.55,328.31,476.41,326.66Z" style="opacity:0.1"></path><path id="freepik--shadow--inject-706" d="M303.26,289.07,165.61,368.54a5.59,5.59,0,0,1-5.07,0L118,344c-1.4-.81-1.4-2.12,0-2.92L255.69,261.6a5.59,5.59,0,0,1,5.07,0l42.5,24.54C304.66,287,304.66,288.26,303.26,289.07Z" style="opacity:0.1"></path></g><g id="freepik--Tree--inject-706"><g id="freepik--tree--inject-706"><g id="freepik--tree--inject-706"><path d="M58,183.87a9.68,9.68,0,0,1,5.23.94c3.14,1.52,5.74,3.94,8.53,6s6,4,9.46,4.09,7.25-2.06,7.88-5.49a4.92,4.92,0,0,1,.45-1.75,2.55,2.55,0,0,1,3-.77,16.83,16.83,0,0,1,2.87,1.66c3.53,2.08,8,1.61,12,1,3.37-.49,7.63-2,7.62-5.39,0-2.22-2-3.87-3.48-5.48s-2.78-4.2-1.38-5.93a4.12,4.12,0,0,1,2-1.2c4.22-1.37,9.39.46,13-2.18,2.64-2,3.26-6,1.87-8.93a11.33,11.33,0,0,0-7.6-5.79c-2.83-.72-6.43-1.05-7.49-3.78-.92-2.39.94-5,3-6.44s4.63-2.5,6.09-4.6a7.31,7.31,0,0,0,.2-7.56,9.26,9.26,0,0,0-6.35-4.36,14.22,14.22,0,0,1-3.86-.84c-1.18-.6-2.07-2.09-1.43-3.25.38-.7,1.19-1.06,1.65-1.71.89-1.25.12-3.11-1.14-4a15.59,15.59,0,0,0-4.31-1.65c-3.06-1-6-4-5.12-7.08s5.34-4.26,6.64-7.36c1.16-2.73-.67-5.93-3.13-7.6S98.68,92.12,96,90.85s-5.28-3.51-5.5-6.48,2.05-5.59,3.91-8,3.43-5.79,1.81-8.36-5-2.62-7.81-3.51a12.68,12.68,0,0,1-7.69-6.93c-.74-1.72-1.1-3.59-2-5.23C76,47.23,69,45,63.62,45.62,60.8,46,59.86,47,58.49,49.1c-.79,1.23-1.6,1.85-1.88,3.54-.41,2.47.9,5.6-1.43,7.49-3.54,2.86-9-1-8.76,5.41a27.24,27.24,0,0,0,1.19,8c1,2.69,2.89,3.85,1.29,6.87-2.08,3.9-3.44,3.88-7.6,3.87-3,0-5.53-.17-7.74,2.12-3.89,4-1.58,7.65,1.87,10.75,3.93,3.52,1.85,5.07,1.34,9.63-.25,2.2.25,2.87-1.71,4.33-3.72,2.76-5.79,1.83-4.75,7.23,1,4.93-.52,3.24-4.79,5.08-3.79,1.63-6.29,5.71-9.36,8.25-2,1.64-5,2.9-5.16,5.77-.36,5.5,6.48,4.3,9.73,5.61,5.31,2.15,3.73,9.11-.42,11.72-4.39,2.75-10.79,3.78-11.14,10.07-.27,4.83,2.47,5.9,6.22,7.51,3,1.29,2.61,1.67,2.6,5.24,0,7.2,2.42,9.24,9.52,8.06,1.94-.32,4.91-1.14,6.85-.56,2.71.82,1.8,1.49,1.87,3.76.2,5.81,7,4.17,9.83,1.68C49.36,187.64,53.51,184.31,58,183.87Z" style="fill:#BA68C8"></path><path d="M58,183.87a9.68,9.68,0,0,1,5.23.94c3.14,1.52,5.74,3.94,8.53,6s6,4,9.46,4.09,7.25-2.06,7.88-5.49a4.92,4.92,0,0,1,.45-1.75,2.55,2.55,0,0,1,3-.77,16.83,16.83,0,0,1,2.87,1.66c3.53,2.08,8,1.61,12,1,3.37-.49,7.63-2,7.62-5.39,0-2.22-2-3.87-3.48-5.48s-2.78-4.2-1.38-5.93a4.12,4.12,0,0,1,2-1.2c4.22-1.37,9.39.46,13-2.18,2.64-2,3.26-6,1.87-8.93a11.33,11.33,0,0,0-7.6-5.79c-2.83-.72-6.43-1.05-7.49-3.78-.92-2.39.94-5,3-6.44s4.63-2.5,6.09-4.6a7.31,7.31,0,0,0,.2-7.56,9.26,9.26,0,0,0-6.35-4.36,14.22,14.22,0,0,1-3.86-.84c-1.18-.6-2.07-2.09-1.43-3.25.38-.7,1.19-1.06,1.65-1.71.89-1.25.12-3.11-1.14-4a15.59,15.59,0,0,0-4.31-1.65c-3.06-1-6-4-5.12-7.08s5.34-4.26,6.64-7.36c1.16-2.73-.67-5.93-3.13-7.6S98.68,92.12,96,90.85s-5.28-3.51-5.5-6.48,2.05-5.59,3.91-8,3.43-5.79,1.81-8.36-5-2.62-7.81-3.51a12.68,12.68,0,0,1-7.69-6.93c-.74-1.72-1.1-3.59-2-5.23C76,47.23,69,45,63.62,45.62,60.8,46,59.86,47,58.49,49.1c-.79,1.23-1.6,1.85-1.88,3.54-.41,2.47.9,5.6-1.43,7.49-3.54,2.86-9-1-8.76,5.41a27.24,27.24,0,0,0,1.19,8c1,2.69,2.89,3.85,1.29,6.87-2.08,3.9-3.44,3.88-7.6,3.87-3,0-5.53-.17-7.74,2.12-3.89,4-1.58,7.65,1.87,10.75,3.93,3.52,1.85,5.07,1.34,9.63-.25,2.2.25,2.87-1.71,4.33-3.72,2.76-5.79,1.83-4.75,7.23,1,4.93-.52,3.24-4.79,5.08-3.79,1.63-6.29,5.71-9.36,8.25-2,1.64-5,2.9-5.16,5.77-.36,5.5,6.48,4.3,9.73,5.61,5.31,2.15,3.73,9.11-.42,11.72-4.39,2.75-10.79,3.78-11.14,10.07-.27,4.83,2.47,5.9,6.22,7.51,3,1.29,2.61,1.67,2.6,5.24,0,7.2,2.42,9.24,9.52,8.06,1.94-.32,4.91-1.14,6.85-.56,2.71.82,1.8,1.49,1.87,3.76.2,5.81,7,4.17,9.83,1.68C49.36,187.64,53.51,184.31,58,183.87Z" style="fill:#fff;opacity:0.1"></path><path d="M112.11,171.61c3.24-1.05,7-.23,10.24-1a38.83,38.83,0,0,0-5.74-.9,16.26,16.26,0,0,0-12.37,4.91,11.17,11.17,0,0,1,2.49,7.42c-8,2.18-16-8.6-23.62-5.32.47,3.89,0,9.12-3.77,10-2.23.5-4.47-1-5.85-2.81s-2.23-4-3.62-5.82a12.31,12.31,0,0,0-16.35-2.38c-2.08,1.51-4.68,3.79-6.75,2.28-2.23-1.61-.87-6-3.33-7.21-1.64-.82-3.93.47-5.3-.73a3.73,3.73,0,0,1-.94-2c-1-4.11-1.82-8.86.77-12.2,2.3-3,7.17-4.8,6.65-8.52-.45-3.18-4.49-4.15-7.69-4.52s-7.23-1.87-7.07-5.08,4.43-4.67,5.06-7.76c.26-1.32-.18-2.79.42-4,.91-1.81,3.51-1.88,5-3.22,2.73-2.42.61-6.94,1.38-10.5.55-2.52,2.59-4.5,3.26-7,1.36-5-3.17-9.7-7.9-11.73A29.33,29.33,0,0,1,31.72,91l-.17-.13c.11,2.25,1.78,4.34,3.88,6.22,3.93,3.52,1.85,5.07,1.34,9.63-.25,2.2.25,2.87-1.71,4.33-3.72,2.76-5.79,1.83-4.75,7.23,1,4.93-.52,3.24-4.79,5.08-3.79,1.63-6.29,5.71-9.36,8.25-2,1.64-5,2.9-5.16,5.77-.36,5.5,6.48,4.3,9.73,5.61,5.31,2.15,3.73,9.11-.42,11.72-4.39,2.75-10.79,3.78-11.14,10.07-.27,4.83,2.47,5.9,6.22,7.51,3,1.29,2.61,1.67,2.6,5.24,0,7.2,2.42,9.24,9.52,8.06,1.94-.32,4.91-1.14,6.85-.56,2.71.82,1.8,1.49,1.87,3.76.2,5.81,7,4.17,9.83,1.68,3.3-2.86,7.45-6.19,11.93-6.63a9.68,9.68,0,0,1,5.23.94c3.14,1.52,5.74,3.94,8.53,6s6,4,9.46,4.09,7.25-2.06,7.88-5.49a4.92,4.92,0,0,1,.45-1.75,2.55,2.55,0,0,1,3-.77,16.83,16.83,0,0,1,2.87,1.66c3.53,2.08,8,1.61,12,1,3.37-.49,7.63-2,7.62-5.39,0-2.22-2-3.87-3.48-5.48s-2.78-4.2-1.38-5.93A4.12,4.12,0,0,1,112.11,171.61Z" style="opacity:0.15"></path><path d="M44,116.8l21.86,43.34V140.2l2.23-51.83,3.23,51.83v13.41l24-42-24,51.56V307.41a1.36,1.36,0,0,1-.8,1.11,4.3,4.3,0,0,1-3.86,0,1.36,1.36,0,0,1-.8-1.11V171.2Z" style="fill:#455a64"></path></g></g></g><g id="freepik--Bench--inject-706"><g id="freepik--bench--inject-706"><path d="M228.59,294.33a3.09,3.09,0,0,1-1.54-.41l-33.21-19.18A11.8,11.8,0,0,1,188,264.55V226.2a3.09,3.09,0,0,1,6.17,0v38.35a5.62,5.62,0,0,0,2.8,4.85l33.21,19.18a3.08,3.08,0,0,1-1.54,5.75Z" style="fill:#263238"></path><path d="M160.79,332.61a3.11,3.11,0,0,1-1.54-.42L126,313a11.8,11.8,0,0,1-5.88-10.2V264.47a3.08,3.08,0,0,1,6.16,0v38.35a5.63,5.63,0,0,0,2.81,4.86l33.21,19.17a3.09,3.09,0,0,1-1.55,5.76Z" style="fill:#263238"></path><path d="M294.06,255.77a3.11,3.11,0,0,1-1.54-.42l-33.21-19.17a11.82,11.82,0,0,1-5.88-10.2V187.63a3.08,3.08,0,0,1,6.16,0V226a5.62,5.62,0,0,0,2.8,4.86L295.6,250a3.09,3.09,0,0,1-1.54,5.76Z" style="fill:#263238"></path><path d="M166.54,328.78v35.5a1.75,1.75,0,0,1-1,1.43,5.53,5.53,0,0,1-4.95,0,1.76,1.76,0,0,1-1-1.43v-35.5Z" style="fill:#263238"></path><path d="M137.25,312.1v35.49a1.74,1.74,0,0,1-1,1.43,5.47,5.47,0,0,1-4.95,0,1.74,1.74,0,0,1-1-1.43V312.1Z" style="fill:#263238"></path><path d="M299.69,251.91V287.4a1.74,1.74,0,0,1-1,1.43,5.49,5.49,0,0,1-5,0,1.74,1.74,0,0,1-1-1.43V251.91Z" style="fill:#263238"></path><path d="M270.4,235.22v35.49a1.72,1.72,0,0,1-1,1.43,5.47,5.47,0,0,1-4.95,0,1.73,1.73,0,0,1-1-1.43V235.22Z" style="fill:#263238"></path><path d="M113.29,273.17l-.61-.35a4,4,0,0,1-1.78-3.08v-5.53a4,4,0,0,1,1.78-3.08l146.38-84.51a3.92,3.92,0,0,1,3.56,0l.61.35a4,4,0,0,1,1.78,3.08v5.53a3.93,3.93,0,0,1-1.78,3.08L116.85,273.17A3.92,3.92,0,0,1,113.29,273.17Z" style="fill:#455a64"></path><path d="M119.24,267l-7.82-4.51a3.61,3.61,0,0,0-.52,1.75v5.53a4,4,0,0,0,1.78,3.08l.61.35a3.92,3.92,0,0,0,3.56,0l2.39-1.38Z" style="fill:#263238"></path><path d="M116.85,263.54,263.23,179c1-.57,1.78-.11,1.78,1v5.53a3.93,3.93,0,0,1-1.78,3.08L116.85,273.17c-1,.57-1.78.11-1.78-1v-5.53A3.92,3.92,0,0,1,116.85,263.54Z" style="fill:#37474f"></path><path d="M113.29,290.08l-.61-.36a4,4,0,0,1-1.78-3.08v-5.53a4,4,0,0,1,1.78-3.08l146.38-84.51a3.92,3.92,0,0,1,3.56,0l.61.35A4,4,0,0,1,265,197v5.53a3.92,3.92,0,0,1-1.78,3.08L116.85,290.08A4,4,0,0,1,113.29,290.08Z" style="fill:#455a64"></path><path d="M119.24,283.88l-7.82-4.52a3.64,3.64,0,0,0-.52,1.75v5.53a4,4,0,0,0,1.78,3.08l.61.36a4,4,0,0,0,3.56,0l2.39-1.39Z" style="fill:#263238"></path><path d="M116.85,280.44l146.38-84.51c1-.57,1.78-.11,1.78,1v5.53a3.92,3.92,0,0,1-1.78,3.08L116.85,290.08c-1,.56-1.78.1-1.78-1v-5.53A4,4,0,0,1,116.85,280.44Z" style="fill:#37474f"></path><path d="M113.29,307l-.61-.36a4,4,0,0,1-1.78-3.08V298a4,4,0,0,1,1.78-3.08l146.38-84.51a3.92,3.92,0,0,1,3.56,0l.61.35a4,4,0,0,1,1.78,3.08v5.53a3.92,3.92,0,0,1-1.78,3.08L116.85,307A4,4,0,0,1,113.29,307Z" style="fill:#455a64"></path><path d="M119.24,300.78l-7.82-4.52a3.64,3.64,0,0,0-.52,1.75v5.53a4,4,0,0,0,1.78,3.08l.61.36a4,4,0,0,0,3.56,0l2.39-1.39Z" style="fill:#263238"></path><path d="M116.85,297.34l146.38-84.51c1-.57,1.78-.11,1.78,1v5.53a3.92,3.92,0,0,1-1.78,3.08L116.85,307c-1,.56-1.78.1-1.78-1v-5.53A4,4,0,0,1,116.85,297.34Z" style="fill:#37474f"></path><path d="M119.24,317.21v.71A4,4,0,0,0,121,321l4.79,2.76a3.92,3.92,0,0,0,3.56,0l146.38-84.51a4,4,0,0,0,1.78-3.08v-.71a4,4,0,0,0-1.78-3.08L271,229.61a4,4,0,0,0-3.56,0L121,314.13A3.92,3.92,0,0,0,119.24,317.21Z" style="fill:#37474f"></path><path d="M127.59,315.15v9a3.58,3.58,0,0,1-1.78-.43L121,321a4,4,0,0,1-1.78-3.08v-.71a3.92,3.92,0,0,1,1.78-3.08l2.4-1.39Z" style="fill:#263238"></path><path d="M129.37,319l146.38-84.52a1.08,1.08,0,0,0,0-2.05L271,229.61a4,4,0,0,0-3.56,0L121,314.13a1.08,1.08,0,0,0,0,2.05l4.79,2.77A4,4,0,0,0,129.37,319Z" style="fill:#455a64"></path><path d="M133.85,325.64v.71a4,4,0,0,0,1.78,3.08l4.79,2.77a4,4,0,0,0,3.56,0l146.38-84.52a3.91,3.91,0,0,0,1.77-3.08v-.71a3.94,3.94,0,0,0-1.77-3.08l-4.79-2.76a3.92,3.92,0,0,0-3.56,0L135.63,322.56A4,4,0,0,0,133.85,325.64Z" style="fill:#37474f"></path><path d="M142.2,323.59v9a3.66,3.66,0,0,1-1.78-.42l-4.79-2.77a4,4,0,0,1-1.78-3.08v-.71a4,4,0,0,1,1.78-3.08l2.39-1.38Z" style="fill:#263238"></path><path d="M144,327.38l146.38-84.51a1.09,1.09,0,0,0,0-2.06l-4.79-2.76a3.92,3.92,0,0,0-3.56,0L135.63,322.56a1.08,1.08,0,0,0,0,2.05l4.79,2.77A4,4,0,0,0,144,327.38Z" style="fill:#455a64"></path><path d="M148.46,334.07v.71a3.91,3.91,0,0,0,1.77,3.08l4.79,2.77a3.92,3.92,0,0,0,3.56,0L305,256.12a4,4,0,0,0,1.78-3.09v-.71a4,4,0,0,0-1.78-3.08l-4.79-2.76a3.92,3.92,0,0,0-3.56,0L150.23,331A3.94,3.94,0,0,0,148.46,334.07Z" style="fill:#37474f"></path><path d="M156.8,332v9a3.69,3.69,0,0,1-1.78-.42l-4.79-2.77a3.91,3.91,0,0,1-1.77-3.08v-.71a3.94,3.94,0,0,1,1.77-3.08l2.4-1.38Z" style="fill:#263238"></path><path d="M158.58,335.81,305,251.3a1.09,1.09,0,0,0,0-2.06l-4.79-2.76a3.92,3.92,0,0,0-3.56,0L150.23,331a1.09,1.09,0,0,0,0,2.06l4.79,2.76A3.92,3.92,0,0,0,158.58,335.81Z" style="fill:#455a64"></path><path d="M123.24,263.15a2.54,2.54,0,0,0-1.15,2c0,.73.52,1,1.15.67a2.56,2.56,0,0,0,1.15-2C124.39,263.08,123.87,262.79,123.24,263.15Z" style="fill:#263238"></path><path d="M123.24,280a2.53,2.53,0,0,0-1.15,2c0,.73.52,1,1.15.66a2.53,2.53,0,0,0,1.15-2C124.39,280,123.87,279.65,123.24,280Z" style="fill:#263238"></path><path d="M123.24,296.88a2.54,2.54,0,0,0-1.15,2c0,.73.52,1,1.15.67a2.56,2.56,0,0,0,1.15-2C124.39,296.81,123.87,296.52,123.24,296.88Z" style="fill:#263238"></path><path d="M256.51,186.35a2.54,2.54,0,0,0-1.15,2c0,.73.51,1,1.15.66a2.55,2.55,0,0,0,1.14-2C257.65,186.28,257.14,186,256.51,186.35Z" style="fill:#263238"></path><path d="M256.51,203.22a2.5,2.5,0,0,0-1.15,2c0,.73.51,1,1.15.66a2.52,2.52,0,0,0,1.14-2C257.65,203.15,257.14,202.85,256.51,203.22Z" style="fill:#263238"></path><path d="M256.51,220.08a2.54,2.54,0,0,0-1.15,2c0,.73.51,1,1.15.66a2.55,2.55,0,0,0,1.14-2C257.65,220,257.14,219.72,256.51,220.08Z" style="fill:#263238"></path><path d="M132.74,310.79c-.55.33-.56.85,0,1.17a2.22,2.22,0,0,0,2,0c.56-.32.56-.84,0-1.17A2.22,2.22,0,0,0,132.74,310.79Z" style="fill:#263238"></path><path d="M147.39,319.3a.61.61,0,0,0,0,1.16,2.22,2.22,0,0,0,2,0,.61.61,0,0,0,0-1.16A2.16,2.16,0,0,0,147.39,319.3Z" style="fill:#263238"></path><path d="M162,327.8a.61.61,0,0,0,0,1.16,2.22,2.22,0,0,0,2,0,.61.61,0,0,0,0-1.16A2.25,2.25,0,0,0,162,327.8Z" style="fill:#263238"></path><path d="M265.89,234a.62.62,0,0,0,0,1.17,2.22,2.22,0,0,0,2,0c.56-.33.56-.85,0-1.17A2.22,2.22,0,0,0,265.89,234Z" style="fill:#263238"></path><path d="M280.54,242.46c-.56.33-.56.85,0,1.17a2.22,2.22,0,0,0,2,0c.56-.32.56-.84,0-1.17A2.22,2.22,0,0,0,280.54,242.46Z" style="fill:#263238"></path><path d="M295.18,251a.61.61,0,0,0,0,1.16,2.22,2.22,0,0,0,2,0,.61.61,0,0,0,0-1.16A2.18,2.18,0,0,0,295.18,251Z" style="fill:#263238"></path><path d="M191,224.92a2.5,2.5,0,0,0-1.15,2c0,.73.51,1,1.15.66a2.52,2.52,0,0,0,1.14-2C192.18,224.85,191.67,224.55,191,224.92Z" style="fill:#263238"></path><path d="M191,241.78a2.54,2.54,0,0,0-1.15,2c0,.73.51,1,1.15.66a2.55,2.55,0,0,0,1.14-2C192.18,241.71,191.67,241.42,191,241.78Z" style="fill:#263238"></path><path d="M191,258.65a2.5,2.5,0,0,0-1.15,2c0,.73.51,1,1.15.66a2.52,2.52,0,0,0,1.14-2C192.18,258.58,191.67,258.28,191,258.65Z" style="fill:#263238"></path><path d="M200.42,272.53a.61.61,0,0,0,0,1.16,2.22,2.22,0,0,0,2,0,.61.61,0,0,0,0-1.16A2.22,2.22,0,0,0,200.42,272.53Z" style="fill:#263238"></path><path d="M215.07,281a.61.61,0,0,0,0,1.16,2.22,2.22,0,0,0,2,0,.61.61,0,0,0,0-1.16A2.22,2.22,0,0,0,215.07,281Z" style="fill:#263238"></path><path d="M229.71,289.53a.61.61,0,0,0,0,1.16,2.22,2.22,0,0,0,2,0,.61.61,0,0,0,0-1.16A2.25,2.25,0,0,0,229.71,289.53Z" style="fill:#263238"></path></g></g><g id="freepik--trash-can--inject-706"><g id="freepik--Bin--inject-706"><g id="freepik--bin--inject-706"><path d="M110.18,386.15c0-6.28-9.05-11.37-20.23-11.37s-20.22,5.09-20.22,11.37v1.49c0,6.28,9,11.37,20.22,11.37s20.23-5.09,20.23-11.37Z" style="fill:#BA68C8"></path><path d="M110.18,386.15c0-6.28-9.05-11.37-20.23-11.37s-20.22,5.09-20.22,11.37v1.49c0,6.28,9,11.37,20.22,11.37s20.23-5.09,20.23-11.37Z" style="fill:#fff;opacity:0.6000000000000001"></path><path d="M110.18,386.15c0-6.28-9.05-11.37-20.23-11.37s-20.22,5.09-20.22,11.37v1.49c0,6.28,9,11.37,20.22,11.37s20.23-5.09,20.23-11.37Z" style="opacity:0.1"></path><ellipse cx="89.95" cy="386.15" rx="20.23" ry="11.37" style="fill:#BA68C8"></ellipse><ellipse cx="89.95" cy="386.15" rx="20.23" ry="11.37" style="fill:#fff;opacity:0.75"></ellipse><ellipse cx="89.95" cy="386.15" rx="20.23" ry="11.37" style="opacity:0.05"></ellipse><path d="M71.18,387.63a.43.43,0,0,1-.43-.37L65.47,351.2a.43.43,0,0,1,.37-.49.44.44,0,0,1,.49.36l5.27,36.06a.42.42,0,0,1-.36.49Z" style="fill:#fafafa"></path><path d="M75.43,392.13a.44.44,0,0,1-.43-.39l-3.76-36.06a.43.43,0,1,1,.85-.09l3.77,36.06a.44.44,0,0,1-.38.48Z" style="fill:#fafafa"></path><path d="M80.71,394.68a.42.42,0,0,1-.43-.4L78,358.22a.43.43,0,0,1,.4-.46.41.41,0,0,1,.46.41l2.26,36.05a.42.42,0,0,1-.4.46Z" style="fill:#fafafa"></path><path d="M86.78,396a.44.44,0,0,1-.43-.42l-.75-36.06A.42.42,0,0,1,86,359a.4.4,0,0,1,.44.42l.75,36.06a.42.42,0,0,1-.42.44Z" style="fill:#fafafa"></path><path d="M93.13,396h0a.42.42,0,0,1-.42-.44l.75-36.06a.44.44,0,0,1,.43-.42h0a.42.42,0,0,1,.42.44l-.75,36.06A.43.43,0,0,1,93.13,396Z" style="fill:#fafafa"></path><path d="M99.2,394.68h0a.42.42,0,0,1-.4-.46L101,358.17a.41.41,0,0,1,.46-.41.43.43,0,0,1,.4.46l-2.26,36.06A.42.42,0,0,1,99.2,394.68Z" style="fill:#fafafa"></path><path d="M104.48,392.13h0a.44.44,0,0,1-.38-.48l3.77-36.06a.42.42,0,0,1,.47-.38.43.43,0,0,1,.39.47l-3.77,36.06A.44.44,0,0,1,104.48,392.13Z" style="fill:#fafafa"></path><path d="M108.74,387.63h-.07a.42.42,0,0,1-.36-.49l5.27-36.06a.44.44,0,0,1,.49-.36.43.43,0,0,1,.37.49l-5.28,36.06A.43.43,0,0,1,108.74,387.63Z" style="fill:#fafafa"></path><path d="M71.18,353.39a.42.42,0,0,1-.43-.37l-2.64-19.29a.43.43,0,0,1,.37-.49.44.44,0,0,1,.49.36l2.63,19.3a.44.44,0,0,1-.36.49Z" style="fill:#fafafa"></path><path d="M75.43,357.89a.43.43,0,0,1-.43-.38l-2.6-24.87a.43.43,0,0,1,.39-.47.42.42,0,0,1,.47.38l2.6,24.87a.43.43,0,0,1-.38.47Z" style="fill:#fafafa"></path><path d="M80.71,360.45a.43.43,0,0,1-.43-.41l-1.93-30.45a.43.43,0,0,1,.41-.45.42.42,0,0,1,.46.4L81.14,360a.43.43,0,0,1-.4.46Z" style="fill:#fafafa"></path><path d="M86.78,361.72a.44.44,0,0,1-.43-.43l-.63-33.06a.44.44,0,0,1,.42-.45.4.4,0,0,1,.44.43l.63,33.06a.44.44,0,0,1-.42.45Z" style="fill:#fafafa"></path><path d="M109.24,353.39a.42.42,0,0,0,.42-.37l2.64-19.29a.43.43,0,0,0-.37-.49.44.44,0,0,0-.49.36l-2.63,19.3a.44.44,0,0,0,.36.49Z" style="fill:#fafafa"></path><path d="M105,357.89a.43.43,0,0,0,.43-.38l2.6-24.87a.43.43,0,0,0-.39-.47.42.42,0,0,0-.47.38l-2.6,24.87a.43.43,0,0,0,.38.47Z" style="fill:#fafafa"></path><path d="M99.7,360.45a.43.43,0,0,0,.43-.41l1.93-30.45a.43.43,0,0,0-.41-.45.4.4,0,0,0-.45.4L99.27,360a.43.43,0,0,0,.4.46Z" style="fill:#fafafa"></path><path d="M93.63,361.72a.43.43,0,0,0,.43-.43l.63-33.06a.44.44,0,0,0-.42-.45.4.4,0,0,0-.44.43l-.63,33.06a.44.44,0,0,0,.42.45Z" style="fill:#fafafa"></path><g id="freepik--bin--inject-706"><path d="M110,330.63c-11.06-6.39-29-6.39-40.08,0-6.38,3.69-9.08,8.7-8.1,13.5h0a10.94,10.94,0,0,0,1.69,4,19.11,19.11,0,0,0,6.4,5.69c11.07,6.38,29,6.38,40.08,0a18.82,18.82,0,0,0,6.4-5.69,10.49,10.49,0,0,0,1.71-4C119.08,339.33,116.38,334.32,110,330.63ZM73.26,351.84c-3.56-2-5.75-4.6-6.56-7.26.79-2.87,3-5.62,6.55-7.84,9.23-5.71,24.19-5.71,33.41,0,3.58,2.22,5.76,5,6.56,7.83-.82,2.66-3,5.21-6.56,7.27C97.44,357.17,82.48,357.17,73.26,351.84Z" style="fill:#BA68C8"></path><path d="M110,330.63c-11.06-6.39-29-6.39-40.08,0-6.38,3.69-9.08,8.7-8.1,13.5h0a10.94,10.94,0,0,0,1.69,4,19.11,19.11,0,0,0,6.4,5.69c11.07,6.38,29,6.38,40.08,0a18.82,18.82,0,0,0,6.4-5.69,10.49,10.49,0,0,0,1.71-4C119.08,339.33,116.38,334.32,110,330.63ZM73.26,351.84c-3.56-2-5.75-4.6-6.56-7.26.79-2.87,3-5.62,6.55-7.84,9.23-5.71,24.19-5.71,33.41,0,3.58,2.22,5.76,5,6.56,7.83-.82,2.66-3,5.21-6.56,7.27C97.44,357.17,82.48,357.17,73.26,351.84Z" style="fill:#fff;opacity:0.75"></path><path d="M116.4,348.09a19,19,0,0,1-6.4,5.68c-11.07,6.39-29,6.39-40.09,0a18.85,18.85,0,0,1-6.39-5.68,10.7,10.7,0,0,1-1.7-4h0l1.26,5c.58,3.48,3.17,6.87,7.79,9.53,10.55,6.08,27.64,6.08,38.19,0,4.56-2.63,7.15-6,7.76-9.41l.07-.44,1.22-4.68A10.86,10.86,0,0,1,116.4,348.09Z" style="fill:#BA68C8"></path><path d="M116.4,348.09a19,19,0,0,1-6.4,5.68c-11.07,6.39-29,6.39-40.09,0a18.85,18.85,0,0,1-6.39-5.68,10.7,10.7,0,0,1-1.7-4h0l1.26,5c.58,3.48,3.17,6.87,7.79,9.53,10.55,6.08,27.64,6.08,38.19,0,4.56-2.63,7.15-6,7.76-9.41l.07-.44,1.22-4.68A10.86,10.86,0,0,1,116.4,348.09Z" style="fill:#fff;opacity:0.6000000000000001"></path><path d="M113.45,343.58c-.06.33-.14.66-.23,1-.8-2.86-3-5.61-6.56-7.83-9.22-5.71-24.18-5.71-33.41,0-3.57,2.22-5.76,5-6.55,7.84a9.07,9.07,0,0,1-.24-1c-.69-3.93,1.58-8,6.8-11,9.22-5.32,24.18-5.32,33.4,0C111.88,335.58,114.14,339.65,113.45,343.58Z" style="fill:#BA68C8"></path><path d="M113.45,343.58c-.06.33-.14.66-.23,1-.8-2.86-3-5.61-6.56-7.83-9.22-5.71-24.18-5.71-33.41,0-3.57,2.22-5.76,5-6.55,7.84a9.07,9.07,0,0,1-.24-1c-.69-3.93,1.58-8,6.8-11,9.22-5.32,24.18-5.32,33.4,0C111.88,335.58,114.14,339.65,113.45,343.58Z" style="fill:#fff;opacity:0.6000000000000001"></path></g></g></g></g><g id="freepik--musical-note--inject-706"><path id="freepik--musical-note--inject-706" d="M462.47,140.41l-5,9.24a2.63,2.63,0,0,0-.73-.58,2.75,2.75,0,1,0,1.12,3.72l4.48-8.28,9.52,2.31h0L467.45,155a2.46,2.46,0,0,0-.73-.58,2.75,2.75,0,1,0,1.12,3.72h0l7.38-13.72Z" style="fill:#BA68C8"></path><path id="freepik--musical-note--inject-706" d="M441.44,115.77a5.36,5.36,0,0,1,1.65-1.55A12,12,0,0,1,445.9,113a20.58,20.58,0,0,0,3.84-1.35,5.06,5.06,0,0,0,2.63-3,5.27,5.27,0,0,1-2.2.87c-1.88.29-4.05-.63-6-.73-2.83-.16-4.85,1.11-7,3.18,1.22,2.17,2.39,4.38,3.59,6.57q1.39,2.58,2.81,5.16c.09.16,1.22,2.37,1.22,2.37a5.2,5.2,0,0,0-2.17.59,4.2,4.2,0,1,0,5.7,1.67Z" style="fill:#BA68C8"></path></g><g id="freepik--Icons--inject-706"><g id="freepik--social-icon--inject-706"><path d="M136.85,56.55,152,47.82a5.17,5.17,0,0,1,4.69,0l1.92,1.1A5.2,5.2,0,0,1,160.93,53V70.45a5.2,5.2,0,0,1-2.34,4.07l-15.13,8.73a5.19,5.19,0,0,1-4.7,0l-1.91-1.1a5.21,5.21,0,0,1-2.35-4.07V60.62A5.21,5.21,0,0,1,136.85,56.55Z" style="fill:#BA68C8"></path><path d="M136.85,56.55,152,47.82a5.17,5.17,0,0,1,4.69,0l1.92,1.1A5.2,5.2,0,0,1,160.93,53V70.45a5.2,5.2,0,0,1-2.34,4.07l-15.13,8.73a5.19,5.19,0,0,1-4.7,0l-1.91-1.1a5.21,5.21,0,0,1-2.35-4.07V60.62A5.21,5.21,0,0,1,136.85,56.55Z" style="fill:#fff;opacity:0.7000000000000001"></path><path d="M143.46,60.36l15.13-8.73c1.29-.75,2.34-.14,2.34,1.36V70.45a5.2,5.2,0,0,1-2.34,4.07l-15.13,8.73c-1.3.75-2.35.14-2.35-1.35V64.43A5.19,5.19,0,0,1,143.46,60.36Z" style="fill:#BA68C8"></path><path d="M143.46,60.36l15.13-8.73c1.29-.75,2.34-.14,2.34,1.36V70.45a5.2,5.2,0,0,1-2.34,4.07l-15.13,8.73c-1.3.75-2.35.14-2.35-1.35V64.43A5.19,5.19,0,0,1,143.46,60.36Z" style="fill:#fff;opacity:0.55"></path><path d="M134.5,78.08a5.21,5.21,0,0,0,2.35,4.07l1.91,1.1a5.23,5.23,0,0,0,4.3.19c-1.11.42-1.95-.2-1.95-1.54V64.43a4.71,4.71,0,0,1,.69-2.31l-6.61-3.82a4.89,4.89,0,0,0-.69,2.32Z" style="fill:#BA68C8"></path><path d="M134.5,78.08a5.21,5.21,0,0,0,2.35,4.07l1.91,1.1a5.23,5.23,0,0,0,4.3.19c-1.11.42-1.95-.2-1.95-1.54V64.43a4.71,4.71,0,0,1,.69-2.31l-6.61-3.82a4.89,4.89,0,0,0-.69,2.32Z" style="fill:#fff;opacity:0.4"></path><path d="M154.7,68.45a17.18,17.18,0,0,0,1.51-7.18,12.92,12.92,0,0,0,1.24-2.43A8.48,8.48,0,0,1,156,60.18a6.67,6.67,0,0,0,1.09-2.46,9.7,9.7,0,0,1-1.58,1.72,1.49,1.49,0,0,0-1.81,0,5.87,5.87,0,0,0-2.43,5.47c-2.06,1-3.9.79-5.12-.51-.65,1.87-.34,3.64.77,4a1.82,1.82,0,0,1-1.13.24c0,1.55.8,2.51,2,2.14a3,3,0,0,1-1.13.7,1.47,1.47,0,0,0,2.33,1,8.65,8.65,0,0,1-3.68,3.49,5,5,0,0,0,3.81-.71,14.34,14.34,0,0,0,5.55-6.76" style="fill:#fff"></path></g><g id="freepik--social-icon--inject-706"><path d="M136.85,96.15,152,87.41a5.23,5.23,0,0,1,4.69,0l1.92,1.11a5.2,5.2,0,0,1,2.34,4.06v17.47a5.2,5.2,0,0,1-2.34,4.07l-15.13,8.73a5.19,5.19,0,0,1-4.7,0l-1.91-1.1a5.21,5.21,0,0,1-2.35-4.07V100.21A5.21,5.21,0,0,1,136.85,96.15Z" style="fill:#BA68C8"></path><path d="M136.85,96.15,152,87.41a5.23,5.23,0,0,1,4.69,0l1.92,1.11a5.2,5.2,0,0,1,2.34,4.06v17.47a5.2,5.2,0,0,1-2.34,4.07l-15.13,8.73a5.19,5.19,0,0,1-4.7,0l-1.91-1.1a5.21,5.21,0,0,1-2.35-4.07V100.21A5.21,5.21,0,0,1,136.85,96.15Z" style="fill:#fff;opacity:0.7000000000000001"></path><path d="M160.93,92.58c0-1.49-1.05-2.1-2.34-1.35L143.46,100a5.19,5.19,0,0,0-2.35,4.07V121.5c0,1.49,1,2.1,2.35,1.35l15.13-8.73a5.2,5.2,0,0,0,2.34-4.07Z" style="fill:#BA68C8"></path><path d="M160.93,92.58c0-1.49-1.05-2.1-2.34-1.35L143.46,100a5.19,5.19,0,0,0-2.35,4.07V121.5c0,1.49,1,2.1,2.35,1.35l15.13-8.73a5.2,5.2,0,0,0,2.34-4.07Z" style="fill:#fff;opacity:0.55"></path><path d="M134.5,117.68a5.21,5.21,0,0,0,2.35,4.07l1.91,1.1a5.23,5.23,0,0,0,4.3.19c-1.11.42-1.95-.21-1.95-1.54V104a4.71,4.71,0,0,1,.69-2.31l-6.61-3.82a4.88,4.88,0,0,0-.69,2.31Z" style="fill:#BA68C8"></path><path d="M134.5,117.68a5.21,5.21,0,0,0,2.35,4.07l1.91,1.1a5.23,5.23,0,0,0,4.3.19c-1.11.42-1.95-.21-1.95-1.54V104a4.71,4.71,0,0,1,.69-2.31l-6.61-3.82a4.88,4.88,0,0,0-.69,2.31Z" style="fill:#fff;opacity:0.4"></path><path d="M148.75,116.69l2.53-1.46V106.8l1.76-1,.19-2.93L151.28,104v-1.6c0-.67.1-1,.58-1.27l1.37-.79V97.4l-1.75,1a5.14,5.14,0,0,0-2.73,4.79v2.25l-1.31.76v2.85l1.31-.75Z" style="fill:#fff"></path></g><g id="freepik--social-icon--inject-706"><path d="M136.85,135.75,152,127a5.17,5.17,0,0,1,4.69,0l1.92,1.11a5.19,5.19,0,0,1,2.34,4.06v17.47a5.2,5.2,0,0,1-2.34,4.07l-15.13,8.73a5.19,5.19,0,0,1-4.7,0l-1.91-1.11a5.18,5.18,0,0,1-2.35-4.06V139.81A5.18,5.18,0,0,1,136.85,135.75Z" style="fill:#BA68C8"></path><path d="M136.85,135.75,152,127a5.17,5.17,0,0,1,4.69,0l1.92,1.11a5.19,5.19,0,0,1,2.34,4.06v17.47a5.2,5.2,0,0,1-2.34,4.07l-15.13,8.73a5.19,5.19,0,0,1-4.7,0l-1.91-1.11a5.18,5.18,0,0,1-2.35-4.06V139.81A5.18,5.18,0,0,1,136.85,135.75Z" style="fill:#fff;opacity:0.7000000000000001"></path><path d="M160.93,132.18c0-1.49-1.05-2.1-2.34-1.35l-15.13,8.73a5.19,5.19,0,0,0-2.35,4.07v17.46c0,1.5,1,2.11,2.35,1.36l15.13-8.73a5.2,5.2,0,0,0,2.34-4.07Z" style="fill:#BA68C8"></path><path d="M160.93,132.18c0-1.49-1.05-2.1-2.34-1.35l-15.13,8.73a5.19,5.19,0,0,0-2.35,4.07v17.46c0,1.5,1,2.11,2.35,1.36l15.13-8.73a5.2,5.2,0,0,0,2.34-4.07Z" style="fill:#fff;opacity:0.55"></path><path d="M134.5,157.28a5.18,5.18,0,0,0,2.35,4.06l1.91,1.11a5.31,5.31,0,0,0,4.3.19c-1.11.42-1.95-.21-1.95-1.55V143.63a4.78,4.78,0,0,1,.69-2.32l-6.61-3.81a4.82,4.82,0,0,0-.69,2.31Z" style="fill:#BA68C8"></path><path d="M134.5,157.28a5.18,5.18,0,0,0,2.35,4.06l1.91,1.11a5.31,5.31,0,0,0,4.3.19c-1.11.42-1.95-.21-1.95-1.55V143.63a4.78,4.78,0,0,1,.69-2.32l-6.61-3.81a4.82,4.82,0,0,0-.69,2.31Z" style="fill:#fff;opacity:0.4"></path><path d="M151.39,140.21c1.55-.89,1.74-1,2.35-1.31a2.55,2.55,0,0,1,1.07-.35.92.92,0,0,1,.67.19,1.26,1.26,0,0,1,.43.64,4.07,4.07,0,0,1,.2,1.32c0,.8,0,1,0,3.1s0,2.32,0,3.15a6.67,6.67,0,0,1-.2,1.55,4.77,4.77,0,0,1-.43,1.14,4.45,4.45,0,0,1-.67,1,5.09,5.09,0,0,1-1.07.89c-.61.39-.8.5-2.35,1.39s-1.73,1-2.34,1.31a2.62,2.62,0,0,1-1.07.36.91.91,0,0,1-.67-.2,1.19,1.19,0,0,1-.43-.63,4.13,4.13,0,0,1-.2-1.32c0-.8,0-1,0-3.11s0-2.31,0-3.14a6.67,6.67,0,0,1,.2-1.55,4.77,4.77,0,0,1,.43-1.14,3.74,3.74,0,0,1,.67-1,4.8,4.8,0,0,1,1.07-.89c.61-.39.8-.51,2.34-1.4m0-1.39c-1.57.91-1.77,1-2.39,1.42a6.88,6.88,0,0,0-1.4,1.18,6.42,6.42,0,0,0-1,1.48,7.81,7.81,0,0,0-.67,1.76,9.61,9.61,0,0,0-.27,2c0,.84,0,1.11,0,3.2s0,2.36,0,3.17a5.8,5.8,0,0,0,.27,1.72,2.06,2.06,0,0,0,.67,1,1.43,1.43,0,0,0,1,.29,3.35,3.35,0,0,0,1.4-.45c.62-.32.82-.42,2.39-1.33s1.78-1,2.39-1.43a6.69,6.69,0,0,0,2.44-2.66,7.74,7.74,0,0,0,.67-1.75,9.61,9.61,0,0,0,.27-2c0-.84,0-1.11,0-3.21s0-2.36,0-3.17a5.86,5.86,0,0,0-.27-1.72,2,2,0,0,0-.67-1,1.49,1.49,0,0,0-1-.3,3.59,3.59,0,0,0-1.41.45c-.61.32-.81.43-2.39,1.34" style="fill:#fff"></path><path d="M151.39,142.58a7.13,7.13,0,0,0-3,5.69c0,2.19,1.33,3.2,3,2.25a7.12,7.12,0,0,0,3-5.69c0-2.19-1.33-3.2-3-2.25m0,6.54c-1.06.62-1.93,0-1.93-1.46a4.65,4.65,0,0,1,1.93-3.69c1.07-.61,1.94,0,1.94,1.46a4.6,4.6,0,0,1-1.94,3.69" style="fill:#fff"></path><path d="M153.88,141.09c0,.51.31.75.7.53a1.68,1.68,0,0,0,.69-1.33c0-.51-.31-.75-.69-.53a1.66,1.66,0,0,0-.7,1.33" style="fill:#fff"></path></g></g><g id="freepik--Screens--inject-706"><g id="freepik--speech-bubble--inject-706"><g id="freepik--speech-bubble--inject-706"><path d="M186,162.12V67.72a2.36,2.36,0,0,1,1.07-1.85l54.72-31.6c.6-.34,1.08-.06,1.08.62v94.4a2.35,2.35,0,0,1-1.08,1.86l-54.72,31.59C186.52,163.08,186,162.81,186,162.12Z" style="fill:#fafafa"></path><path d="M242.37,35.12h0m-.46.27v93.9a1.37,1.37,0,0,1-.58,1L187,161.62V67.72a1.41,1.41,0,0,1,.57-1l54.3-31.34m.4-1.26a1,1,0,0,0-.48.14l-54.72,31.6A2.36,2.36,0,0,0,186,67.72v94.4c0,.49.24.77.6.77a1,1,0,0,0,.47-.15l54.72-31.59a2.35,2.35,0,0,0,1.08-1.86V34.89c0-.48-.25-.76-.6-.76Z" style="fill:#ebebeb"></path><path d="M242.89,34.7c-.08-.54-.52-.73-1.06-.43l-54.71,31.6a2.1,2.1,0,0,0-.76.8l-6-3.41a2.08,2.08,0,0,1,.74-.76l54.72-31.59a2.37,2.37,0,0,1,2.14,0l3.84,2.15A2.32,2.32,0,0,1,242.89,34.7Z" style="fill:#f0f0f0"></path><path d="M187.11,162.74a2.48,2.48,0,0,1-2.16,0l-3.82-2.18a2.34,2.34,0,0,1-1.08-1.84V64.36a2.22,2.22,0,0,1,.35-1.1l6,3.41a2.1,2.1,0,0,0-.32,1v94.4C186,162.75,186.48,163.11,187.11,162.74Z" style="fill:#e0e0e0"></path></g><polygon points="191.87 69.75 236.56 43.95 236.56 76.79 191.87 102.59 191.87 69.75" style="fill:#fff"></polygon><path d="M191.87,103.09a.59.59,0,0,1-.25-.07.52.52,0,0,1-.25-.43V69.75a.5.5,0,0,1,.25-.43l44.69-25.8a.5.5,0,0,1,.5,0,.52.52,0,0,1,.25.43V76.79a.5.5,0,0,1-.25.43L192.12,103A.52.52,0,0,1,191.87,103.09Zm.5-33v31.68L236.06,76.5V44.82Z" style="fill:#ebebeb"></path><path d="M197.2,82.55a1.34,1.34,0,0,1,0,1.08c-.67,2-2.21,7.45,1.52,8.61,3.52,1.1,6.25-3.64,7.3-5.85a3.64,3.64,0,0,1,1.35-1.58l6.84-4,6.85-3.95a1.09,1.09,0,0,1,1.34,0c1.06,1,3.79,2.59,7.3-2.57,3.74-5.47,2.2-9.2,1.53-10.37a1.34,1.34,0,0,1,0-1.08c.67-1.95,2.21-7.45-1.53-8.61-3.51-1.1-6.24,3.64-7.3,5.85a3.62,3.62,0,0,1-1.34,1.58l-6.85,4-6.84,4a1.1,1.1,0,0,1-1.35,0c-1.05-1-3.78-2.58-7.3,2.57C195,77.65,196.53,81.39,197.2,82.55Z" style="fill:#BA68C8"></path><text transform="matrix(0.75, -0.43, 0, 1, 202.91, 82.67)" style="font-size:10.814780235290527px;fill:#fafafa;font-family:Baloo">WOOF</text><path d="M197.2,82.55a1.34,1.34,0,0,1,0,1.08c-.67,2-2.21,7.45,1.52,8.61,3.52,1.1,6.25-3.64,7.3-5.85a3.64,3.64,0,0,1,1.35-1.58l6.84-4,6.85-3.95a1.09,1.09,0,0,1,1.34,0c1.06,1,3.79,2.59,7.3-2.57a13.9,13.9,0,0,0,2.17-4.69c-1,2.5-2.87,5.08-5.45,5.52s-2.57-2.79-3.94-2l-15.86,9.16c-1.79,1-4,7.66-6.86,6.39-2.18-1,.27-6.4-.83-7.69-1.7-2-2.24-4.68-.21-8.86C195,77.65,196.53,81.39,197.2,82.55Z" style="opacity:0.15"></path><text transform="matrix(0.65, -0.38, 0, 1, 192.79, 114.65)" style="font-size:9.903510093688965px;fill:#455a64;font-family:Rubik-Regular, Rubik">Squee<tspan x="28.99" y="0" style="letter-spacing:-0.006968278520829067em">z</tspan><tspan x="33.98" y="0" style="letter-spacing:0.00013147695322318992em">e Bone</tspan></text><text transform="matrix(0.65, -0.38, 0, 1, 192.36, 128.9)" style="font-size:10.804300308227539px;fill:#455a64;font-family:Rubik-Bold, Rubik;font-weight:700">$2.30 USD</text><path d="M200.52,132.92l27.9-16.11c2.4-1.38,4.33-.26,4.33,2.5v4.07a9.55,9.55,0,0,1-4.33,7.5L200.53,147c-2.4,1.38-4.33.26-4.33-2.5v-4.07A9.58,9.58,0,0,1,200.52,132.92Z" style="fill:#BA68C8"></path><text transform="matrix(0.65, -0.38, 0, 1, 199.37, 143.81)" style="font-size:10.804300308227539px;fill:#fafafa;font-family:Rubik-Bold, Rubik;font-weight:700">Bu<tspan x="14.54" y="0" style="letter-spacing:-0.026031301609214477em">y</tspan><tspan x="21.02" y="0"></tspan><tspan x="23.32" y="0" style="letter-spacing:-0.004941126694341636em">N</tspan><tspan x="31.11" y="0" style="letter-spacing:-0.01795677749894888em">o</tspan><tspan x="37.57" y="0" style="letter-spacing:-0.02301841947851836em">w</tspan></text></g><g id="freepik--speech-bubble--inject-706"><g id="freepik--speech-bubble--inject-706"><path d="M267.15,162.12V67.72a2.36,2.36,0,0,1,1.07-1.85l54.72-31.6c.59-.34,1.07-.06,1.07.62v94.4a2.37,2.37,0,0,1-1.07,1.86l-54.72,31.59C267.63,163.08,267.15,162.81,267.15,162.12Z" style="fill:#fafafa"></path><path d="M323.48,35.12h0m-.47.27v93.9a1.36,1.36,0,0,1-.57,1l-54.29,31.34V67.72a1.41,1.41,0,0,1,.57-1L323,35.39m.41-1.26a1,1,0,0,0-.48.14l-54.72,31.6a2.36,2.36,0,0,0-1.07,1.85v94.4c0,.49.24.77.59.77a1,1,0,0,0,.48-.15l54.72-31.59a2.37,2.37,0,0,0,1.07-1.86V34.89c0-.48-.24-.76-.59-.76Z" style="fill:#ebebeb"></path><path d="M268.22,162.74a2.48,2.48,0,0,1-2.16,0l-3.82-2.18a2.34,2.34,0,0,1-1.08-1.84V64.36a2.31,2.31,0,0,1,.34-1.1l6,3.41a2.1,2.1,0,0,0-.32,1v94.4C267.15,162.75,267.59,163.11,268.22,162.74Z" style="fill:#e0e0e0"></path><path d="M324,34.7c-.09-.54-.53-.73-1.06-.43l-54.72,31.6a2.15,2.15,0,0,0-.75.8l-6-3.41a2.08,2.08,0,0,1,.74-.76L317,30.91a2.37,2.37,0,0,1,2.14,0l3.84,2.15A2.38,2.38,0,0,1,324,34.7Z" style="fill:#f0f0f0"></path></g><text transform="matrix(0.65, -0.38, 0, 1, 285.92, 90.66)" style="font-size:12.690690040588379px;fill:#455a64;font-family:Rubik-Medium, Rubik;font-weight:500">2036</text><text transform="matrix(0.65, -0.38, 0, 1, 288.31, 112.65)" style="font-size:8.254759788513184px;fill:#455a64;font-family:Rubik-Light, Rubik;font-weight:300"><tspan style="letter-spacing:-0.007886863862139468em">S</tspan><tspan x="4.93" y="0">TEPS</tspan></text><path d="M295.58,61.48c-8.93,5.16-16.18,17.71-16.18,28s7.25,14.5,16.18,9.34,16.18-17.71,16.18-28S304.52,56.33,295.58,61.48Zm-1.5,34.77a11.91,11.91,0,0,1-5.73,1.81c-5.52,0-6-6.55-6-8.55,0-9.19,6.72-20.83,14.68-25.43a11.89,11.89,0,0,1,5.73-1.8,5,5,0,0,1,4.12,1.9,10.64,10.64,0,0,1,1.83,6.65C308.76,80,302,91.66,294.08,96.25Z" style="fill:#e0e0e0"></path><path d="M297.08,64.08a11.89,11.89,0,0,1,5.73-1.8,5,5,0,0,1,4.12,1.9,10.64,10.64,0,0,1,1.83,6.65c0,9.18-6.72,20.83-14.68,25.42a11.91,11.91,0,0,1-5.73,1.81c-3.47,0-4.93-2.6-5.53-5l-2.38,2.39c2.29,5.78,8.2,7.43,15.14,3.42,8.94-5.16,16.18-17.71,16.18-28s-7.24-14.5-16.18-9.35V65Q296.33,64.51,297.08,64.08Z" style="fill:#BA68C8"></path><path d="M292.64,119.53h0v0c-1-.86-2.72-.77-4.27,0-2.11,1.07-3.86,3.39-5.17,7.29-1.3-2.4-3.05-2.47-5.16-1.1a9.91,9.91,0,0,0-3.57,4.29v0h0a12.77,12.77,0,0,0-1.34,5.39c0,4.14,1.7,6.12,3.91,7.6a13.63,13.63,0,0,0,4.35,1.9l2.18.51,2.17-3a68.81,68.81,0,0,0,4.35-6.93c2.21-4,3.92-8,3.91-12.11A5.14,5.14,0,0,0,292.64,119.53Z" style="fill:#BA68C8"></path><path d="M292.41,130.67l-4.24,2.44-1.56-5.72a.4.4,0,0,0-.78,0l-2.45,11.2L281.31,133a.4.4,0,0,0-.39-.27.42.42,0,0,0-.37.29l-1.39,4.95-4.66,2.69a6.35,6.35,0,0,0,.49.64l4.71-2.71a.45.45,0,0,0,.19-.24l1.1-3.91,2.1,5.77a.41.41,0,0,0,.78-.05l2.39-10.95,1.27,4.65a.38.38,0,0,0,.23.26.41.41,0,0,0,.36,0l3.76-2.17C292.06,131.49,292.25,131.08,292.41,130.67Z" style="fill:#fff"></path><path d="M298.57,113.9l14.08-8.13c.6-.35,1.08-.1,1.08.55a2.32,2.32,0,0,1-1.08,1.8l-14.08,8.13c-.6.34-1.08.1-1.08-.55A2.32,2.32,0,0,1,298.57,113.9Z" style="fill:#e0e0e0"></path><path d="M297.49,119.47a.26.26,0,0,1-.22-.13.25.25,0,0,1,.09-.34l20.31-11.73a.24.24,0,0,1,.34.1.25.25,0,0,1-.09.34l-20.31,11.72A.19.19,0,0,1,297.49,119.47Z" style="fill:#e0e0e0"></path><path d="M297.49,121.81a.25.25,0,0,1-.22-.12.24.24,0,0,1,.09-.34l20.31-11.73a.25.25,0,0,1,.25.43l-20.31,11.73Z" style="fill:#e0e0e0"></path><g id="freepik--Chart--inject-706"><path d="M297.9,138.73a.48.48,0,0,1-.24-.06.59.59,0,0,1-.26-.55V124.69a1.61,1.61,0,0,1,.74-1.29l18.91-10.92a.62.62,0,0,1,.61,0,.6.6,0,0,1,.26.55v13.44a1.66,1.66,0,0,1-.74,1.29l-18.91,10.91A.68.68,0,0,1,297.9,138.73Zm.37-15.11a1.37,1.37,0,0,0-.62,1.07v13.43a.36.36,0,0,0,.14.33.35.35,0,0,0,.35,0l18.91-10.92a1.38,1.38,0,0,0,.62-1.07V113a.29.29,0,0,0-.49-.28Z" style="opacity:0.15"></path><path d="M316.67,121.49l-1.06-1c-.38-.37-1-.19-1.46.47l0,0c-.52.7-1.15.86-1.53.4l-.45-.54c-.46-.56-1.26-.19-1.8.82l-.39.73c-.39.74-.94,1.16-1.39,1.07h0c-.54-.1-1.18.49-1.56,1.42l-.61,1.48c-.33.83-.9,1.4-1.4,1.42l-.54,0a1.33,1.33,0,0,0-.93.59l-.57.71c-.57.7-1.22.78-1.57.21l0-.05c-.51-.84-1.6-.22-2.11,1.21l-.64,1.77v3.49l18.07-10.43Z" style="fill:#BA68C8;opacity:0.30000000000000004"></path><path d="M298.6,132.33h0a.07.07,0,0,1,0-.09l.64-1.78c.33-.91.93-1.57,1.49-1.62a.75.75,0,0,1,.74.41l0,0a.67.67,0,0,0,.51.35,1.23,1.23,0,0,0,.94-.56l.58-.72a1.39,1.39,0,0,1,1-.61l.54,0c.48,0,1-.58,1.35-1.39l.61-1.48c.39-1,1.06-1.56,1.63-1.46s.95-.32,1.32-1l.39-.73a1.9,1.9,0,0,1,1.26-1.12.7.7,0,0,1,.65.28l.45.55a.61.61,0,0,0,.47.23h0a1.38,1.38,0,0,0,.95-.63l0,0a1.52,1.52,0,0,1,1-.69.74.74,0,0,1,.56.21l1,1a.06.06,0,0,1-.09.09l-1.05-1a.58.58,0,0,0-.46-.17,1.39,1.39,0,0,0-.91.63l0,0a1.47,1.47,0,0,1-1.05.69.72.72,0,0,1-.59-.29l-.45-.54a.6.6,0,0,0-.53-.23,1.77,1.77,0,0,0-1.16,1l-.39.73c-.4.76-1,1.2-1.47,1.11s-1.12.49-1.48,1.37l-.6,1.48c-.36.87-.93,1.45-1.47,1.47l-.54,0a1.32,1.32,0,0,0-.88.56l-.57.71a1.33,1.33,0,0,1-1.06.61.78.78,0,0,1-.62-.41l0,0a.63.63,0,0,0-.61-.35c-.51.05-1.06.67-1.37,1.54l-.64,1.78A.08.08,0,0,1,298.6,132.33Z" style="fill:#455a64"></path><path d="M315,126.39a.07.07,0,0,1-.07-.07v-.41a.07.07,0,0,1,.14,0v.41A.07.07,0,0,1,315,126.39Zm0-.82a.07.07,0,0,1-.07-.07v-.41a.07.07,0,0,1,.14,0v.41A.07.07,0,0,1,315,125.57Zm0-.82a.07.07,0,0,1-.07-.07v-.41a.07.07,0,0,1,.14,0v.41A.07.07,0,0,1,315,124.75Zm0-.82a.07.07,0,0,1-.07-.07v-.41a.07.07,0,0,1,.14,0v.41A.07.07,0,0,1,315,123.93Zm0-.83a.07.07,0,0,1-.07-.06v-.41a.07.07,0,0,1,.14,0V123A.07.07,0,0,1,315,123.1Zm0-.82a.07.07,0,0,1-.07-.07v-.41a.07.07,0,0,1,.14,0v.41A.07.07,0,0,1,315,122.28Zm0-.82a.07.07,0,0,1-.07-.07V121a.07.07,0,0,1,.14,0v.41A.07.07,0,0,1,315,121.46Zm0-.82a.07.07,0,0,1-.07-.07v-.25a.07.07,0,0,1,.14,0v.25A.07.07,0,0,1,315,120.64Z" style="fill:#BA68C8"></path><path d="M307.63,130.63a.07.07,0,0,1-.06-.07v-.41a.07.07,0,0,1,.06-.07.07.07,0,0,1,.07.07v.41A.07.07,0,0,1,307.63,130.63Zm0-.82s-.06,0-.06-.07v-.41a.07.07,0,0,1,.06-.07.07.07,0,0,1,.07.07v.41A.08.08,0,0,1,307.63,129.81Zm0-.83a.07.07,0,0,1-.06-.07v-.41a.06.06,0,0,1,.06-.06.07.07,0,0,1,.07.06v.41A.07.07,0,0,1,307.63,129Zm0-.82a.07.07,0,0,1-.06-.07v-.41a.07.07,0,0,1,.06-.07.07.07,0,0,1,.07.07v.41A.07.07,0,0,1,307.63,128.16Zm0-.82a.07.07,0,0,1-.06-.07v-.41a.07.07,0,0,1,.06-.07.07.07,0,0,1,.07.07v.41A.07.07,0,0,1,307.63,127.34Zm0-.82a.07.07,0,0,1-.06-.07V126a.07.07,0,0,1,.06-.07.07.07,0,0,1,.07.07v.41A.07.07,0,0,1,307.63,126.52Zm0-.83a.06.06,0,0,1-.06-.06v-.41a.07.07,0,0,1,.06-.07.07.07,0,0,1,.07.07v.41A.07.07,0,0,1,307.63,125.69Zm0-.82a.07.07,0,0,1-.06-.07v-.41s0-.07.06-.07a.08.08,0,0,1,.07.07v.41A.07.07,0,0,1,307.63,124.87Zm0-.82a.07.07,0,0,1-.06-.07v-.11a.07.07,0,0,1,.06-.07.07.07,0,0,1,.07.07V124A.07.07,0,0,1,307.63,124.05Z" style="fill:#BA68C8"></path><path d="M304,132.74a.07.07,0,0,1-.07-.06v-.42a.07.07,0,0,1,.14,0v.42A.07.07,0,0,1,304,132.74Zm0-.82a.07.07,0,0,1-.07-.07v-.41a.07.07,0,0,1,.14,0v.41A.07.07,0,0,1,304,131.92Zm0-.82a.07.07,0,0,1-.07-.07v-.41a.07.07,0,0,1,.14,0V131A.07.07,0,0,1,304,131.1Zm0-.82a.07.07,0,0,1-.07-.07v-.41a.07.07,0,1,1,.14,0v.41A.07.07,0,0,1,304,130.28Zm0-.82a.07.07,0,0,1-.07-.07V129a.07.07,0,0,1,.14,0v.41A.07.07,0,0,1,304,129.46Zm0-.83a.07.07,0,0,1-.07-.06v-.42a.07.07,0,0,1,.14,0v.42A.07.07,0,0,1,304,128.63Z" style="fill:#BA68C8"></path><path d="M300.3,134.86a.07.07,0,0,1-.07-.07v-.41a.07.07,0,0,1,.14,0v.41A.07.07,0,0,1,300.3,134.86Zm0-.82a.07.07,0,0,1-.07-.07v-.41a.07.07,0,0,1,.14,0V134A.07.07,0,0,1,300.3,134Zm0-.82a.07.07,0,0,1-.07-.07v-.41a.07.07,0,0,1,.14,0v.41A.07.07,0,0,1,300.3,133.22Zm0-.82a.08.08,0,0,1-.07-.07v-.41a.07.07,0,0,1,.14,0v.41A.08.08,0,0,1,300.3,132.4Zm0-.83a.07.07,0,0,1-.07-.07v-.41a.07.07,0,0,1,.14,0v.41A.07.07,0,0,1,300.3,131.57Zm0-.82a.07.07,0,0,1-.07-.07v-.41a.07.07,0,0,1,.14,0v.41A.07.07,0,0,1,300.3,130.75Zm0-.82a.07.07,0,0,1-.07-.07v-.41a.07.07,0,0,1,.14,0v.41A.07.07,0,0,1,300.3,129.93Zm0-.83s-.07,0-.07-.06h0a.07.07,0,1,1,.07.07Z" style="fill:#BA68C8"></path><path d="M311.3,128.51a.07.07,0,0,1-.07-.07V128a.07.07,0,0,1,.14,0v.41A.07.07,0,0,1,311.3,128.51Zm0-.82a.07.07,0,0,1-.07-.07v-.41a.07.07,0,0,1,.14,0v.41A.07.07,0,0,1,311.3,127.69Zm0-.82a.07.07,0,0,1-.07-.07v-.41a.07.07,0,0,1,.14,0v.41A.07.07,0,0,1,311.3,126.87Zm0-.83a.07.07,0,0,1-.07-.06v-.42a.07.07,0,0,1,.14,0V126A.07.07,0,0,1,311.3,126Zm0-.82a.07.07,0,0,1-.07-.07v-.41a.07.07,0,0,1,.14,0v.41A.07.07,0,0,1,311.3,125.22Zm0-.82a.07.07,0,0,1-.07-.07v-.41a.07.07,0,0,1,.14,0v.41A.07.07,0,0,1,311.3,124.4Zm0-.82a.07.07,0,0,1-.07-.07v-.41a.07.07,0,0,1,.14,0v.41A.07.07,0,0,1,311.3,123.58Zm0-.82a.07.07,0,0,1-.07-.07v-.41a.07.07,0,0,1,.14,0v.41A.07.07,0,0,1,311.3,122.76Zm0-.83a.07.07,0,0,1-.07-.07v-.41a.07.07,0,0,1,.14,0v.41A.07.07,0,0,1,311.3,121.93Zm0-.82a.07.07,0,0,1-.07-.07v-.4a.07.07,0,0,1,.14,0v.4A.07.07,0,0,1,311.3,121.11Z" style="fill:#BA68C8"></path><path d="M315.13,120.22c0-.14-.07-.21-.16-.16a.44.44,0,0,0-.17.35c0,.14.08.21.17.16A.43.43,0,0,0,315.13,120.22Z" style="fill:#e0e0e0"></path><path d="M311.47,120.54c0-.14-.08-.21-.17-.16a.46.46,0,0,0-.17.35c0,.15.08.22.17.16A.44.44,0,0,0,311.47,120.54Z" style="fill:#e0e0e0"></path><path d="M307.8,123.77c0-.14-.07-.21-.17-.16a.45.45,0,0,0-.16.35c0,.15.07.22.16.16A.41.41,0,0,0,307.8,123.77Z" style="fill:#e0e0e0"></path><path d="M304.13,127.89c0-.14-.07-.21-.16-.16a.44.44,0,0,0-.17.35c0,.14.08.21.17.16A.43.43,0,0,0,304.13,127.89Z" style="fill:#e0e0e0"></path><path d="M300.47,128.94c0-.15-.08-.22-.17-.16a.44.44,0,0,0-.17.35c0,.14.08.21.17.16A.46.46,0,0,0,300.47,128.94Z" style="fill:#e0e0e0"></path></g></g></g><g id="freepik--speech-bubbles--inject-706"><g id="freepik--Notification--inject-706"><g id="freepik--message-icon--inject-706"><path d="M438.45,91.56l-3.65-2.11a.31.31,0,0,1-.17-.15L434,88.13l2.17-1.26-.06.2Z" style="fill:#e0e0e0"></path><path d="M423.31,86.49a3.94,3.94,0,0,0,1.77,3.06l1.44.83a4,4,0,0,0,3.23.15c-.83.31-1.47-.16-1.47-1.17V56.61a3.61,3.61,0,0,1,.52-1.74l-5-2.87a3.61,3.61,0,0,0-.52,1.74Z" style="fill:#e0e0e0"></path><path d="M465.71,34.46c-.2-.75-.88-1-1.7-.52l-34,19.61a3.52,3.52,0,0,0-1.24,1.32,3.62,3.62,0,0,0-.53,1.74V89.36c0,1,.61,1.46,1.41,1.19l.06,0a1.77,1.77,0,0,0,.31-.15l5.73-3.32,2.53,4.37a.38.38,0,0,0,.68-.06l2.67-7.71,22.5-13a2.73,2.73,0,0,0,1.6-2.94V35A2.2,2.2,0,0,0,465.71,34.46Z" style="fill:#fafafa"></path><path d="M464.74,34.71a1.07,1.07,0,0,1,0,.25V67.71c0,1,0,1.45-1.11,2.07l-22.49,13a.94.94,0,0,0-.44.54l-2.23,6.42-1.84-3.19a1,1,0,0,0-.61-.47,1.09,1.09,0,0,0-.26,0,1,1,0,0,0-.5.13l-5.75,3.33-.14.07h-.08a.67.67,0,0,1,0-.25V56.61a2.71,2.71,0,0,1,.4-1.26,2.57,2.57,0,0,1,.87-.94L464.5,34.8a.82.82,0,0,1,.24-.09m.06-1a1.52,1.52,0,0,0-.79.24l-34,19.61a3.52,3.52,0,0,0-1.24,1.32,3.62,3.62,0,0,0-.53,1.74V89.36c0,.8.4,1.26,1,1.26a1.42,1.42,0,0,0,.43-.07l.06,0a1.77,1.77,0,0,0,.31-.15l5.73-3.32,2.53,4.37a.36.36,0,0,0,.32.19.38.38,0,0,0,.36-.25l2.67-7.71,22.5-13a2.73,2.73,0,0,0,1.6-2.94V35a2.2,2.2,0,0,0-.06-.5.93.93,0,0,0-.91-.76Z" style="fill:#ebebeb"></path><path d="M465.71,34.46c-.21-.75-.89-1-1.71-.52L430.05,53.55a3.44,3.44,0,0,0-1.24,1.32l-5-2.87a3.6,3.6,0,0,1,1.24-1.32L459,31.07a3.92,3.92,0,0,1,3.53,0l1.44.83A3.87,3.87,0,0,1,465.71,34.46Z" style="fill:#f0f0f0"></path><path d="M431.79,58.8a1.22,1.22,0,0,1,.54-.95l28.06-16.19a1.17,1.17,0,0,1,1.09,0l.62.36a1.21,1.21,0,0,1,.55.95v21.5a1.23,1.23,0,0,1-.55,1L434.05,81.61a1.19,1.19,0,0,1-1.1,0l-.62-.35a1.22,1.22,0,0,1-.54-1Z" style="fill:#BA68C8"></path><path d="M431.79,58.8a1.22,1.22,0,0,1,.54-.95l28.06-16.19a1.17,1.17,0,0,1,1.09,0l.62.36a1.21,1.21,0,0,1,.55.95v21.5a1.23,1.23,0,0,1-.55,1L434.05,81.61a1.19,1.19,0,0,1-1.1,0l-.62-.35a1.22,1.22,0,0,1-.54-1Z" style="fill:#fff;opacity:0.24"></path><path d="M434.36,59.66,432,58.26a1.15,1.15,0,0,0-.16.54V80.31a1.22,1.22,0,0,0,.54,1l.62.35a1.19,1.19,0,0,0,1.1,0l.31-.17Z" style="fill:#BA68C8"></path><path d="M434.36,59.66,432,58.26a1.15,1.15,0,0,0-.16.54V80.31a1.22,1.22,0,0,0,.54,1l.62.35a1.19,1.19,0,0,0,1.1,0l.31-.17Z" style="opacity:0.30000000000000004"></path><path d="M462.65,43v21.5a1,1,0,0,1-.17.55,1.13,1.13,0,0,1-.32.36l0,0,0,0L434.05,81.61h0a.39.39,0,0,1-.38,0,.39.39,0,0,1-.17-.36V59.79a.48.48,0,0,1,.62-.48l11.79,2.8,1.55.37a1,1,0,0,0,1-.37l1.79-2.49,12-16.77C462.48,42.56,462.65,42.62,462.65,43Z" style="fill:#BA68C8"></path><path d="M462.1,65.42l0,0,0,0a1.25,1.25,0,0,0,.49-.9l-12.42-4.86,8.32,7.85Z" style="fill:#BA68C8"></path><path d="M462.1,65.42l0,0,0,0a1.25,1.25,0,0,0,.49-.9V64l-12.42-4.35,8.32,7.85Z" style="opacity:0.2"></path><path d="M433.5,81.3a.39.39,0,0,0,.17.36.39.39,0,0,0,.38,0h0L443.71,76l2.2-13.93L433.5,80.94Z" style="fill:#BA68C8"></path><path d="M433.5,81.3a.39.39,0,0,0,.17.36.39.39,0,0,0,.38,0h0L443.71,76l2.2-13.93L433.5,79.62Z" style="opacity:0.2"></path><path d="M462.48,65a1.13,1.13,0,0,1-.32.36l0,0L434.05,81.61h0a.39.39,0,0,1-.38,0l13.44-21.45a2.11,2.11,0,0,1,2.64-.81Z" style="fill:#BA68C8"></path><path d="M433.73,59.28l12.76,5.64a2.11,2.11,0,0,0,2.62-.81l13.4-21.45Z" style="opacity:0.30000000000000004"></path><path d="M433.73,59.28l12.85,4.8a2.08,2.08,0,0,0,2.48-.81l13.45-20.61Z" style="fill:#BA68C8"></path></g><g id="freepik--notification--inject-706"><path d="M470.66,33.39l-2.22-1.29h0a3.78,3.78,0,0,0-3.76.39,11.81,11.81,0,0,0-5.36,9.27,3.76,3.76,0,0,0,1.57,3.46h0l2,1.16.47-.79a5.43,5.43,0,0,0,1.54-.6,11.81,11.81,0,0,0,5.35-9.27,5.77,5.77,0,0,0-.17-1.37Z" style="fill:#37474f"></path><path d="M459.51,40a8.65,8.65,0,0,0-.21,1.8,3.76,3.76,0,0,0,1.57,3.46h0l2,1.16.47-.79a5.43,5.43,0,0,0,1.54-.6,8.59,8.59,0,0,0,1.46-1.08Z" style="fill:#263238"></path><path d="M466.76,33.69A11.85,11.85,0,0,0,461.41,43c0,3.41,2.4,4.8,5.35,3.09a11.84,11.84,0,0,0,5.36-9.27C472.12,33.37,469.72,32,466.76,33.69Z" style="fill:#455a64"></path><path d="M468.88,38.44V37.13c0-1.49-.91-2.18-2-1.53h0a4.83,4.83,0,0,0-2,3.88v1.17a4.6,4.6,0,0,1-.68,2.29h0a1.33,1.33,0,0,0-.17.6h0c0,.38.23.55.51.39l4.75-2.74a1.23,1.23,0,0,0,.51-1h0a.47.47,0,0,0-.15-.39h0A1.38,1.38,0,0,1,468.88,38.44Z" style="fill:#fff"></path><path d="M467.82,42.4a2.38,2.38,0,0,1-1,1.87c-.54.31-1,0-1-.74Z" style="fill:#fff"></path></g></g><g id="freepik--speech-bubble--inject-706"><g id="freepik--speech-bubble--inject-706"><path d="M378.41,139.35l-12.36,7.16L371,157.56a1.09,1.09,0,0,0,.47.52c.59.33,4.06,2.34,4.25,2.46a1.14,1.14,0,0,0,1.66-.67l5.33-18.06Z" style="fill:#e0e0e0"></path><path d="M405.11,34.7c-.09-.54-.53-.73-1.06-.43l-54.72,31.6a2.17,2.17,0,0,0-.76.8l-6-3.41a2.14,2.14,0,0,1,.73-.76l54.72-31.59a2.39,2.39,0,0,1,2.15,0L404,33.05A2.36,2.36,0,0,1,405.11,34.7Z" style="fill:#f0f0f0"></path><path d="M404.05,34.27l-54.72,31.6a2.36,2.36,0,0,0-1.07,1.85v94.4c0,.69.48,1,1.07.62l21.56-12.45,4.33,9.72a1.13,1.13,0,0,0,2.12-.14l4.73-16,22-12.69a2.37,2.37,0,0,0,1.07-1.86V34.89C405.12,34.21,404.64,33.93,404.05,34.27Z" style="fill:#fafafa"></path><path d="M404.59,35.12h0m-.47.27v93.9a1.39,1.39,0,0,1-.57,1l-22,12.69a1.06,1.06,0,0,0-.46.58l-4.73,16a.12.12,0,0,1-.13.1.11.11,0,0,1-.12-.08l-4.33-9.72a1,1,0,0,0-.6-.55,1.12,1.12,0,0,0-.31-.05,1,1,0,0,0-.5.14l-21.13,12.19V67.72a1.41,1.41,0,0,1,.57-1l54.29-31.34m.41-1.26a.93.93,0,0,0-.48.14l-54.72,31.6a2.36,2.36,0,0,0-1.07,1.85v94.4c0,.49.24.77.59.77a1,1,0,0,0,.48-.15l21.56-12.45,4.33,9.72a1.1,1.1,0,0,0,1,.68,1.13,1.13,0,0,0,1.09-.82l4.73-16,22-12.69a2.37,2.37,0,0,0,1.07-1.86V34.89c0-.48-.24-.76-.59-.76Z" style="fill:#ebebeb"></path><path d="M349.33,162.74a2.5,2.5,0,0,1-2.17,0l-3.81-2.18a2.31,2.31,0,0,1-1.08-1.84V64.36a2.21,2.21,0,0,1,.34-1.1l6,3.41a2.19,2.19,0,0,0-.31,1v94.4C348.26,162.75,348.7,163.11,349.33,162.74Z" style="fill:#e0e0e0"></path></g><path d="M400.61,119.69v9.14l-4.85,2.8-1.83,1.06c-3.47-4.85-6.38-9.11-6.38-9.11a88,88,0,0,1-2.63-8.74v0a52.51,52.51,0,0,1-1.26-6.87h0a12.88,12.88,0,0,1,7.44,0,12.57,12.57,0,0,1,5.67,5.37C397.59,114.64,399,117,400.61,119.69Z" style="fill:#BA68C8"></path><path d="M400.61,119.69v9.14l-4.85,2.8-1.83,1.06c-3.47-4.85-6.38-9.11-6.38-9.11a88,88,0,0,1-2.63-8.74v0a52.51,52.51,0,0,1-1.26-6.87h0a12.88,12.88,0,0,1,7.44,0,12.57,12.57,0,0,1,5.67,5.37C397.59,114.64,399,117,400.61,119.69Z" style="opacity:0.30000000000000004"></path><path d="M395.76,131.63l-1.83,1.06L360.3,152.1l-1.31.76-.07-2.37,1.11-17.6c0-3.35,1.71-16.48,1.77-16.9h0l5-2,3-1.2,1-.39.4-.16,8.36-3.34c.55-.19,1.08-.35,1.59-.49h0c.17-.06.36-.09.52-.13a12.39,12.39,0,0,1,2-.32h0c6.21-.48,9.51,4.18,11.05,11.63A108.53,108.53,0,0,1,395.76,131.63Z" style="fill:#37474f"></path><path d="M363.79,137.5s-1.81,7-3.49,14.6l-1.31.76-6.62,3.82V124.24a20.07,20.07,0,0,1,1.44-3c1.92-3.28,4.87-4.11,8-5.22h0C364.62,118.1,365.79,128.16,363.79,137.5Z" style="fill:#BA68C8"></path><path d="M363.79,137.5s-1.81,7-3.49,14.6l-1.31.76-6.62,3.82V124.24a20.07,20.07,0,0,1,1.44-3c1.92-3.28,4.87-4.11,8-5.22h0C364.62,118.1,365.79,128.16,363.79,137.5Z" style="opacity:0.30000000000000004"></path><path d="M367.7,77a6.89,6.89,0,0,0-3.9,3.63c-.91,2.32-.58,7.47.63,12.94a50.37,50.37,0,0,0,3.07,10.13,3,3,0,0,0,2.18,1.63l-.15-6.72L369.32,94s2.61-4.58,2.9-8c.37-4.4-.42-6-.42-6Z" style="fill:#263238"></path><path d="M367,77.94l-4-1.41c.57-1.48,1.93-2.37,3-2S367.6,76.46,367,77.94Z" style="fill:#263238"></path><path d="M372.3,82.71c0,7,4.92,11.7,10.94,10.62s10.88-7.6,10.86-14.55-4.92-11.7-10.93-10.61S372.28,75.76,372.3,82.71Z" style="fill:#263238"></path><path d="M369.48,93.18c-1,1.15-1.78-1.25-2.61-2.09s-3.51-1.72-4.84,1.78,1.23,7.63,3.24,8.35c2.94,1.06,4.26-2.61,4.26-2.61l.32,15.15c2.86,4.5,9.66,5.44,12.92,3.9,3.57-1.69,1.38-4.43-1.06-6.46l0-4.62a20,20,0,0,0,4.92-.59c2.67-1,4.07-3.54,4.88-7,1.29-5.62,1.81-14.76,0-24.89-3-2.15-13.4.12-19.69,5.84C372.26,89.1,370.46,92,369.48,93.18Z" style="fill:#ffa8a7"></path><path d="M393,66.4c-.08-.17-.22-.31-.39-.28a.74.74,0,0,0-.37.25,22.17,22.17,0,0,1-2.38,2.27,11.59,11.59,0,0,0,0-3.76c-.12-.74-.31-2.48-1.12-2.52-.49,0-.91.52-1.28,1-3.27,4.12-7.55,3.24-11.49,4.08-3.3.7-7.28,3-8.77,6.92-.69,1.82-.8,3.62.54,4.56a7.37,7.37,0,0,0,4,1c6.57.16,16,1.62,20.85-6.31a7,7,0,0,0,1-3.89,7.94,7.94,0,0,0-.66-3.27Z" style="fill:#263238"></path><path d="M381.68,106.58s-6-.31-8.08-1.22a5.78,5.78,0,0,1-2.9-2.78,9.75,9.75,0,0,0,1.66,3.6c1.53,2,9.33,2.24,9.33,2.24Z" style="fill:#f28f8f"></path><path d="M380.13,89.64a1.66,1.66,0,0,1-1.19,1.65c-.66.11-1.2-.44-1.21-1.23a1.67,1.67,0,0,1,1.2-1.65C379.59,88.29,380.13,88.84,380.13,89.64Z" style="fill:#263238"></path><path d="M378.85,84.64l-2.56,2.1a2.15,2.15,0,0,1,.59-2.47A1.22,1.22,0,0,1,378.85,84.64Z" style="fill:#263238"></path><path d="M379.92,97.51l4.95,1.25c-.48,1.73-2,2.85-3.36,2.5S379.43,99.24,379.92,97.51Z" style="fill:#b16668"></path><path d="M380.77,99.2a2.55,2.55,0,0,0-.92.18,2.37,2.37,0,0,0,1.66,1.88,2.31,2.31,0,0,0,1.71-.28A2.6,2.6,0,0,0,380.77,99.2Z" style="fill:#f28f8f"></path><path d="M390.31,83.73,388,82.07a1.43,1.43,0,0,1,2-.73A1.86,1.86,0,0,1,390.31,83.73Z" style="fill:#263238"></path><path d="M389.6,87.53a1.63,1.63,0,0,1-1.19,1.65c-.66.12-1.2-.43-1.2-1.22a1.64,1.64,0,0,1,1.19-1.65C389.06,86.19,389.6,86.74,389.6,87.53Z" style="fill:#263238"></path><polygon points="383.99 87.23 384.41 95.48 388.17 93.33 383.99 87.23" style="fill:#f28f8f"></polygon><g id="freepik--icons--inject-706"><path d="M393.07,127.94a9,9,0,0,0,4.06-7c0-2.58-1.82-3.63-4.06-2.34a9,9,0,0,0-4.05,7C389,128.19,390.84,129.24,393.07,127.94Z" style="fill:#f28f8f"></path><path d="M390.78,126.27c.13-.13.77-.76.87-.89a.48.48,0,0,0,.17-.44c0-.21,0-.75,0-.92a.51.51,0,0,1,.18-.4,4.77,4.77,0,0,1,1.12-.94,2.55,2.55,0,0,1,1-.32c.13,0,.13.13.12.27v.42a.37.37,0,0,0,0,.11,1.66,1.66,0,0,0,0,.22c0,.13.09.15.15.16s.63.11.86.15.28-.13.34-.24.12-.2.18-.32a1.34,1.34,0,0,0,.14-.59,2.07,2.07,0,0,0-.33-1.39.87.87,0,0,0-.32-.23,1.48,1.48,0,0,0-.87,0,4.62,4.62,0,0,0-2.74,1.56c-1.24,1.41-1.13,1.53-1.29,1.87a3.47,3.47,0,0,0-.24,1.62c.11.36.27.55.32.55S390.65,126.4,390.78,126.27Z" style="fill:#fff;fill-rule:evenodd"></path><path d="M382.24,134.2a9,9,0,0,0,4.05-7c0-2.59-1.81-3.63-4.05-2.34a8.94,8.94,0,0,0-4.05,7C378.19,134.44,380,135.49,382.24,134.2Z" style="fill:#fff;opacity:0.5"></path><path d="M382.28,131h0c-.54.31-1,0-1-.74V128a2.34,2.34,0,0,1,1-1.86h0c.53-.31,1,0,1,.74v2.26A2.36,2.36,0,0,1,382.28,131Z" style="fill:#fff"></path><path d="M381.81,132a1.09,1.09,0,0,1-.61-.18,1.66,1.66,0,0,1-.65-1.47.23.23,0,0,1,.46,0,1.26,1.26,0,0,0,.44,1.09.75.75,0,0,0,.73,0,3,3,0,0,0,1.43-2.85.22.22,0,0,1,.22-.23h0a.22.22,0,0,1,.22.22,3.28,3.28,0,0,1-1.69,3.27A1.24,1.24,0,0,1,381.81,132Z" style="fill:#fff"></path><path d="M381.7,133.07a.24.24,0,0,1-.2-.12.23.23,0,0,1,.08-.31l1.16-.67a.23.23,0,0,1,.31.09.22.22,0,0,1-.08.31l-1.16.67A.2.2,0,0,1,381.7,133.07Z" style="fill:#fff"></path><path d="M371.41,140.45a8.94,8.94,0,0,0,4-7c0-2.58-1.81-3.63-4-2.34a9,9,0,0,0-4.05,7C367.36,140.7,369.17,141.74,371.41,140.45Z" style="fill:#fff;opacity:0.5"></path><path d="M370.91,135.69a.68.68,0,0,1-.35-.09.86.86,0,0,1-.38-.79,2.26,2.26,0,0,1,1-1.79h0a.86.86,0,0,1,.87-.06.84.84,0,0,1,.38.78,2.24,2.24,0,0,1-1,1.79A1,1,0,0,1,370.91,135.69Z" style="fill:#fff"></path><path d="M374.82,133.28a.19.19,0,0,0-.26-.07l-.44.26v-.64a.19.19,0,0,0-.19-.19.2.2,0,0,0-.19.19v.86l-.63.36a.19.19,0,0,0-.07.26.21.21,0,0,0,.17.1.16.16,0,0,0,.09,0l.44-.25v.56a.19.19,0,0,0,.19.19.18.18,0,0,0,.19-.19v-.78l.63-.37A.18.18,0,0,0,374.82,133.28Z" style="fill:#fff"></path><path d="M372.91,136a1.34,1.34,0,0,0-1.38.11l-.57.32a3.87,3.87,0,0,0-1.76,3.06v.4a2.16,2.16,0,0,0,2.16-.22,6.32,6.32,0,0,0,2.17-2.27v-.1A1.42,1.42,0,0,0,372.91,136Z" style="fill:#fff"></path><path d="M360.58,146.71a9,9,0,0,0,4.05-7c0-2.59-1.82-3.64-4.05-2.34a9,9,0,0,0-4.06,7C356.52,147,358.34,148,360.58,146.71Z" style="fill:#fff;opacity:0.5"></path><path d="M360.58,144.82a5.37,5.37,0,0,0,2.42-4.19c0-1.55-1.09-2.17-2.42-1.4a5.34,5.34,0,0,0-2.42,4.19C358.16,145,359.24,145.59,360.58,144.82Z" style="fill:#fff"></path><path d="M360.58,73.44a9,9,0,0,0,4.05-7c0-2.58-1.82-3.63-4.05-2.34a9,9,0,0,0-4.06,7C356.52,73.69,358.34,74.74,360.58,73.44Z" style="fill:#fff"></path><path d="M360.58,66a5.34,5.34,0,0,0-2.42,4.19c0,.92.38,1.51,1,1.68l-.27,1.34,1.24-1.4a2.89,2.89,0,0,0,.48-.22A5.37,5.37,0,0,0,363,67.37C363,65.82,361.91,65.19,360.58,66Z" style="fill:#e0e0e0"></path><path d="M371.41,67.19a9,9,0,0,0,4-7c0-2.58-1.81-3.63-4-2.34a8.94,8.94,0,0,0-4.05,7C367.36,67.43,369.17,68.48,371.41,67.19Z" style="fill:#fff"></path><path d="M373.24,59.08l-.65.37v-.34c0-.21-.12-.32-.26-.24l-1.84,1.06a.67.67,0,0,0-.26.54v.34l-.65.38a1.4,1.4,0,0,0-.53,1.12v3.3c0,.45.24.68.53.51L373.24,64a1.4,1.4,0,0,0,.52-1.12V59.58C373.76,59.14,373.53,58.91,373.24,59.08Zm-2.92,4.67-.06,0a.08.08,0,0,1-.12,0,1.85,1.85,0,0,1-.12-.69,3.31,3.31,0,0,1,1.39-2.65,1.58,1.58,0,0,1,.23-.11l-.22-.15c-.06,0-.07-.15,0-.25s.11-.16.17-.13l.51.34a.16.16,0,0,1,.05.13.41.41,0,0,1-.05.18l-.47.83s0,0-.05.06a.07.07,0,0,1-.12,0,.28.28,0,0,1,0-.28l.21-.36a.86.86,0,0,0-.24.11,2.66,2.66,0,0,0-1.12,2.14,1.35,1.35,0,0,0,.1.55A.29.29,0,0,1,370.32,63.75Zm1.09.38a1.28,1.28,0,0,1-.24.11l.21.17a.25.25,0,0,1,0,.26.43.43,0,0,1-.07.1.11.11,0,0,1-.11,0l-.48-.39a.2.2,0,0,1-.05-.14.34.34,0,0,1,.05-.17l.51-.8c.06-.09.13-.1.17,0a.31.31,0,0,1,0,.29l-.22.35a.86.86,0,0,0,.24-.11,2.66,2.66,0,0,0,1.12-2.14,1.32,1.32,0,0,0-.1-.55.29.29,0,0,1,.07-.27c.07-.08.15-.09.18,0a1.85,1.85,0,0,1,.12.69A3.34,3.34,0,0,1,371.41,64.13Z" style="fill:#e0e0e0"></path></g><g id="freepik--box-character--inject-706"><path d="M395.11,43.47l-12.18,7a3.66,3.66,0,0,0-1.65,2.86V74.56c0,1,.74,1.48,1.65,1l12.18-7a3.63,3.63,0,0,0,1.65-2.86V44.42C396.76,43.37,396,42.94,395.11,43.47Z" style="fill:#BA68C8"></path><g id="freepik--Top--inject-706"><path d="M395.65,63.59a8.82,8.82,0,0,1-2.18,3.29,9,9,0,0,1-2.05,1.61,9.76,9.76,0,0,1-2,.75c-2.53.7-5.26.85-7.27-.35a3.22,3.22,0,0,1-.86-.7.35.35,0,0,1-.05-.08V64.92a.41.41,0,0,1,.05-.09,2.4,2.4,0,0,0,.27-.46,1.4,1.4,0,0,0-.12-1.17l-.2-.36V60.78a4.49,4.49,0,0,1,1-1.25,2.41,2.41,0,0,0,1-2c0-.38-.1-.74-.12-1.11a5.28,5.28,0,0,1,.51-2.37,3.46,3.46,0,0,1,1.62-1.56l7.44-1c.09.44.2.88.26,1.32a3.2,3.2,0,0,0,.91,1.62,3.22,3.22,0,0,1,.88,2c0,.81-.54,1.69-.36,2.45a4,4,0,0,0,.92,1.3A3.85,3.85,0,0,1,395.65,63.59Z" style="fill:#37474f"></path><g id="freepik--Arm--inject-706"><path d="M395.91,62a2.61,2.61,0,0,1,.85.59v3a3.63,3.63,0,0,1-1.65,2.85l-.39.23-.79-2.31-1.47-4.27A5.63,5.63,0,0,1,395.91,62Z" style="fill:#ffa8a7"></path></g><g id="freepik--Chest--inject-706"><path d="M396.76,65v.61a3.63,3.63,0,0,1-1.65,2.85l-.39.23-7.2,4.15-2.87,1.66a11.92,11.92,0,0,0-.36-1.94c-.26-.84-.54-2-.76-3.11a14.05,14.05,0,0,1-.4-2.82,4.64,4.64,0,0,1,1.29-2.33h0l2.78-1L388,63l3.31-.67,1.19-.24c.46-.1,1.78.6,3.1,1.71A13.32,13.32,0,0,1,396.76,65Z" style="fill:#BA68C8"></path></g><g id="freepik--chest--inject-706" style="opacity:0.75"><path d="M396.76,65v.61a3.63,3.63,0,0,1-1.65,2.85l-.39.23-7.2,4.15-2.87,1.66a11.92,11.92,0,0,0-.36-1.94c-.26-.84-.54-2-.76-3.11a14.05,14.05,0,0,1-.4-2.82,4.64,4.64,0,0,1,1.29-2.33h0l2.78-1L388,63l3.31-.67,1.19-.24c.46-.1,1.78.6,3.1,1.71A13.32,13.32,0,0,1,396.76,65Z" style="fill:#fff"></path></g><g id="freepik--Head--inject-706"><path d="M387.13,61.1a4,4,0,0,0-.84-1.75c-1-1.21-1.51-1.5-1.9-3.17a4.51,4.51,0,0,1,.89-3.73,5.24,5.24,0,0,1,4-3.54,8.94,8.94,0,0,1,2.76-.2c.39,0,.77.14,1.17.16a2.25,2.25,0,0,0,1.21-.24c.2-.12.45-.28.62-.17a.36.36,0,0,1,.13.32,1.71,1.71,0,0,1-.67,1.38,1,1,0,0,1,1.39,1.15,1.38,1.38,0,0,1-.62,1,1,1,0,0,1,.15,1.22,2.8,2.8,0,0,1-1,.9,24.56,24.56,0,0,0-3.14,2.74l-2.9,2.72-.95.88S387.13,61.05,387.13,61.1Z" style="fill:#37474f"></path><path d="M393,50.68c1.12.37,2.11,1,2,5.07,0,3.14-1,4.1-1.48,4.43a4.68,4.68,0,0,1-2.27.58v1.91s2.86,2.17,1.9,4.18c-4.72-.64-5.95-3.4-5.95-3.4l-.16-4.54a1.19,1.19,0,0,1-1.27.26,1.68,1.68,0,0,1-.5-2.6c.59-.74,1.53-.73,1.89-.07,0,0-.45-2.9,1.21-4.43C390.35,50.28,391.7,50.25,393,50.68Z" style="fill:#ffa8a7"></path><path d="M386.61,57.24a.59.59,0,0,1-.33.68l-.09,0c-.05,0,0,.17,0,.37l.12.35-.3.15-.37-1.13A.59.59,0,0,1,386,57,.43.43,0,0,1,386.61,57.24Z" style="fill:#fafafa"></path><path d="M391.07,58.16a.64.64,0,0,0,.63.8,1,1,0,0,0,.91-.8Z" style="fill:#b16668"></path><path d="M391.94,58.92a.54.54,0,0,0-.66-.54.74.74,0,0,0-.21.07.62.62,0,0,0,.63.51A1,1,0,0,0,391.94,58.92Z" style="fill:#f28f8f"></path><path d="M391,55.51a.52.52,0,0,1-.42.5.35.35,0,0,1-.42-.35.52.52,0,0,1,.42-.49A.34.34,0,0,1,391,55.51Z" style="fill:#263238"></path><path d="M394.14,54.76a.52.52,0,0,1-.42.49.34.34,0,0,1-.42-.34.51.51,0,0,1,.42-.5A.35.35,0,0,1,394.14,54.76Z" style="fill:#263238"></path><polygon points="392.14 54.69 392.38 57.09 393.84 56.49 392.14 54.69" style="fill:#f28f8f"></polygon><path d="M391.28,60.76c-.87,0-2.8-.12-3.63-1.47a2.62,2.62,0,0,0,.7,1.38,6.23,6.23,0,0,0,2.93.83Z" style="fill:#f28f8f"></path><path d="M390.59,54.13l-.92.87a.64.64,0,0,1,.11-.85A.55.55,0,0,1,390.59,54.13Z" style="fill:#263238"></path><path d="M394.37,53.7l-1.09-.25A.68.68,0,0,1,394,53,.53.53,0,0,1,394.37,53.7Z" style="fill:#263238"></path><path d="M392,52c-.49.17-1.07-.54-2,0s-.72,1.68-1.47,2.47c-.57.59,0,1.85-.62,2.23-.27.17-.64-.22-.64-.22a4.08,4.08,0,0,1-.4-2.54c.13-1.84,2.55-3.48,4.29-3.86s3.56.46,3.56,2.09c0,0-.43-.93-1.26-.91S392.4,51.89,392,52Z" style="fill:#37474f"></path></g></g><path d="M387,69.71l.56,3.15-2.87,1.66-1.51.87c-.38-1.4-.84-3.1-1.25-4.9a10.12,10.12,0,0,1-.25-2h0a3.91,3.91,0,0,1,2.78-4.18h0c1.91.78,2.33,4.3,2.33,4.3Z" style="fill:#ffa8a7"></path></g></g></g><g id="freepik--Character--inject-706"><g id="freepik--character--inject-706"><g id="freepik--Bottom--inject-706"><path d="M466.91,316.39a38.2,38.2,0,0,1,2.14,6.53l-3.89,4.32L463,322.12A13.38,13.38,0,0,0,466.91,316.39Z" style="fill:#37474f"></path><path d="M465.16,327.24l-4.45-.89a4.07,4.07,0,0,1,.82-2.8,5.86,5.86,0,0,1,1.5-1.43Z" style="fill:#263238"></path><path d="M465.74,314.76a3.17,3.17,0,0,1,1.17,1.63c.16.5-1.1,3.09-2.22,4.4s-2.84,2.65-3.48,4.65-.2,5.24-1.36,8-4.25,5.68-10.17,5.72c-4.24,0-5.71-1-7-2.06-.27-1.92-.16-2.39,2.32-3.67S465.74,314.76,465.74,314.76Z" style="fill:#37474f"></path><path d="M459.69,307.58a18.66,18.66,0,0,0,3.13,3.28c1.84,1.65,2.51,2.49,2.81,3.42.56,1.74-.61,4.18-3.22,7.07a9.53,9.53,0,0,0-2.81,6.33c-.41,3.61.61,5.47-4.12,8.62-3.69,2.46-11,1.73-12.68-.51-1-5.14,3.23-4.24,4.91-9.32,2.34-7,1.55-9.57,0-12.56-1.27-2.51-6.94-8.39-8.33-9.62s-2-1.85-1.13-3.4,9.73-7.45,11.48-7.81c1.17-.23,1.67.05,2.37,1.81S458.73,306.19,459.69,307.58Z" style="fill:#455a64"></path><path d="M424.71,228.31s-12,1.66-20.43.1a115.49,115.49,0,0,0-.09,18.71c1.06,16.26,6.19,25.89,9.87,31.36s25.38,24.94,25.38,24.94c3.67.06,10.5-3.94,11.5-8.49,0,0-4.08-8.13-7.12-13.47-3.42-6-7.3-9.95-13.69-15.24C429.8,265.65,424.71,228.31,424.71,228.31Z" style="fill:#BA68C8"></path><path d="M424.71,228.31s-12,1.66-20.43.1a115.49,115.49,0,0,0-.09,18.71c1.06,16.26,6.19,25.89,9.87,31.36s25.38,24.94,25.38,24.94c3.67.06,10.5-3.94,11.5-8.49,0,0-4.08-8.13-7.12-13.47-3.42-6-7.3-9.95-13.69-15.24C429.8,265.65,424.71,228.31,424.71,228.31Z" style="opacity:0.35000000000000003"></path><path d="M424.71,228.31s5.09,37.34,5.42,37.91a79.65,79.65,0,0,1,6.84,6.36l-6.63,12.19a39.27,39.27,0,0,1-.19,10.12c-6.38-6-14-13.37-16.09-16.41a53,53,0,0,1-5.11-9.56l3.77-26.81c-4.37-3.29-5-6.58-5.08-11.49l-3.35-2.08a.73.73,0,0,0,0-.13C412.74,230,424.71,228.31,424.71,228.31Z" style="opacity:0.15"></path><path d="M418.42,352.69s0,3.29-.34,5.76a41.71,41.71,0,0,1-4.07,2.46l-1.36-6.12Z" style="fill:#37474f"></path><path d="M414,360.91l-5.12-1.48s1.28-3,2.52-3.83a4.15,4.15,0,0,1,2.52-.66Z" style="fill:#263238"></path><path d="M389.14,364.83c.22,1.13.11,1.83,2.43,2.44s9.13.71,12.94-2a15.33,15.33,0,0,0,5.45-6.8c.85-1.58,1.48-2.81,4-3.54s3.82-1.4,4.49-2.25c0,0,.32-2.28-1-3.09S389.14,364.83,389.14,364.83Z" style="fill:#37474f"></path><path d="M418,351.49c-1.59,1.66-3.37,2.16-5.58,2.79-3.13.89-3.89,7-8.32,9.6-6.59,3.81-13.48,2-15,.95a3.9,3.9,0,0,1,1.1-5.84c4.14-2.75,7.41-5.87,8.82-8.1a21.6,21.6,0,0,0,2.76-8.44c.41-3.93.92-10.55,1.25-14.48.37-4.36-.45-5.39,1.36-5.85,0,0,14.51,2.42,15.08,2.61,1.69.57.63,2.36-.11,5-1.16,4.17-2.4,6.94-3,11.17a7.23,7.23,0,0,0,.8,5.21C417.93,347.64,418.7,350.08,418,351.49Z" style="fill:#455a64"></path><path d="M437.74,261.38c4-10.45,7-18.4,7.6-24.07,1-9.45-6.93-23.61-6.93-23.61s-9.4,9.16-18.07,10.21a48.16,48.16,0,0,0-16,5.24c3.7,9.16,10.74,11.37,10.74,11.37l-3.21,20.27c-2,11.67-3,16.44-5.09,36.3-1.59,15-2,23.17-2.42,27.6,0,0,5.53,3.49,14.58,2.1,1.07-4.07,2.85-9.1,4.06-12.92,4.68-14.81,5-17.69,5.47-30.22C428.46,283.65,434.22,270.52,437.74,261.38Z" style="fill:#BA68C8"></path><path d="M437.74,261.38c4-10.45,7-18.4,7.6-24.07,1-9.45-6.93-23.61-6.93-23.61s-9.4,9.16-18.07,10.21a48.16,48.16,0,0,0-16,5.24c3.7,9.16,10.74,11.37,10.74,11.37l-3.21,20.27c-2,11.67-3,16.44-5.09,36.3-1.59,15-2,23.17-2.42,27.6,0,0,5.53,3.49,14.58,2.1,1.07-4.07,2.85-9.1,4.06-12.92,4.68-14.81,5-17.69,5.47-30.22C428.46,283.65,434.22,270.52,437.74,261.38Z" style="opacity:0.25"></path></g><g id="freepik--top--inject-706"><path id="freepik--Hair--inject-706" d="M437.28,143.37a8,8,0,0,1,4.74,3.75,13.92,13.92,0,0,1,1.5,6.65c-.06,1.12-.4,2.21-.35,3.33.1,2.42.45,3.5,3,5.41,1.93,1.45,3.56,3.6,3.65,6,.07,1.75-.89,3.24-1.4,4.33a4.25,4.25,0,0,0-.38,3.48,8.66,8.66,0,0,0,.79,1.21,8.68,8.68,0,0,1,0,9.83,11.62,11.62,0,0,1-2.5,2.5c-5.9,4.54-13.88,5.51-21.29,4.76a23.62,23.62,0,0,1-5.73-1.17,20.79,20.79,0,0,1-6-3.64,20.45,20.45,0,0,1-6.38-8.53,11.74,11.74,0,0,1,.95-10.35c.94-1.4,2.29-2.62,2.67-4.26.54-2.32-1-4.62-1.05-7s1.3-4.37,2.6-6.27c1.19-1.75,2.38-3.12,2.65-5.2.17-1.34.49-2.68.75-4C415.49,144.22,437.23,143.36,437.28,143.37Z" style="fill:#37474f"></path><g id="freepik--arm--inject-706"><path d="M416.25,175.39c-8.25-.57-11,.87-14.39,6s-10.26,16.08-14.59,23.73l-16.38-3.61L375.33,214s8.6,2.94,12.82,3.64,5-.41,8-3.54c3.33-3.48,13.37-17.86,13.37-17.86Z" style="fill:#ffa8a7"></path><path d="M364.66,196.36h0l.86-.8h0a1,1,0,0,1,.92-.14l9.81,2.25a3.59,3.59,0,0,1,2.27,1.95l7.79,19.88a.91.91,0,0,1-.09,1h0l-.89.83h0a1.05,1.05,0,0,1-.93.15l-9.81-2.26a3.59,3.59,0,0,1-2.27-1.95l-7.79-19.88A.9.9,0,0,1,364.66,196.36Z" style="fill:#455a64"></path><path d="M376.46,199a3.55,3.55,0,0,1,1.18,1.43l7.79,19.88a1,1,0,0,1-.05,1l.84-.78h0a.91.91,0,0,0,.09-1l-7.79-19.88a3.42,3.42,0,0,0-1.1-1.36Z" style="fill:#263238"></path><path d="M385.43,220.32l-7.79-19.88a3.57,3.57,0,0,0-2.26-1.95l-9.82-2.25c-.91-.21-1.37.32-1,1.19l7.79,19.88a3.59,3.59,0,0,0,2.27,1.95l9.81,2.26C385.31,221.72,385.77,221.19,385.43,220.32Z" style="fill:#37474f"></path><path d="M366,201.19a4.82,4.82,0,0,0-3,4.91c.58,4.54,3.32,11.78,10.54,9,3.68-1.4,4.45-6.34,1.08-7.32-5.95-1.72-7.54-3.79-7.54-3.79Z" style="fill:#ffa8a7"></path></g><g id="freepik--chest--inject-706"><path d="M439.76,177.64l-10.33-1.9-13.18-.35c-1.89-.08-8.88,5.43-13.69,12.13-2.68,3.73-3.61,9.2,1.81,15.11a89.67,89.67,0,0,1-.08,13.13c-.17,4.25-.54,13.71-.54,13.71,3.92,9.89,30,10,41.68,1.55-1.16-6.5-4.63-12.68-6.23-17.32-.72-3.7.23-9.31,1-11.95,1.63-5.69,3.65-16.22,3.38-17.93A10.63,10.63,0,0,0,439.76,177.64Z" style="fill:#BA68C8"></path></g><g id="freepik--chest--inject-706" style="opacity:0.75"><path d="M439.76,177.64l-10.33-1.9-13.18-.35c-1.89-.08-8.88,5.43-13.69,12.13-2.68,3.73-3.61,9.2,1.81,15.11a89.67,89.67,0,0,1-.08,13.13c-.17,4.25-.54,13.71-.54,13.71,3.92,9.89,30,10,41.68,1.55-1.16-6.5-4.63-12.68-6.23-17.32-.72-3.7.23-9.31,1-11.95,1.63-5.69,3.65-16.22,3.38-17.93A10.63,10.63,0,0,0,439.76,177.64Z" style="fill:#fff"></path></g><g id="freepik--head--inject-706"><path d="M431.85,169.64c-.2-.88,1.49-4.2,2.48-5.57,2.93-4.06,4.41-5.18,5.55-10.24a11.87,11.87,0,0,0-2.6-10.46c-2.15-5.39-5.61-7.73-11.77-8.3a26.2,26.2,0,0,0-8.08.84c-1.15.35-2.26.8-3.43,1.07a6.23,6.23,0,0,1-3.53-.09c-.6-.22-1.31-.56-1.81-.17a1.33,1.33,0,0,0-.4,1,4.21,4.21,0,0,0,2,3.72c-3.3-.42-4.23,2.82-4.07,4.08a3.25,3.25,0,0,0,1.81,2.6,3.13,3.13,0,0,0-.42,3.63,6.28,6.28,0,0,0,2.83,2.14c3.37,1.62,6.22,4.15,9.19,6.41l8.49,6.46,2.77,2.1C430.94,169,431.85,169.49,431.85,169.64Z" style="fill:#37474f"></path><path d="M414.67,142.17c-3.26,1.65-6.15,4-5.93,15.88.16,9.15,2.86,11.5,4.33,12.19a12.63,12.63,0,0,0,6.66.55v5.57s-8.37,7.82-5.54,13.23c13.81-4.31,17.41-13,17.41-13l.47-13.4a3.14,3.14,0,0,0,3.7.12,5.3,5.3,0,0,0,1.48-7.86,3.34,3.34,0,0,0-5.55.77s1.32-8.73-3.55-12.34C422.45,139.63,418.5,140.24,414.67,142.17Z" style="fill:#ffa8a7"></path><path d="M433.39,158.05a1.46,1.46,0,0,0,.95,1.84,1.28,1.28,0,0,0,.27.05c.16,0,.13.5-.06,1.11l-.35,1.1.88.28,1.1-3.5a1.46,1.46,0,0,0-2.79-.88Z" style="fill:#fafafa"></path><path d="M420.34,163.07a2.3,2.3,0,0,1-4.52.8Z" style="fill:#b16668"></path><path d="M417.78,165.73a2,2,0,0,1,2-1.92,1.73,1.73,0,0,1,.6.11,2.29,2.29,0,0,1-1.85,1.81A2.06,2.06,0,0,1,417.78,165.73Z" style="fill:#f28f8f"></path><circle cx="421.7" cy="155.29" r="1.23" style="fill:#263238"></circle><path d="M411.36,154.69a1.23,1.23,0,1,0,1.23-1.23A1.23,1.23,0,0,0,411.36,154.69Z" style="fill:#263238"></path><polygon points="417.19 153.46 416.49 160.6 412.22 159.61 417.19 153.46" style="fill:#f28f8f"></polygon><path d="M419.73,170.79c2.54-.44,8.19-1.81,10.61-6.18a9.22,9.22,0,0,1-2.06,4.4c-2.44,2.55-8.55,3.93-8.55,3.93Z" style="fill:#f28f8f"></path><path d="M421.74,151l2.68,2.08a1.77,1.77,0,0,0-.31-2.44A1.65,1.65,0,0,0,421.74,151Z" style="fill:#263238"></path><path d="M410.69,151.69l3.17-1.27a1.63,1.63,0,0,0-2.17-1A1.77,1.77,0,0,0,410.69,151.69Z" style="fill:#263238"></path><path d="M417.74,145.61c1.43.25,3.13-2.13,6-1.11,3.08,1.09,2.1,4.55,4.31,6.45,1.67,1.44,0,5.42,1.8,6.22.81.35,1.88-1,1.88-1s1.54-2.32,1.17-7.64-7.45-8.87-12.55-9.08-10.41,3.17-10.41,8c0,0,1.27-3,3.68-3.32S416.45,145.39,417.74,145.61Z" style="fill:#37474f"></path></g></g><g id="freepik--Dog--inject-706"><path d="M310.52,348.11c.33.11.14,2.37.11,2.72-.11,1.23-.09,2.49-.13,3.72a14.29,14.29,0,0,0,.44,4.84,2.19,2.19,0,0,0,.67,1.12,1,1,0,0,0,1.22,0,10.19,10.19,0,0,0,.33,2.46,3.47,3.47,0,0,0,1.41,2,2.1,2.1,0,0,0,2.33,0,7.11,7.11,0,0,0,1.68,3.6,2.87,2.87,0,0,0,3.65.44,3.89,3.89,0,0,0,1.53,2.25c.76.58,1.68.9,2.47,1.41s1.79,1.23,2.69,1.83c.29.2,2.62,2.05,3,1.84,0,0-3.34,2-2.26,3s4,1.54,8-1.25c2.78-1.94.59-4.23-1.86-5.59-1.64-.91-6.92-8.69-9.33-10.33a4.15,4.15,0,0,1-2.1-3.78l.23-5.79Z" style="fill:#37474f"></path><path d="M364.41,329l.07.05a4.9,4.9,0,0,0,2.42.53l5.19.32a6.79,6.79,0,0,0,2.25-.11,2.33,2.33,0,0,0,1.66-1.41,1.44,1.44,0,0,0-.88-1.82c.72-.13,1.44-.29,2.16-.47a1.81,1.81,0,0,0,1-.53c.46-.59,0-1.48-.54-2,1.82.07,3.6,1,5.4.71a1.7,1.7,0,0,0,.94-.4,2.12,2.12,0,0,0,.32-1.75c.39.56.77,1.13,1.15,1.69a4.82,4.82,0,0,0,.95,1.11,1.51,1.51,0,0,0,1.38.28.93.93,0,0,0,.57-1.18,4.71,4.71,0,0,1,.71,1c.24.32.67.58,1,.39a.81.81,0,0,0,.31-.37,3.61,3.61,0,0,0,0-3.19,8.74,8.74,0,0,0-2-2.61c.29.13.62-.21.6-.53a1.24,1.24,0,0,0-.5-.78,11.35,11.35,0,0,0-6.4-2.6.69.69,0,0,0-.06-1,1.77,1.77,0,0,0-1.06-.34,9.08,9.08,0,0,0-6.06,1.77,1.41,1.41,0,0,0-1.16-.68,2.77,2.77,0,0,0-1.35.32,9.33,9.33,0,0,0-2.15,1.55,39,39,0,0,0-3.71,3.79,14.43,14.43,0,0,1-2.53,2.59c-.23.16-2.39,1.58-2.69,1.12.65,1,1.29,2,1.93,2.94C363.71,327.88,363.9,328.57,364.41,329Z" style="fill:#37474f"></path><path d="M351.89,351.43c.25-.21.23,1,.22,1a15.29,15.29,0,0,0,.11,1.91,3.9,3.9,0,0,0,1,2.26,1.85,1.85,0,0,0,2.28.34,3.19,3.19,0,0,0-.24,2c.2.63,1,1.09,1.56.67a1.9,1.9,0,0,0-.12,1.77c.5,1.71-.2,3.17-.8,4.78,0,0-2.93,1.44-3.83,2.07s-.52,3.23,3.11,3.33,5.4-1.06,6.23-2.95c.52-1.18,1.91-4.94,2.88-7.62a10.14,10.14,0,0,0,.27-6.14,41.69,41.69,0,0,0-3.25-7.78C359.74,344.79,352,351.38,351.89,351.43Z" style="fill:#37474f"></path><path d="M323.86,327.8c2.94,2.62,14.31-.23,18.47-2.72a25.54,25.54,0,0,1,23-1.14,7.52,7.52,0,0,1,3.25,2.42.89.89,0,0,1,.19.45c0,.45-.56.65-1,.72a13.71,13.71,0,0,1,3.4,3.8,2.13,2.13,0,0,1,.4,1.15,1.19,1.19,0,0,1-1.58,1,7.73,7.73,0,0,1,2.24,4.19,1.4,1.4,0,0,1-.34,1.44c-.1.07-.23.13-.28.25s0,.28.13.4a6.87,6.87,0,0,1,1.15,4.4c-.08,1-.63,2.25-.36,3.2a6.1,6.1,0,0,0,1.09,1.61c.92,1.26,2,2.42,3,3.6,1.52,1.78,4.34,4.33,4.48,6.85a22.85,22.85,0,0,1-.14,6.76,5.14,5.14,0,0,1-2,3.25,2.12,2.12,0,0,1-.48.23,2,2,0,0,1-2.51-.87,5.12,5.12,0,0,1-.43-2.55c0-.64,0-1.29,0-1.94a5.4,5.4,0,0,0-1.62-4.42,3.09,3.09,0,0,0-2.08-1.12,6.92,6.92,0,0,1-2.31-.29,2.33,2.33,0,0,1-1.35-2.21,2,2,0,0,1-3.6-1.67A6.1,6.1,0,0,1,363,355a2,2,0,0,1-1.5-.44,2.06,2.06,0,0,1-.6-1.59,6.25,6.25,0,0,1,.38-1.7,5.06,5.06,0,0,1-1.72,1.63,3,3,0,0,1-2.31.28.61.61,0,0,1-.43-.36,3.63,3.63,0,0,1-.9,2.46c-1,1.12-2.42.82-3.62.28a11,11,0,0,1-.94,3.23,3.73,3.73,0,0,1-2.53,2,13.68,13.68,0,0,0-2.65.2c-1.73.65-1.76,3.19-3.12,4.44-1.14,1-2.89.94-4.42.77a13.43,13.43,0,0,1-.44,3.34,4.54,4.54,0,0,1-1.95,2.67c-.23.13-.49.26-.56.52a1,1,0,0,0,.12.59,2.77,2.77,0,0,1-.59,2.88,2,2,0,0,0-.63.79,2,2,0,0,0,.2,1.13,3.16,3.16,0,0,1-.71,3.06,2.46,2.46,0,0,0-.72.92,5.22,5.22,0,0,0,0,1.12,3.4,3.4,0,0,1-1.08,1.84c-1.08,1.25-.85,3.16-1.68,4.6a5.83,5.83,0,0,1-4.37,2.62c-3.74.59-6.26.3-6.73-.46-2-3.21,4.73-5.15,4.73-5.15.22-.69.54-1.38.72-2.07.3-1.11-.05-2.24.41-3.36a2,2,0,0,0,.21-.63,2.32,2.32,0,0,0-.08-.58,2.63,2.63,0,0,1,.62-2.15,1.55,1.55,0,0,0,.37-.52,1.38,1.38,0,0,0-.09-.69,3.59,3.59,0,0,1,.33-2.7c.18-.32.42-.67.3-1a1.7,1.7,0,0,0-.35-.46,2.42,2.42,0,0,1-.45-1.83,7.06,7.06,0,0,1,.59-1.84,6.34,6.34,0,0,1-1.8-.8,2.1,2.1,0,0,1-.94-1.66,3,3,0,0,1,.35-1.16,5.83,5.83,0,0,1-2.55-.56,2.49,2.49,0,0,1-1.2-1.37,10.2,10.2,0,0,1-.2-1.62,2.85,2.85,0,0,1-3-.22,4.49,4.49,0,0,1-1.68-2.58,2.82,2.82,0,0,1-2.86-1.3,5.84,5.84,0,0,1-.82-3.2,3.12,3.12,0,0,1-2.16-.32,2.57,2.57,0,0,1-.82-2.1,7.09,7.09,0,0,1,.5-2.65,4.13,4.13,0,0,1-1.37.58,1.48,1.48,0,0,1-1.37-.41,1.92,1.92,0,0,1-.14-1.81,7.44,7.44,0,0,1,.7-1.55c.09-.14.77-1.17.91-1.15a2.18,2.18,0,0,1-1-.35,1.34,1.34,0,0,1-.57-.86,2.24,2.24,0,0,1,.47-1.51,8,8,0,0,1,2.21-2.31c.46-.33,1.2-.59,1.52-1a10.07,10.07,0,0,0,.61-1.59,17,17,0,0,1,4.59-6.52,12.46,12.46,0,0,1,3.41-2,13.44,13.44,0,0,1,2-.62C322,328.06,323.61,327.58,323.86,327.8Z" style="fill:#455a64"></path><path d="M309.18,339.13l6.28.27,6.73-2.08,5.07-5.26c0,2.93-2.26,8.78-8,10.57a11.31,11.31,0,0,1-8.21-.49,3.81,3.81,0,0,1-2.17-2.69v0C308.83,339.32,309.2,339.22,309.18,339.13Z" style="fill:#37474f"></path><path d="M307.91,314.71a9.77,9.77,0,0,1-1.56,3.29,3.62,3.62,0,0,1-1,1,1.62,1.62,0,0,1-1.3.22,1,1,0,0,1-.7-.78,4.86,4.86,0,0,1-2.25,2.21,2.44,2.44,0,0,1-2.9-.7,2.47,2.47,0,0,1-.07-2.39,5.55,5.55,0,0,1-1.63-.07,1.77,1.77,0,0,1-1.25-.95,1.82,1.82,0,0,1,.42-1.87,4.41,4.41,0,0,1,1.2-.89c.26-.14.71-.59,1-.48a2.46,2.46,0,0,1-.78-.38.84.84,0,0,1-.32-.77c.07-.34.4-.55.72-.71a9,9,0,0,1,3.13-.85.76.76,0,0,1,.1-1,1.89,1.89,0,0,1,1-.44,9,9,0,0,1,3.3-.19,4.4,4.4,0,0,1,2.81,1.3,3.27,3.27,0,0,1,.3,2.22C308.09,313.19,308.1,314,307.91,314.71Z" style="fill:#263238"></path><path d="M309.24,339.4c-.07-.35-.14-.71-.22-1.07-.14-.62-.23-.73-.6-.1s-.69,1.26-1.46,1.48a2,2,0,0,1-1.95-.54,1.9,1.9,0,0,1-.65,1.41,1.56,1.56,0,0,1-.88.18,3.74,3.74,0,0,1-2.74-1.43,1.05,1.05,0,0,1-1,1,2.11,2.11,0,0,1-1.42-.55,2.51,2.51,0,0,1-.93-1.27.92.92,0,0,1-1,.63,1.49,1.49,0,0,1-1-.69,3.9,3.9,0,0,1-.45-1.19.45.45,0,0,1-.47.26,1,1,0,0,1-.51-.28,3.58,3.58,0,0,1-1.07-2.37,8.65,8.65,0,0,1,.26-2.63,5.91,5.91,0,0,1,1.47-2.36,13.49,13.49,0,0,0,1.73-2.68c1.1-2.47,1.31-7.67,3-11.24s6.74-5.84,12-5c7.65,1.21,9.73,7.16,11.71,13.26a5.76,5.76,0,0,0,3,3.68" style="fill:#455a64"></path><path d="M306.69,324.42a2.26,2.26,0,0,0,1.95,1.43,3.21,3.21,0,0,0,2-.22,1.82,1.82,0,0,0,1-1.64,2.84,2.84,0,0,0,2.53,1,2.66,2.66,0,0,0,2-.83,3.44,3.44,0,0,0,.28-2.84,1.47,1.47,0,0,0,1.76-1,3.49,3.49,0,0,0-.24-2.24,9.38,9.38,0,0,0-4.1-5.16c-3-1.61-6.95-1.6-10.18-.95l-.45.12a8.37,8.37,0,0,0-4,3.87c-1.19,2.56-1.63,5.95-2.19,8.58a3.13,3.13,0,0,0,1.89.35c.55,0,2.44-.38,2.63-1a1.68,1.68,0,0,0,.73,1.77,2.75,2.75,0,0,0,2,.37A3.24,3.24,0,0,0,306.69,324.42Z" style="fill:#37474f"></path><path d="M303.76,310.85a16.32,16.32,0,0,0-5,2,1.93,1.93,0,0,0-1,1c-.13.47.28,1.08.75,1a7.47,7.47,0,0,0-2.25,1,2.76,2.76,0,0,0-1.26,1.58,1.63,1.63,0,0,0,2,1.89,6.33,6.33,0,0,0-.85,1.68,2.15,2.15,0,0,0,.24,1.8,2.67,2.67,0,0,0,2.52.92c.55,0,2.44-.39,2.63-1a1.7,1.7,0,0,0,.73,1.78,2.8,2.8,0,0,0,2,.36,3.21,3.21,0,0,0,2.39-1.54,2.25,2.25,0,0,0,1.95,1.44,3.22,3.22,0,0,0,2-.23,1.81,1.81,0,0,0,1-1.64,2.85,2.85,0,0,0,2.53,1,2.66,2.66,0,0,0,2-.83,3.46,3.46,0,0,0,.28-2.85,1.45,1.45,0,0,0,1.76-1A3.51,3.51,0,0,0,318,317a9.38,9.38,0,0,0-4.1-5.16C311,310.19,307,310.2,303.76,310.85Z" style="fill:#455a64"></path><path d="M308.85,337.64c5.39-.67,7-3.1,7-3.1s2.4,2.33-.16,4.24S308.85,337.64,308.85,337.64Z" style="fill:#37474f"></path><path d="M308.85,337.64c3.58,1.9,8.87.48,11.94-2.18,2.52-2.17,3.65-5.6,2.85-9.71,0,0,3,.48,3.66,2.55a10.34,10.34,0,0,1-3.27,9.42c-2.93,2.76-10.17,6.07-14.56,3A2.64,2.64,0,0,1,308.85,337.64Z" style="fill:#BA68C8"></path><polygon points="395.64 240.26 324.55 328.69 327.31 330.83 398.29 241.84 395.64 240.26" style="fill:#BA68C8"></polygon><path d="M311.66,312.11c-.34-.19,1.54-1.41,1.69-1.46a7,7,0,0,1,3.09-.31,10.5,10.5,0,0,1,3,1,18.13,18.13,0,0,1,3.4,1.73,9,9,0,0,1,3.38,3.89,1.63,1.63,0,0,1-.08,1.77c-.11.12-.26.22-.27.38a.54.54,0,0,0,.09.24,11.14,11.14,0,0,1,1.25,3.08,3.18,3.18,0,0,1,.1,1.3,1.38,1.38,0,0,1-.71,1c-.23.1-.53.18-.55.43a.54.54,0,0,0,.07.27,4.84,4.84,0,0,1,.39,2.73,1.38,1.38,0,0,1-.55,1,1.54,1.54,0,0,1-.74.15,1.59,1.59,0,0,1-1.43-.43,1,1,0,0,1-.65.83,2,2,0,0,1-1.08.11,3.68,3.68,0,0,1-2.95-2.53,2,2,0,0,1-1.93-.25,4.62,4.62,0,0,1-1.73-2.63,18.78,18.78,0,0,1-.46-3.17,30.22,30.22,0,0,0-1.07-5.42C313.55,314.5,313,312.86,311.66,312.11Z" style="fill:#263238"></path><path d="M295.46,336.06c1,.17,2.88-1.08,3.42-2.1a2,2,0,0,0-1-2.74,7.11,7.11,0,0,0-3.69-.4,2.35,2.35,0,0,0-1.3,2.22C293.18,334.21,294.09,335.83,295.46,336.06Z" style="fill:#263238"></path></g><g id="freepik--arm--inject-706"><path d="M439.76,177.64c7.74,1.09,9.33,8,7.43,16.76-1.8,8.29-4,16-5.13,20.84-.94,3.95-.87,5.27-5.09,8.71s-17.25,11.38-20.72,14.51a18.69,18.69,0,0,0-2.21,2.41c-.6.77-1,1.62-1.59,2.39a20.37,20.37,0,0,1-4.41,4,5.66,5.66,0,0,1-1.68.85,2.33,2.33,0,0,1-1.83-.2,1.68,1.68,0,0,0-.3-.15,1,1,0,0,0-.45,0,2.59,2.59,0,0,1-2.38-.72,1.83,1.83,0,0,0-.48-.44,1.36,1.36,0,0,0-.75-.09,6.07,6.07,0,0,1-1.41.07,1.55,1.55,0,0,1-1.17-.69,2.45,2.45,0,0,0-.3-.58,1.34,1.34,0,0,0-.37-.25l-2-1a1.47,1.47,0,0,1-.64-.48c-.26-.45,0-1,.3-1.45l1.63-2.59a2.06,2.06,0,0,1,.6-.68c.51-.36,1.25.25,1.31.21l1.72-1.32c.3-.22,1.11-.6,1.2-1a10.16,10.16,0,0,1,1.05-2.8,5.21,5.21,0,0,1,1.75-1.29,20.52,20.52,0,0,1,2.73-1.16,16.9,16.9,0,0,0,3.95-1.58,19.87,19.87,0,0,0,2.41-2.08c1.65-1.54,3.33-3,5-4.55q5.52-4.89,11.15-9.67l3.87-22.28S434.18,180.9,439.76,177.64Z" style="fill:#ffa8a7"></path><path d="M397.94,239.37c2.31-1.65,14.62-5.87,18-5.25L414,231.5s-12.25,2.56-16.91,7.33A.9.9,0,0,1,397.94,239.37Z" style="fill:#BA68C8"></path><path d="M410.2,230.18c2,.53,5.49,2.57,6.69,7.74L419,236.3a9.16,9.16,0,0,0-7.07-7.5Z" style="fill:#BA68C8"></path></g></g></g></svg>